<svg xmlns="http://www.w3.org/2000/svg" width="107.543" height="107.543" viewBox="-72 -72 80.657 80.657"><g stroke-width=".399" stroke="#000" stroke-miterlimit="10"><path d="M-67.104 3.762H3.762m-70.866-14.174H3.762m-70.866-14.173H3.762m-70.866-14.173H3.762m-70.866-14.173H3.762m-70.866-14.173H3.762M-67.104 3.762v-70.866m14.173 70.866v-70.866m14.173 70.866v-70.866m14.173 70.866v-70.866m14.173 70.866v-70.866M3.762 3.762v-70.866m0 0" fill="none" stroke="gray"/><path d="M-62.408 3.762a4.696 4.696 0 10-9.393 0 4.696 4.696 0 009.393 0zm-4.696 0" fill="red"/><path d="M-48.235 3.762a4.696 4.696 0 10-9.392 0 4.696 4.696 0 009.392 0zm-4.696 0"/><path d="M-34.062 3.762a4.696 4.696 0 10-9.392 0 4.696 4.696 0 009.392 0zm-4.696 0" fill="red"/><path d="M-19.889 3.762a4.696 4.696 0 10-9.392 0 4.696 4.696 0 009.392 0zm-4.696 0"/><path d="M-5.715 3.762a4.696 4.696 0 10-9.393 0 4.696 4.696 0 009.393 0zm-4.697 0" fill="red"/><path d="M8.458 3.762a4.696 4.696 0 10-9.393 0 4.696 4.696 0 009.393 0zm-70.866-14.174a4.696 4.696 0 10-9.393 0 4.696 4.696 0 009.393 0zm-4.696 0"/><path d="M-48.235-10.412a4.696 4.696 0 10-9.392 0 4.696 4.696 0 009.392 0zm-4.696 0" fill="red"/><path d="M-34.062-10.412a4.696 4.696 0 10-9.392 0 4.696 4.696 0 009.392 0zm-4.696 0"/><path d="M-19.889-10.412a4.696 4.696 0 10-9.392 0 4.696 4.696 0 009.392 0zm-4.696 0" fill="red"/><path d="M-5.715-10.412a4.696 4.696 0 10-9.393 0 4.696 4.696 0 009.393 0zm-4.697 0"/><path d="M8.458-10.412a4.696 4.696 0 10-9.393 0 4.696 4.696 0 009.393 0zm-70.866-14.173a4.696 4.696 0 10-9.393 0 4.696 4.696 0 009.393 0zm-4.696 0" fill="red"/><path d="M-48.235-24.585a4.696 4.696 0 10-9.392 0 4.696 4.696 0 009.392 0zm-4.696 0"/><path d="M-34.062-24.585a4.696 4.696 0 10-9.392 0 4.696 4.696 0 009.392 0zm-4.696 0" fill="red"/><path d="M-19.889-24.585a4.696 4.696 0 10-9.392 0 4.696 4.696 0 009.392 0zm-4.696 0"/><path d="M-5.715-24.585a4.696 4.696 0 10-9.393 0 4.696 4.696 0 009.393 0zm-4.697 0" fill="red"/><path d="M8.458-24.585a4.696 4.696 0 10-9.393 0 4.696 4.696 0 009.393 0zm-70.866-14.173a4.696 4.696 0 10-9.393 0 4.696 4.696 0 009.393 0zm-4.696 0"/><path d="M-48.235-38.758a4.696 4.696 0 10-9.392 0 4.696 4.696 0 009.392 0zm-4.696 0" fill="red"/><path d="M-34.062-38.758a4.696 4.696 0 10-9.392 0 4.696 4.696 0 009.392 0zm-4.696 0"/><path d="M-19.889-38.758a4.696 4.696 0 10-9.392 0 4.696 4.696 0 009.392 0zm-4.696 0" fill="red"/><path d="M-5.715-38.758a4.696 4.696 0 10-9.393 0 4.696 4.696 0 009.393 0zm-4.697 0"/><path d="M8.458-38.758a4.696 4.696 0 10-9.393 0 4.696 4.696 0 009.393 0zm-70.866-14.173a4.696 4.696 0 10-9.393 0 4.696 4.696 0 009.393 0zm-4.696 0" fill="red"/><path d="M-48.235-52.931a4.696 4.696 0 10-9.392 0 4.696 4.696 0 009.392 0zm-4.696 0"/><path d="M-34.062-52.931a4.696 4.696 0 10-9.392 0 4.696 4.696 0 009.392 0zm-4.696 0" fill="red"/><path d="M-19.889-52.931a4.696 4.696 0 10-9.392 0 4.696 4.696 0 009.392 0zm-4.696 0"/><path d="M-5.715-52.931a4.696 4.696 0 10-9.393 0 4.696 4.696 0 009.393 0zm-4.697 0" fill="red"/><path d="M8.458-52.931a4.696 4.696 0 10-9.393 0 4.696 4.696 0 009.393 0zm-70.866-14.173a4.696 4.696 0 10-9.393 0 4.696 4.696 0 009.393 0zm-4.696 0"/><path d="M-48.235-67.104a4.696 4.696 0 10-9.392 0 4.696 4.696 0 009.392 0zm-4.696 0" fill="red"/><path d="M-34.062-67.104a4.696 4.696 0 10-9.392 0 4.696 4.696 0 009.392 0zm-4.696 0"/><path d="M-19.889-67.104a4.696 4.696 0 10-9.392 0 4.696 4.696 0 009.392 0zm-4.696 0" fill="red"/><path d="M-5.715-67.104a4.696 4.696 0 10-9.393 0 4.696 4.696 0 009.393 0zm-4.697 0"/><path d="M8.458-67.104a4.696 4.696 0 10-9.393 0 4.696 4.696 0 009.393 0zm-4.696 0" fill="red"/></g></svg>