<svg xmlns="http://www.w3.org/2000/svg" width="153.306" height="151.712" viewBox="-72 -72 114.98 113.784"><g stroke-width=".4" stroke="#000" stroke-miterlimit="10" fill="none"><path d="M-71.203-71.8V41.584H42.183V-71.801zM42.183 41.584" stroke-width=".399"/><path d="M-42.857-43.454v28.346h28.347v-28.346zm28.347 28.346" stroke-width=".399"/><path d="M-14.51-43.454v28.346h28.346v-28.346zm28.346 0v28.346h28.347v-28.346zm-56.693 28.346V13.24h28.347v-28.347zM-14.51 13.24" stroke-width=".399"/><path d="M-42.857 13.239v28.346h28.347V13.239zM-71.203-71.8l56.693 56.692" stroke-width=".399"/><path d="M-71.203-29.281h28.346m-28.346 5.669h28.346m-28.346 51.024h28.346M-71.203 7.57h28.346m28.347-36.851h56.693m-56.693 5.669h56.693M-14.51 27.412h56.693M-14.51 7.57h56.693" stroke-width="1.594"/></g></svg>