<svg xmlns="http://www.w3.org/2000/svg" width="151.712" height="152.509" viewBox="-72 -72 113.784 114.382"><g stroke-width=".4" stroke="#000" stroke-miterlimit="10"><path d="M-15.108-43.454v28.346h56.693v-28.346zm56.693 28.346" fill="#00f" stroke-width=".399"/><path d="M-71.8-71.8V41.584H41.584V-71.801zM41.584 41.584" fill="none" stroke-width=".399"/><path d="M-43.454-43.454v28.346h28.346v-28.346zm28.346 0v28.346H13.24v-28.346zM13.24-15.108" fill="none" stroke-width=".399"/><path d="M13.239-43.454v28.346h28.346v-28.346zm-56.693 28.346V13.24h28.346v-28.347zm28.346 28.347" fill="none" stroke-width=".399"/><path d="M-43.454 13.239v28.346h28.346V13.239zM-71.8-71.8l56.692 56.692" fill="none" stroke-width=".399"/><g fill="none" stroke="#00f" stroke-width="1.6"><path d="M-.935-15.108V40.38" stroke-width="1.594"/><path d="M2.094 38.108c-1.136.19-2.84 2.272-3.029 2.84-.189-.568-1.893-2.65-3.028-2.84" stroke-linejoin="round" stroke-linecap="round" stroke-width="1.275"/></g><g fill="none" stroke="#00f" stroke-width="1.6"><path d="M27.412-15.108V40.38" stroke-width="1.594"/><path d="M30.44 38.108c-1.135.19-2.839 2.272-3.028 2.84-.19-.568-1.893-2.65-3.029-2.84" stroke-linejoin="round" stroke-linecap="round" stroke-width="1.275"/></g></g></svg>