<svg xmlns="http://www.w3.org/2000/svg" width="152.509" height="151.712" viewBox="-72 -72 114.382 113.784"><g stroke-width=".4" stroke="#000" stroke-miterlimit="10"><path d="M-71.8-71.8V41.584H41.584V-71.801zM41.584 41.584" fill="none" stroke-width=".399"/><path d="M-43.454-43.454v28.346h28.346v-28.346zm28.346 0v28.346H13.24v-28.346zM13.24-15.108" fill="none" stroke-width=".399"/><path d="M13.239-43.454v28.346h28.346v-28.346zm-56.693 28.346V13.24h28.346v-28.347zm28.346 28.347" fill="none" stroke-width=".399"/><path d="M-43.454 13.239v28.346h28.346V13.239zM-71.8-71.8l56.692 56.692" fill="none" stroke-width=".399"/><path d="M-43.454-43.454l28.346 28.346h-28.346z" fill="gray" stroke-width=".399"/><g fill="none" stroke="#00f" stroke-width="1.6"><path d="M-23.612-29.281H40.38" stroke-width="1.594"/><path d="M38.108-32.31c.19 1.136 2.272 2.84 2.84 3.029-.568.19-2.65 1.893-2.84 3.029" stroke-linejoin="round" stroke-linecap="round" stroke-width="1.275"/></g></g></svg>