<svg xmlns="http://www.w3.org/2000/svg" width="153.306" height="151.712" viewBox="-72 -72 114.98 113.784"><g stroke-width=".4" stroke="#000" stroke-miterlimit="10" fill="none"><path d="M-71.203-71.8V41.584H42.183V-71.801zM42.183 41.584" stroke-width=".399"/><path d="M-42.857-43.454v28.346h28.347v-28.346zm28.347 28.346" stroke-width=".399"/><path d="M-14.51-43.454v28.346h28.346v-28.346zm28.346 0v28.346h28.347v-28.346zm-56.693 28.346V13.24h28.347v-28.347zM-14.51 13.24" stroke-width=".399"/><path d="M-42.857 13.239v28.346h28.347V13.239zM-71.203-71.8l56.693 56.692" stroke-width=".399"/><g stroke="#00f" stroke-width="1.6"><path d="M-69.998-29.281H40.977" stroke-width="1.594"/><path d="M-67.726-26.252c-.19-1.136-2.272-2.84-2.84-3.03.568-.188 2.65-1.892 2.84-3.028m106.432 0c.19 1.136 2.271 2.84 2.84 3.029-.569.19-2.65 1.893-2.84 3.029" stroke-linejoin="round" stroke-linecap="round" stroke-width="1.275"/></g><g stroke="#00f" stroke-width="1.6"><path d="M-69.998-.935H40.977" stroke-width="1.594"/><path d="M-67.726 2.094c-.19-1.136-2.272-2.84-2.84-3.029.568-.189 2.65-1.893 2.84-3.028m106.432 0c.19 1.135 2.271 2.84 2.84 3.028-.569.19-2.65 1.893-2.84 3.029" stroke-linejoin="round" stroke-linecap="round" stroke-width="1.275"/></g><g stroke="#00f" stroke-width="1.6"><path d="M-69.998 27.412H40.977" stroke-width="1.594"/><path d="M-67.726 30.44c-.19-1.135-2.272-2.839-2.84-3.028.568-.19 2.65-1.893 2.84-3.029m106.432 0c.19 1.136 2.271 2.84 2.84 3.029-.569.19-2.65 1.893-2.84 3.028" stroke-linejoin="round" stroke-linecap="round" stroke-width="1.275"/></g></g></svg>