<svg xmlns="http://www.w3.org/2000/svg" width="274.275" height="202.842" viewBox="-72 -72 205.707 152.132"><g stroke-width=".399" stroke="#000" stroke-miterlimit="10"><path d="M66.525-9.737l18.19-5.518M-.072 27.425L84.714-14.58M-.201 27.183L59.486-6.674m20.205 3.839l6.314-9.968M73.943-1.592l-7.418-4.8m7.418 8.318L.157 27.97m102.065-59.198L91.536-19.843m19.257-17.077l-19.04 17.384m12.237-4.665l-12.236 6.118m14.961-11.397l-.395-1.748m2.879 1.748l3.424-7.134M78.932 5.953l7.832-18.756M74.657 5.953L65.81-5.15m8.133 15.487L.295 28.431M77.462 5.953V4.205M-3.08 3.88l87.794-19.425M-7.192 9.786l2.064 14.963m-19.88 27.845l17.287-19.345M98.543-64.96L88.98-19.843M99.94-64.96l4.935 26.692m-3.721-26.692l11.293 21.306M99.979 15.59l-10.45-28.393M100.243-.85l-9.278-11.953m8.489 15.199L80.982.959M59.722-21.37l24.992 4.424M58-18.472l3.209 6.283M52.683-19L-.73 26.426m60.232-44.898l14.66 15.637m53.168-21.26l-10.16-12.519m9.497 15.204l-15.638-3.715m-40.145-13.19l14.573 18.472m-17.89-18.472l-4.02 26.126m6.812 23.811l15.624-24.425M67.354 11.622L63.76-5.15m15.729-26.362l6.719 11.67m-10.676-11.67L64.935-12.189M-57.074 46.908l2.332-11.659m.862 19.051l29.394 18.344m1.77-54.601l14.12 8.938m-22.532-9.171l-18.379 10.254m23.185-7.772l5.459 50.078m8.059-23.63L-6.602 34m-57.691-18.536l7.7 10.977m-5.639-14.513l-.958-.092m38.912-7.614L59.486-8.15M-24.225 4.937h11.469M-32.85 55.725L84.714-14.23M-33.625 61.719l9.86 10.027m-17.967-14.971l-11.627-3.614m20.963 3.573l12.787-4.098m5.61-13.705l6.04-5.91m-8.318 4.593l7.196-27.936M-22.224 43.63l-18.895 5.102m20.19-9.87l-24.603-25.047m24.048 31.381l-22.643 16.143m21.745-18.648l-39.555 2.728m39.578-3.646l-35.35-4.224m35.559 3.279l-26.98-8.853m27.476 7.791l-41.295-25.721M-18.95 37.68l-8.718-28.068m6.368 35.827l-11.956 9.704m-2.957-33.934l24.107-13.835M-38.744 28.23l8.76 23.429m-6.048-30.103l88.715-41.887m-94.122 48.773l-3.426 16.77m1.772-25.692l-3.236-5.07m4.962 14.006l-5.837 30.915m11.625-36.108l100.167-7.846M-44.21 26.792L-63.07 42.61m18.418-16.438l-13.724 8.27m13.557-8.57l-4.603 2.35m4.83-7.2l-9.593-6.091m17.916 6.183l5.226-3.157m-6.087 9.277l18.853 20.319M-44.91 21.61l-17.743-8.117m24.731 5.967l6.264-10.337m-8.322 19.394l2.444 24.84m.872-26.619l15.37 12.524" fill="none"/><path d="M84.913-13.002h6.641v-6.641h-6.64z" fill="#cacaca"/><path d="M59.685-5.349h6.641v-6.64h-6.64z" fill="#828282"/><path d="M.237 29.598a4.696 4.696 0 10-9.392 0 4.696 4.696 0 009.392 0zm-4.696 0" fill="#4a4a4a"/><path d="M74.142 4.005h6.64v-6.64h-6.64z" fill="#787878"/><path d="M102.205-31.428h6.64v-6.64h-6.64z" fill="#cacaca"/><path d="M110.992-36.813h6.641v-6.641h-6.641z" fill="#fafafa"/><path d="M104.189-22.64h6.641v-6.641h-6.641z" fill="#fff"/><path d="M74.142 12.793h6.64V6.152h-6.64z" fill="#7d7d7d"/><path d="M-3.164 4.937a4.696 4.696 0 10-9.393 0 4.696 4.696 0 009.393 0zm-4.697 0" fill="#353535"/><path d="M-23.574 56.244a4.696 4.696 0 10-9.392 0 4.696 4.696 0 009.392 0zm-4.696 0" fill="#0f0f0f"/><path d="M95.968-65.16h6.642v-6.64h-6.642z" fill="#bababa"/><path d="M97.953 22.43h6.64v-6.64h-6.64z" fill="#757575"/><path d="M99.654 5.99h6.64V-.651h-6.64z" fill="#949494"/><path d="M52.882-18.672h6.641v-6.64h-6.641z" fill="#636363"/><path d="M-41.148 50.008a4.696 4.696 0 10-9.393 0 4.696 4.696 0 009.393 0zm-3.119-39.685a4.696 4.696 0 10-9.392 0 4.696 4.696 0 009.392 0zm-4.696 0"/><path d="M126.866-17.254h6.641v-6.641h-6.64z" fill="#a8a8a8"/><path d="M64.787-38.514h6.641v-6.641h-6.64z" fill="#919191"/><path d="M-43.416 64.181a4.696 4.696 0 10-9.393 0 4.696 4.696 0 009.393 0zm-4.696 0"/><path d="M64.787 18.462h6.641v-6.64h-6.64z" fill="#636363"/><path d="M-62.125 45.756a4.696 4.696 0 10-9.392 0 4.696 4.696 0 009.392 0zm-4.696 0"/><path d="M74.142-31.71h6.64v-6.642h-6.64z" fill="#919191"/><path d="M-57.873 36.968a4.696 4.696 0 10-9.392 0 4.696 4.696 0 009.392 0zm-4.696 0"/><path d="M-49.086 30.449a4.696 4.696 0 10-9.392 0 4.696 4.696 0 009.392 0zm-4.696 0" fill="#050505"/><path d="M-15.637 75.236a4.696 4.696 0 10-9.392 0 4.696 4.696 0 009.392 0zm-4.696 0" fill="#141414"/><path d="M-53.337 51.709a4.696 4.696 0 10-9.393 0 4.696 4.696 0 009.393 0zm-4.697 0" fill="#1c1c1c"/><path d="M-53.62 12.307a4.696 4.696 0 10-9.393 0 4.696 4.696 0 009.392 0zm-4.697 0" fill="#191919"/><path d="M-22.156 15.425a4.696 4.696 0 10-9.393 0 4.696 4.696 0 009.393 0zm-4.697 0" fill="#070707"/><path d="M-10.25 51.142a4.696 4.696 0 10-9.393 0 4.696 4.696 0 009.392 0zm-4.697 0" fill="#262626"/><path d="M-62.408 11.457a4.696 4.696 0 10-9.393 0 4.696 4.696 0 009.393 0zm-4.697 0" fill="#141414"/><path d="M-24.424 4.937a4.696 4.696 0 10-9.393 0 4.696 4.696 0 009.393 0zm-4.696 0" fill="#3d3d3d"/><path d="M-32.361 58.228a4.696 4.696 0 10-9.393 0 4.696 4.696 0 009.393 0zm-4.696 0" fill="#282828"/><path d="M-12.802 42.354a4.696 4.696 0 10-9.392 0 4.696 4.696 0 009.392 0zm-4.696 0" fill="#474747"/><path d="M-35.763 23.646a4.696 4.696 0 10-9.392 0 4.696 4.696 0 009.392 0zm-4.696 0" fill="#4a4a4a"/></g></svg>