<svg xmlns="http://www.w3.org/2000/svg" width="125.909" height="50.319" viewBox="-72 -72 94.432 37.739"><g stroke-width=".4" stroke="#000" stroke-miterlimit="10"><path d="M-62.607-38.957a4.696 4.696 0 10-9.393 0 4.696 4.696 0 009.393 0zm28.346 0a4.696 4.696 0 10-9.392 0 4.696 4.696 0 009.392 0zm28.346 0a4.696 4.696 0 10-9.392 0 4.696 4.696 0 009.392 0zm28.347 0a4.696 4.696 0 10-9.393 0 4.696 4.696 0 009.393 0zm-85.039-28.347a4.696 4.696 0 10-9.393 0 4.696 4.696 0 009.393 0zm28.346 0a4.696 4.696 0 10-9.392 0 4.696 4.696 0 009.392 0zm28.346 0a4.696 4.696 0 10-9.392 0 4.696 4.696 0 009.392 0zm28.347 0a4.696 4.696 0 10-9.393 0 4.696 4.696 0 009.393 0zm-4.696 0" fill="#8080ff" stroke="none"/><path d="M-67.304-62.408v18.097" fill="none" stroke-width=".399"/><path d="M-65.71-45.507c-.598.1-1.494 1.196-1.594 1.495-.1-.3-.996-1.395-1.594-1.495" fill="none" stroke-linejoin="round" stroke-linecap="round" stroke-width=".319"/><path d="M-63.842-63.842l21.099 21.099" fill="none" stroke-width=".399"/><path d="M-42.461-44.715c-.352.493-.212 1.902-.07 2.183-.282-.14-1.691-.281-2.184.07" fill="none" stroke-linejoin="round" stroke-linecap="round" stroke-width=".319"/><path d="M-38.957-62.408v18.097" fill="none" stroke-width=".399"/><path d="M-37.363-45.507c-.598.1-1.495 1.196-1.594 1.495-.1-.3-.997-1.395-1.594-1.495" fill="none" stroke-linejoin="round" stroke-linecap="round" stroke-width=".319"/><path d="M-42.419-63.842l-21.1 21.099" fill="none" stroke-width=".399"/><path d="M-61.546-42.461c-.493-.352-1.902-.212-2.183-.07.14-.282.281-1.691-.07-2.184" fill="none" stroke-linejoin="round" stroke-linecap="round" stroke-width=".319"/><path d="M-35.496-63.842l21.1 21.099" fill="none" stroke-width=".399"/><path d="M-14.115-44.715c-.352.493-.211 1.902-.07 2.183-.282-.14-1.69-.281-2.184.07" fill="none" stroke-linejoin="round" stroke-linecap="round" stroke-width=".319"/><path d="M-10.61-62.408v18.097" fill="none" stroke-width=".399"/><path d="M-9.017-45.507c-.598.1-1.494 1.196-1.594 1.495-.1-.3-.996-1.395-1.594-1.495" fill="none" stroke-linejoin="round" stroke-linecap="round" stroke-width=".319"/><path d="M-14.073-63.842l-21.099 21.099" fill="none" stroke-width=".399"/><path d="M-33.2-42.461c-.492-.352-1.901-.212-2.183-.07.14-.282.282-1.691-.07-2.184" fill="none" stroke-linejoin="round" stroke-linecap="round" stroke-width=".319"/><path d="M-7.15-63.842l21.1 21.099" fill="none" stroke-width=".399"/><path d="M14.232-44.715c-.353.493-.212 1.902-.07 2.183-.283-.14-1.691-.281-2.185.07" fill="none" stroke-linejoin="round" stroke-linecap="round" stroke-width=".319"/><path d="M17.736-62.408v18.097" fill="none" stroke-width=".399"/><path d="M19.33-45.507c-.598.1-1.495 1.196-1.594 1.495-.1-.3-.997-1.395-1.594-1.495" fill="none" stroke-linejoin="round" stroke-linecap="round" stroke-width=".319"/><path d="M14.274-63.842l-21.1 21.099" fill="none" stroke-width=".399"/><path d="M-4.853-42.461c-.493-.352-1.902-.212-2.184-.07.141-.282.282-1.691-.07-2.184" fill="none" stroke-linejoin="round" stroke-linecap="round" stroke-width=".319"/></g></svg>