<svg xmlns="http://www.w3.org/2000/svg" width="277.09" height="12.523" viewBox="-72 -72 207.818 9.393"><path d="M-62.607-67.304a4.696 4.696 0 10-9.393 0 4.696 4.696 0 009.393 0zm28.346 0a4.696 4.696 0 10-9.392 0 4.696 4.696 0 009.392 0zm28.346 0a4.696 4.696 0 10-9.392 0 4.696 4.696 0 009.392 0zm28.347 0a4.696 4.696 0 10-9.393 0 4.696 4.696 0 009.393 0zm28.346 0a4.696 4.696 0 10-9.392 0 4.696 4.696 0 009.392 0zm28.347 0a4.696 4.696 0 10-9.393 0 4.696 4.696 0 009.393 0zm28.346 0a4.696 4.696 0 10-9.392 0 4.696 4.696 0 009.392 0zm28.347 0a4.696 4.696 0 10-9.393 0 4.696 4.696 0 009.393 0zm-4.697 0" fill="#8080ff"/></svg>