<svg xmlns="http://www.w3.org/2000/svg" width="272.658" height="272.658" viewBox="-72 -72 204.494 204.494"><g stroke-width=".4" stroke="#000" stroke-miterlimit="10"><path d="M-71.8 132.294V64.263h68.03v68.031zm68.03-68.031" fill="#fff" stroke-width=".399"/><path d="M-71.8 64.263V-3.77h68.03v68.032zM-3.77-3.77" fill="#ffd1d1" stroke-width=".399"/><path d="M-71.8-3.769v-68.032h68.03v68.032zm68.03-68.032" fill="#ffa3a3" stroke-width=".399"/><path d="M-3.769 132.294V64.263h68.032v68.031zm68.032-68.031" fill="#ffd1d1" stroke-width=".399"/><path d="M-3.769 64.263V-3.77h68.032v68.032zM64.263-3.77" fill="#ffa3a3" stroke-width=".399"/><path d="M-3.769-3.769v-68.032h68.032v68.032zm68.032-68.032" fill="#ff7575" stroke-width=".399"/><path d="M64.263 132.294V64.263h68.031v68.031zm68.031-68.031" fill="#ffa3a3" stroke-width=".399"/><path d="M64.263 64.263V-3.77h68.031v68.032zM132.294-3.77" fill="#ff7575" stroke-width=".399"/><path d="M64.263-3.769v-68.032h68.031v68.032zm68.031-68.032" fill="#ff4747" stroke-width=".399"/><path d="M-55.766 120.956a4.696 4.696 0 10-9.392 0 4.696 4.696 0 009.392 0zm-4.696 0" stroke-width=".399" fill="#fff"/><path d="M-55.766 98.279a4.696 4.696 0 10-9.392 0 4.696 4.696 0 009.392 0zm-4.696 0" stroke-width=".399" fill="#f0f0ff"/><path d="M-55.766 75.601a4.696 4.696 0 10-9.392 0 4.696 4.696 0 009.392 0zm-4.696 0" stroke-width=".399" fill="#e1e1ff"/><path d="M-55.766 52.924a4.696 4.696 0 10-9.392 0 4.696 4.696 0 009.392 0zm-4.696 0" stroke-width=".399" fill="#d1d1ff"/><path d="M-55.766 30.247a4.696 4.696 0 10-9.392 0 4.696 4.696 0 009.392 0zm-4.696 0" stroke-width=".399" fill="#c2c2ff"/><path d="M-55.766 7.57a4.696 4.696 0 10-9.392 0 4.696 4.696 0 009.392 0zm-4.696 0" stroke-width=".399" fill="#b3b3ff"/><path d="M-55.766-15.108a4.696 4.696 0 10-9.392 0 4.696 4.696 0 009.392 0zm-4.696 0" stroke-width=".399" fill="#a3a3ff"/><path d="M-55.766-37.785a4.696 4.696 0 10-9.392 0 4.696 4.696 0 009.392 0zm-4.696 0" stroke-width=".399" fill="#9494ff"/><path d="M-55.766-60.462a4.696 4.696 0 10-9.392 0 4.696 4.696 0 009.392 0zm-4.696 0" stroke-width=".399" fill="#8585ff"/><path d="M-33.089 120.956a4.696 4.696 0 10-9.392 0 4.696 4.696 0 009.392 0zm-4.696 0" stroke-width=".399" fill="#f0f0ff"/><path d="M-33.089 98.279a4.696 4.696 0 10-9.392 0 4.696 4.696 0 009.392 0zm-4.696 0" stroke-width=".399" fill="#e1e1ff"/><path d="M-33.089 75.601a4.696 4.696 0 10-9.392 0 4.696 4.696 0 009.392 0zm-4.696 0" stroke-width=".399" fill="#d1d1ff"/><path d="M-33.089 52.924a4.696 4.696 0 10-9.392 0 4.696 4.696 0 009.392 0zm-4.696 0" stroke-width=".399" fill="#c2c2ff"/><path d="M-33.089 30.247a4.696 4.696 0 10-9.392 0 4.696 4.696 0 009.392 0zm-4.696 0" stroke-width=".399" fill="#b3b3ff"/><path d="M-33.089 7.57a4.696 4.696 0 10-9.392 0 4.696 4.696 0 009.392 0zm-4.696 0" stroke-width=".399" fill="#a3a3ff"/><path d="M-33.089-15.108a4.696 4.696 0 10-9.392 0 4.696 4.696 0 009.392 0zm-4.696 0" stroke-width=".399" fill="#9494ff"/><path d="M-33.089-37.785a4.696 4.696 0 10-9.392 0 4.696 4.696 0 009.392 0zm-4.696 0" stroke-width=".399" fill="#8585ff"/><path d="M-33.089-60.462a4.696 4.696 0 10-9.392 0 4.696 4.696 0 009.392 0zm-4.696 0" stroke-width=".399" fill="#7575ff"/><path d="M-10.411 120.956a4.696 4.696 0 10-9.393 0 4.696 4.696 0 009.393 0zm-4.697 0" stroke-width=".399" fill="#e1e1ff"/><path d="M-10.411 98.279a4.696 4.696 0 10-9.393 0 4.696 4.696 0 009.393 0zm-4.697 0" stroke-width=".399" fill="#d1d1ff"/><path d="M-10.411 75.601a4.696 4.696 0 10-9.393 0 4.696 4.696 0 009.393 0zm-4.697 0" stroke-width=".399" fill="#c2c2ff"/><path d="M-10.411 52.924a4.696 4.696 0 10-9.393 0 4.696 4.696 0 009.393 0zm-4.697 0" stroke-width=".399" fill="#b3b3ff"/><path d="M-10.411 30.247a4.696 4.696 0 10-9.393 0 4.696 4.696 0 009.393 0zm-4.697 0" stroke-width=".399" fill="#a3a3ff"/><path d="M-10.411 7.57a4.696 4.696 0 10-9.393 0 4.696 4.696 0 009.393 0zm-4.697 0" stroke-width=".399" fill="#9494ff"/><path d="M-10.411-15.108a4.696 4.696 0 10-9.393 0 4.696 4.696 0 009.393 0zm-4.697 0" stroke-width=".399" fill="#8585ff"/><path d="M-10.411-37.785a4.696 4.696 0 10-9.393 0 4.696 4.696 0 009.393 0zm-4.697 0" stroke-width=".399" fill="#7575ff"/><path d="M-10.411-60.462a4.696 4.696 0 10-9.393 0 4.696 4.696 0 009.393 0zm-4.697 0" stroke-width=".399" fill="#66f"/><path d="M12.266 120.956a4.696 4.696 0 10-9.393 0 4.696 4.696 0 009.393 0zm-4.696 0" stroke-width=".399" fill="#d1d1ff"/><path d="M12.266 98.279a4.696 4.696 0 10-9.393 0 4.696 4.696 0 009.393 0zm-4.696 0" stroke-width=".399" fill="#c2c2ff"/><path d="M12.266 75.601a4.696 4.696 0 10-9.393 0 4.696 4.696 0 009.393 0zm-4.696 0" stroke-width=".399" fill="#b3b3ff"/><path d="M12.266 52.924a4.696 4.696 0 10-9.393 0 4.696 4.696 0 009.393 0zm-4.696 0" stroke-width=".399" fill="#a3a3ff"/><path d="M12.266 30.247a4.696 4.696 0 10-9.393 0 4.696 4.696 0 009.393 0zm-4.696 0" stroke-width=".399" fill="#9494ff"/><path d="M12.266 7.57a4.696 4.696 0 10-9.393 0 4.696 4.696 0 009.393 0zm-4.696 0" stroke-width=".399" fill="#8585ff"/><path d="M12.266-15.108a4.696 4.696 0 10-9.393 0 4.696 4.696 0 009.393 0zm-4.696 0" stroke-width=".399" fill="#7575ff"/><path d="M12.266-37.785a4.696 4.696 0 10-9.393 0 4.696 4.696 0 009.393 0zm-4.696 0" stroke-width=".399" fill="#66f"/><path d="M12.266-60.462a4.696 4.696 0 10-9.393 0 4.696 4.696 0 009.393 0zm-4.696 0" stroke-width=".399" fill="#5757ff"/><path d="M34.943 120.956a4.696 4.696 0 10-9.392 0 4.696 4.696 0 009.392 0zm-4.696 0" stroke-width=".399" fill="#c2c2ff"/><path d="M34.943 98.279a4.696 4.696 0 10-9.392 0 4.696 4.696 0 009.392 0zm-4.696 0" stroke-width=".399" fill="#b3b3ff"/><path d="M34.943 75.601a4.696 4.696 0 10-9.392 0 4.696 4.696 0 009.392 0zm-4.696 0" stroke-width=".399" fill="#a3a3ff"/><path d="M34.943 52.924a4.696 4.696 0 10-9.392 0 4.696 4.696 0 009.392 0zm-4.696 0" stroke-width=".399" fill="#9494ff"/><path d="M34.943 30.247a4.696 4.696 0 10-9.392 0 4.696 4.696 0 009.392 0zm-4.696 0" stroke-width=".399" fill="#8585ff"/><path d="M34.943 7.57a4.696 4.696 0 10-9.392 0 4.696 4.696 0 009.392 0zm-4.696 0" stroke-width=".399" fill="#7575ff"/><path d="M34.943-15.108a4.696 4.696 0 10-9.392 0 4.696 4.696 0 009.392 0zm-4.696 0" stroke-width=".399" fill="#66f"/><path d="M34.943-37.785a4.696 4.696 0 10-9.392 0 4.696 4.696 0 009.392 0zm-4.696 0" stroke-width=".399" fill="#5757ff"/><path d="M34.943-60.462a4.696 4.696 0 10-9.392 0 4.696 4.696 0 009.392 0zm-4.696 0" stroke-width=".399" fill="#4747ff"/><path d="M57.62 120.956a4.696 4.696 0 10-9.392 0 4.696 4.696 0 009.392 0zm-4.696 0" stroke-width=".399" fill="#b3b3ff"/><path d="M57.62 98.279a4.696 4.696 0 10-9.392 0 4.696 4.696 0 009.392 0zm-4.696 0" stroke-width=".399" fill="#a3a3ff"/><path d="M57.62 75.601a4.696 4.696 0 10-9.392 0 4.696 4.696 0 009.392 0zm-4.696 0" stroke-width=".399" fill="#9494ff"/><path d="M57.62 52.924a4.696 4.696 0 10-9.392 0 4.696 4.696 0 009.392 0zm-4.696 0" stroke-width=".399" fill="#8585ff"/><path d="M57.62 30.247a4.696 4.696 0 10-9.392 0 4.696 4.696 0 009.392 0zm-4.696 0" stroke-width=".399" fill="#7575ff"/><path d="M57.62 7.57a4.696 4.696 0 10-9.392 0 4.696 4.696 0 009.392 0zm-4.696 0" stroke-width=".399" fill="#66f"/><path d="M57.62-15.108a4.696 4.696 0 10-9.392 0 4.696 4.696 0 009.392 0zm-4.696 0" stroke-width=".399" fill="#5757ff"/><path d="M57.62-37.785a4.696 4.696 0 10-9.392 0 4.696 4.696 0 009.392 0zm-4.696 0" stroke-width=".399" fill="#4747ff"/><path d="M57.62-60.462a4.696 4.696 0 10-9.392 0 4.696 4.696 0 009.392 0zm-4.696 0" stroke-width=".399" fill="#3838ff"/><path d="M80.298 120.956a4.696 4.696 0 10-9.393 0 4.696 4.696 0 009.393 0zm-4.697 0" stroke-width=".399" fill="#a3a3ff"/><path d="M80.298 98.279a4.696 4.696 0 10-9.393 0 4.696 4.696 0 009.393 0zm-4.697 0" stroke-width=".399" fill="#9494ff"/><path d="M80.298 75.601a4.696 4.696 0 10-9.393 0 4.696 4.696 0 009.393 0zm-4.697 0" stroke-width=".399" fill="#8585ff"/><path d="M80.298 52.924a4.696 4.696 0 10-9.393 0 4.696 4.696 0 009.393 0zm-4.697 0" stroke-width=".399" fill="#7575ff"/><path d="M80.298 30.247a4.696 4.696 0 10-9.393 0 4.696 4.696 0 009.393 0zm-4.697 0" stroke-width=".399" fill="#66f"/><path d="M80.298 7.57a4.696 4.696 0 10-9.393 0 4.696 4.696 0 009.393 0zm-4.697 0" stroke-width=".399" fill="#5757ff"/><path d="M80.298-15.108a4.696 4.696 0 10-9.393 0 4.696 4.696 0 009.393 0zm-4.697 0" stroke-width=".399" fill="#4747ff"/><path d="M80.298-37.785a4.696 4.696 0 10-9.393 0 4.696 4.696 0 009.393 0zm-4.697 0" stroke-width=".399" fill="#3838ff"/><path d="M80.298-60.462a4.696 4.696 0 10-9.393 0 4.696 4.696 0 009.393 0zm-4.697 0" stroke-width=".399" fill="#2828ff"/><path d="M102.975 120.956a4.696 4.696 0 10-9.393 0 4.696 4.696 0 009.393 0zm-4.696 0" stroke-width=".399" fill="#9494ff"/><path d="M102.975 98.279a4.696 4.696 0 10-9.393 0 4.696 4.696 0 009.393 0zm-4.696 0" stroke-width=".399" fill="#8585ff"/><path d="M102.975 75.601a4.696 4.696 0 10-9.393 0 4.696 4.696 0 009.393 0zm-4.696 0" stroke-width=".399" fill="#7575ff"/><path d="M102.975 52.924a4.696 4.696 0 10-9.393 0 4.696 4.696 0 009.393 0zm-4.696 0" stroke-width=".399" fill="#66f"/><path d="M102.975 30.247a4.696 4.696 0 10-9.393 0 4.696 4.696 0 009.393 0zm-4.696 0" stroke-width=".399" fill="#5757ff"/><path d="M102.975 7.57a4.696 4.696 0 10-9.393 0 4.696 4.696 0 009.393 0zm-4.696 0" stroke-width=".399" fill="#4747ff"/><path d="M102.975-15.108a4.696 4.696 0 10-9.393 0 4.696 4.696 0 009.393 0zm-4.696 0" stroke-width=".399" fill="#3838ff"/><path d="M102.975-37.785a4.696 4.696 0 10-9.393 0 4.696 4.696 0 009.393 0zm-4.696 0" stroke-width=".399" fill="#2828ff"/><path d="M102.975-60.462a4.696 4.696 0 10-9.393 0 4.696 4.696 0 009.393 0zm-4.696 0" stroke-width=".399" fill="#1919ff"/><path d="M125.652 120.956a4.696 4.696 0 10-9.392 0 4.696 4.696 0 009.392 0zm-4.696 0" stroke-width=".399" fill="#8585ff"/><path d="M125.652 98.279a4.696 4.696 0 10-9.392 0 4.696 4.696 0 009.392 0zm-4.696 0" stroke-width=".399" fill="#7575ff"/><path d="M125.652 75.601a4.696 4.696 0 10-9.392 0 4.696 4.696 0 009.392 0zm-4.696 0" stroke-width=".399" fill="#66f"/><path d="M125.652 52.924a4.696 4.696 0 10-9.392 0 4.696 4.696 0 009.392 0zm-4.696 0" stroke-width=".399" fill="#5757ff"/><path d="M125.652 30.247a4.696 4.696 0 10-9.392 0 4.696 4.696 0 009.392 0zm-4.696 0" stroke-width=".399" fill="#4747ff"/><path d="M125.652 7.57a4.696 4.696 0 10-9.392 0 4.696 4.696 0 009.392 0zm-4.696 0" stroke-width=".399" fill="#3838ff"/><path d="M125.652-15.108a4.696 4.696 0 10-9.392 0 4.696 4.696 0 009.392 0zm-4.696 0" stroke-width=".399" fill="#2828ff"/><path d="M125.652-37.785a4.696 4.696 0 10-9.392 0 4.696 4.696 0 009.392 0zm-4.696 0" stroke-width=".399" fill="#1919ff"/><path d="M125.652-60.462a4.696 4.696 0 10-9.392 0 4.696 4.696 0 009.392 0zm-4.696 0" stroke-width=".399" fill="#0a0aff"/><g stroke-width=".8" fill="none"><path d="M-55.566 120.956h12.18" stroke-width=".797"/><path d="M-44.941 118.884c.13.777 1.554 1.942 1.943 2.072-.389.13-1.813 1.295-1.943 2.072" stroke-linejoin="round" stroke-linecap="round" stroke-width=".638"/></g><g stroke-width=".8" fill="none"><path d="M-60.462 116.06v-12.18" stroke-width=".797"/><path d="M-62.534 105.435c.777-.13 1.942-1.555 2.072-1.943.13.388 1.295 1.813 2.072 1.943" stroke-linejoin="round" stroke-linecap="round" stroke-width=".638"/></g><g stroke-width=".8" fill="none"><path d="M-55.566 98.277h12.18" stroke-width=".797"/><path d="M-44.94 96.205c.129.777 1.553 1.943 1.942 2.072-.389.13-1.813 1.295-1.943 2.072" stroke-linejoin="round" stroke-linecap="round" stroke-width=".638"/></g><g stroke-width=".8" fill="none"><path d="M-37.783 116.06v-12.18" stroke-width=".797"/><path d="M-39.856 105.435c.777-.13 1.943-1.555 2.072-1.943.13.388 1.296 1.813 2.073 1.942" stroke-linejoin="round" stroke-linecap="round" stroke-width=".638"/></g><g stroke-width=".8" fill="none"><path d="M-55.566 75.598h12.18" stroke-width=".797"/><path d="M-44.94 73.526c.129.777 1.553 1.943 1.942 2.073-.389.129-1.813 1.295-1.943 2.072" stroke-linejoin="round" stroke-linecap="round" stroke-width=".638"/></g><g stroke-width=".8" fill="none"><path d="M-15.105 116.06v-12.18" stroke-width=".797"/><path d="M-17.177 105.435c.777-.13 1.943-1.555 2.072-1.943.13.388 1.295 1.813 2.072 1.942" stroke-linejoin="round" stroke-linecap="round" stroke-width=".638"/></g><g stroke-width=".8" fill="none"><path d="M-55.566 52.92h12.18" stroke-width=".797"/><path d="M-44.94 50.848c.129.777 1.553 1.942 1.942 2.072-.389.13-1.813 1.295-1.943 2.072" stroke-linejoin="round" stroke-linecap="round" stroke-width=".638"/></g><g stroke-width=".8" fill="none"><path d="M7.574 116.06v-12.18" stroke-width=".797"/><path d="M5.502 105.435c.777-.13 1.942-1.555 2.072-1.943.13.388 1.295 1.813 2.072 1.942" stroke-linejoin="round" stroke-linecap="round" stroke-width=".638"/></g><g stroke-width=".8" fill="none"><path d="M-55.566 30.24l12.18.001" stroke-width=".797"/><path d="M-44.94 28.169c.129.777 1.553 1.943 1.942 2.072-.389.13-1.813 1.295-1.943 2.072" stroke-linejoin="round" stroke-linecap="round" stroke-width=".638"/></g><g stroke-width=".8" fill="none"><path d="M30.253 116.06v-12.18" stroke-width=".797"/><path d="M28.18 105.435c.777-.13 1.943-1.555 2.073-1.943.13.388 1.295 1.813 2.072 1.942" stroke-linejoin="round" stroke-linecap="round" stroke-width=".638"/></g><g stroke-width=".8" fill="none"><path d="M-55.566 7.562h12.18" stroke-width=".797"/><path d="M-44.94 5.49c.129.777 1.553 1.943 1.942 2.072-.389.13-1.813 1.295-1.943 2.073" stroke-linejoin="round" stroke-linecap="round" stroke-width=".638"/></g><g stroke-width=".8" fill="none"><path d="M52.932 116.06v-12.18" stroke-width=".797"/><path d="M50.86 105.435c.776-.13 1.942-1.555 2.071-1.943.13.388 1.295 1.813 2.073 1.942" stroke-linejoin="round" stroke-linecap="round" stroke-width=".638"/></g><g stroke-width=".8" fill="none"><path d="M-55.566-15.117h12.18" stroke-width=".797"/><path d="M-44.94-17.188c.129.777 1.553 1.942 1.942 2.072-.389.13-1.813 1.295-1.943 2.072" stroke-linejoin="round" stroke-linecap="round" stroke-width=".638"/></g><g stroke-width=".8" fill="none"><path d="M75.61 116.06v-12.18" stroke-width=".797"/><path d="M73.538 105.435c.777-.13 1.942-1.555 2.072-1.943.13.388 1.295 1.813 2.072 1.942" stroke-linejoin="round" stroke-linecap="round" stroke-width=".638"/></g><g stroke-width=".8" fill="none"><path d="M-55.566-37.796l12.18.001" stroke-width=".797"/><path d="M-44.94-39.867c.129.777 1.553 1.942 1.942 2.072-.389.13-1.813 1.295-1.943 2.072" stroke-linejoin="round" stroke-linecap="round" stroke-width=".638"/></g><g stroke-width=".8" fill="none"><path d="M98.29 116.06l-.001-12.18" stroke-width=".797"/><path d="M96.217 105.435c.777-.13 1.942-1.555 2.072-1.943.13.388 1.295 1.813 2.072 1.942" stroke-linejoin="round" stroke-linecap="round" stroke-width=".638"/></g><g stroke-width=".8" fill="none"><path d="M-55.566-60.475l12.18.001" stroke-width=".797"/><path d="M-44.94-62.546c.129.777 1.553 1.943 1.942 2.072-.389.13-1.813 1.295-1.943 2.072" stroke-linejoin="round" stroke-linecap="round" stroke-width=".638"/></g><g stroke-width=".8" fill="none"><path d="M120.969 116.06l-.002-12.18" stroke-width=".797"/><path d="M118.895 105.435c.777-.13 1.943-1.555 2.072-1.943.13.388 1.296 1.813 2.073 1.942" stroke-linejoin="round" stroke-linecap="round" stroke-width=".638"/></g><g stroke-width=".8" fill="none"><path d="M-32.888 120.956h12.18" stroke-width=".797"/><path d="M-22.263 118.884c.13.777 1.555 1.942 1.943 2.072-.388.13-1.813 1.295-1.943 2.072" stroke-linejoin="round" stroke-linecap="round" stroke-width=".638"/></g><g stroke-width=".8" fill="none"><path d="M-60.462 93.382v-12.18" stroke-width=".797"/><path d="M-62.534 82.756c.777-.13 1.942-1.554 2.072-1.942.13.388 1.295 1.813 2.072 1.942" stroke-linejoin="round" stroke-linecap="round" stroke-width=".638"/></g><g stroke-width=".8" fill="none"><path d="M-32.888 98.277h12.18" stroke-width=".797"/><path d="M-22.262 96.205c.129.777 1.554 1.943 1.942 2.072-.388.13-1.813 1.295-1.942 2.072" stroke-linejoin="round" stroke-linecap="round" stroke-width=".638"/></g><g stroke-width=".8" fill="none"><path d="M-37.783 93.382v-12.18" stroke-width=".797"/><path d="M-39.856 82.756c.777-.13 1.943-1.554 2.072-1.943.13.389 1.296 1.814 2.073 1.943" stroke-linejoin="round" stroke-linecap="round" stroke-width=".638"/></g><g stroke-width=".8" fill="none"><path d="M-32.888 75.598h12.18" stroke-width=".797"/><path d="M-22.262 73.526c.129.777 1.554 1.943 1.942 2.073-.388.129-1.813 1.295-1.942 2.072" stroke-linejoin="round" stroke-linecap="round" stroke-width=".638"/></g><g stroke-width=".8" fill="none"><path d="M-15.105 93.382v-12.18" stroke-width=".797"/><path d="M-17.177 82.756c.777-.13 1.943-1.554 2.072-1.943.13.389 1.295 1.814 2.072 1.943" stroke-linejoin="round" stroke-linecap="round" stroke-width=".638"/></g><g stroke-width=".8" fill="none"><path d="M-32.888 52.92h12.18" stroke-width=".797"/><path d="M-22.262 50.848c.129.777 1.554 1.942 1.942 2.072-.388.13-1.813 1.295-1.942 2.072" stroke-linejoin="round" stroke-linecap="round" stroke-width=".638"/></g><g stroke-width=".8" fill="none"><path d="M7.574 93.382v-12.18" stroke-width=".797"/><path d="M5.502 82.756c.777-.13 1.942-1.554 2.072-1.943.13.389 1.295 1.814 2.072 1.943" stroke-linejoin="round" stroke-linecap="round" stroke-width=".638"/></g><g stroke-width=".8" fill="none"><path d="M-32.888 30.24l12.18.001" stroke-width=".797"/><path d="M-22.262 28.169c.129.777 1.554 1.943 1.942 2.072-.388.13-1.813 1.295-1.942 2.072" stroke-linejoin="round" stroke-linecap="round" stroke-width=".638"/></g><g stroke-width=".8" fill="none"><path d="M30.253 93.382v-12.18" stroke-width=".797"/><path d="M28.18 82.756c.777-.13 1.943-1.554 2.073-1.943.13.389 1.295 1.814 2.072 1.943" stroke-linejoin="round" stroke-linecap="round" stroke-width=".638"/></g><g stroke-width=".8" fill="none"><path d="M-32.888 7.562h12.18" stroke-width=".797"/><path d="M-22.262 5.49c.129.777 1.554 1.943 1.942 2.072-.388.13-1.813 1.295-1.942 2.073" stroke-linejoin="round" stroke-linecap="round" stroke-width=".638"/></g><g stroke-width=".8" fill="none"><path d="M52.932 93.382v-12.18" stroke-width=".797"/><path d="M50.86 82.756c.776-.13 1.942-1.554 2.071-1.943.13.389 1.295 1.813 2.073 1.943" stroke-linejoin="round" stroke-linecap="round" stroke-width=".638"/></g><g stroke-width=".8" fill="none"><path d="M-32.888-15.117h12.18" stroke-width=".797"/><path d="M-22.262-17.188c.129.777 1.554 1.942 1.942 2.072-.388.13-1.813 1.295-1.942 2.072" stroke-linejoin="round" stroke-linecap="round" stroke-width=".638"/></g><g stroke-width=".8" fill="none"><path d="M75.61 93.382v-12.18" stroke-width=".797"/><path d="M73.538 82.756c.777-.13 1.942-1.554 2.072-1.943.13.389 1.295 1.813 2.072 1.943" stroke-linejoin="round" stroke-linecap="round" stroke-width=".638"/></g><g stroke-width=".8" fill="none"><path d="M-32.888-37.796l12.18.001" stroke-width=".797"/><path d="M-22.262-39.867c.129.777 1.554 1.942 1.942 2.072-.388.13-1.813 1.295-1.942 2.072" stroke-linejoin="round" stroke-linecap="round" stroke-width=".638"/></g><g stroke-width=".8" fill="none"><path d="M98.29 93.382l-.001-12.18" stroke-width=".797"/><path d="M96.217 82.756c.777-.13 1.942-1.554 2.072-1.943.13.389 1.295 1.813 2.072 1.943" stroke-linejoin="round" stroke-linecap="round" stroke-width=".638"/></g><g stroke-width=".8" fill="none"><path d="M-32.888-60.475l12.18.001" stroke-width=".797"/><path d="M-22.262-62.546c.13.777 1.554 1.943 1.942 2.072-.388.13-1.813 1.295-1.943 2.072" stroke-linejoin="round" stroke-linecap="round" stroke-width=".638"/></g><g stroke-width=".8" fill="none"><path d="M120.969 93.382l-.002-12.18" stroke-width=".797"/><path d="M118.895 82.756c.777-.13 1.943-1.554 2.072-1.943.13.389 1.296 1.813 2.073 1.943" stroke-linejoin="round" stroke-linecap="round" stroke-width=".638"/></g><g stroke-width=".8" fill="none"><path d="M-10.21 120.956H1.97" stroke-width=".797"/><path d="M.416 118.884c.13.777 1.554 1.942 1.943 2.072-.389.13-1.814 1.295-1.943 2.072" stroke-linejoin="round" stroke-linecap="round" stroke-width=".638"/></g><g stroke-width=".8" fill="none"><path d="M-60.462 70.703v-12.18" stroke-width=".797"/><path d="M-62.534 60.078c.777-.13 1.942-1.554 2.072-1.943.13.389 1.295 1.813 2.072 1.943" stroke-linejoin="round" stroke-linecap="round" stroke-width=".638"/></g><g stroke-width=".8" fill="none"><path d="M-10.21 98.277H1.97" stroke-width=".797"/><path d="M.416 96.205c.13.777 1.554 1.943 1.943 2.072-.389.13-1.814 1.295-1.943 2.072" stroke-linejoin="round" stroke-linecap="round" stroke-width=".638"/></g><g stroke-width=".8" fill="none"><path d="M-37.783 70.703v-12.18" stroke-width=".797"/><path d="M-39.856 60.078c.777-.13 1.943-1.554 2.072-1.943.13.389 1.296 1.813 2.073 1.943" stroke-linejoin="round" stroke-linecap="round" stroke-width=".638"/></g><g stroke-width=".8" fill="none"><path d="M-10.21 75.598H1.97" stroke-width=".797"/><path d="M.416 73.526c.13.777 1.554 1.943 1.943 2.073-.389.129-1.814 1.295-1.943 2.072" stroke-linejoin="round" stroke-linecap="round" stroke-width=".638"/></g><g stroke-width=".8" fill="none"><path d="M-15.105 70.703v-12.18" stroke-width=".797"/><path d="M-17.177 60.078c.777-.13 1.943-1.554 2.072-1.943.13.389 1.295 1.813 2.072 1.943" stroke-linejoin="round" stroke-linecap="round" stroke-width=".638"/></g><g stroke-width=".8" fill="none"><path d="M-10.21 52.92H1.97" stroke-width=".797"/><path d="M.416 50.848c.13.777 1.554 1.942 1.943 2.072-.389.13-1.814 1.295-1.943 2.072" stroke-linejoin="round" stroke-linecap="round" stroke-width=".638"/></g><g stroke-width=".8" fill="none"><path d="M7.574 70.703v-12.18" stroke-width=".797"/><path d="M5.502 60.078c.777-.13 1.942-1.554 2.072-1.943.13.389 1.295 1.813 2.072 1.943" stroke-linejoin="round" stroke-linecap="round" stroke-width=".638"/></g><g stroke-width=".8" fill="none"><path d="M-10.21 30.24l12.18.001" stroke-width=".797"/><path d="M.416 28.169c.13.777 1.554 1.943 1.943 2.072-.389.13-1.814 1.295-1.943 2.072" stroke-linejoin="round" stroke-linecap="round" stroke-width=".638"/></g><g stroke-width=".8" fill="none"><path d="M30.253 70.703v-12.18" stroke-width=".797"/><path d="M28.18 60.078c.777-.13 1.943-1.554 2.073-1.943.13.389 1.295 1.813 2.072 1.943" stroke-linejoin="round" stroke-linecap="round" stroke-width=".638"/></g><g stroke-width=".8" fill="none"><path d="M-10.21 7.562H1.97" stroke-width=".797"/><path d="M.416 5.49c.13.777 1.554 1.943 1.943 2.072C1.97 7.692.545 8.857.416 9.635" stroke-linejoin="round" stroke-linecap="round" stroke-width=".638"/></g><g stroke-width=".8" fill="none"><path d="M52.932 70.703v-12.18" stroke-width=".797"/><path d="M50.86 60.078c.776-.13 1.942-1.554 2.071-1.943.13.389 1.295 1.813 2.073 1.943" stroke-linejoin="round" stroke-linecap="round" stroke-width=".638"/></g><g stroke-width=".8" fill="none"><path d="M-10.21-15.117H1.97" stroke-width=".797"/><path d="M.416-17.188c.13.777 1.554 1.942 1.943 2.072-.389.13-1.814 1.295-1.943 2.072" stroke-linejoin="round" stroke-linecap="round" stroke-width=".638"/></g><g stroke-width=".8" fill="none"><path d="M75.61 70.703v-12.18" stroke-width=".797"/><path d="M73.538 60.078c.777-.13 1.942-1.554 2.072-1.943.13.389 1.295 1.813 2.072 1.943" stroke-linejoin="round" stroke-linecap="round" stroke-width=".638"/></g><g stroke-width=".8" fill="none"><path d="M-10.21-37.796l12.18.001" stroke-width=".797"/><path d="M.416-39.867c.13.777 1.554 1.942 1.943 2.072-.389.13-1.814 1.295-1.943 2.072" stroke-linejoin="round" stroke-linecap="round" stroke-width=".638"/></g><g stroke-width=".8" fill="none"><path d="M98.29 70.703l-.001-12.18" stroke-width=".797"/><path d="M96.217 60.078c.777-.13 1.942-1.554 2.072-1.943.13.389 1.295 1.813 2.072 1.943" stroke-linejoin="round" stroke-linecap="round" stroke-width=".638"/></g><g stroke-width=".8" fill="none"><path d="M-10.21-60.475l12.18.001" stroke-width=".797"/><path d="M.416-62.546c.13.777 1.554 1.943 1.943 2.072-.389.13-1.814 1.295-1.943 2.072" stroke-linejoin="round" stroke-linecap="round" stroke-width=".638"/></g><g stroke-width=".8" fill="none"><path d="M120.969 70.703l-.002-12.18" stroke-width=".797"/><path d="M118.895 60.078c.777-.13 1.943-1.554 2.072-1.943.13.389 1.296 1.813 2.073 1.942" stroke-linejoin="round" stroke-linecap="round" stroke-width=".638"/></g><g stroke-width=".8" fill="none"><path d="M12.469 120.956h12.18" stroke-width=".797"/><path d="M23.094 118.884c.13.777 1.554 1.942 1.943 2.072-.389.13-1.813 1.295-1.943 2.072" stroke-linejoin="round" stroke-linecap="round" stroke-width=".638"/></g><g stroke-width=".8" fill="none"><path d="M-60.462 48.025v-12.18" stroke-width=".797"/><path d="M-62.534 37.4c.777-.13 1.942-1.555 2.072-1.943.13.388 1.295 1.813 2.072 1.942" stroke-linejoin="round" stroke-linecap="round" stroke-width=".638"/></g><g stroke-width=".8" fill="none"><path d="M12.469 98.277h12.18" stroke-width=".797"/><path d="M23.094 96.205c.13.777 1.555 1.943 1.943 2.072-.388.13-1.813 1.295-1.943 2.072" stroke-linejoin="round" stroke-linecap="round" stroke-width=".638"/></g><g stroke-width=".8" fill="none"><path d="M-37.783 48.025v-12.18" stroke-width=".797"/><path d="M-39.856 37.4c.777-.13 1.943-1.555 2.072-1.943.13.388 1.296 1.813 2.073 1.942" stroke-linejoin="round" stroke-linecap="round" stroke-width=".638"/></g><g stroke-width=".8" fill="none"><path d="M12.469 75.598h12.18" stroke-width=".797"/><path d="M23.094 73.526c.13.777 1.555 1.943 1.943 2.073-.388.129-1.813 1.295-1.943 2.072" stroke-linejoin="round" stroke-linecap="round" stroke-width=".638"/></g><g stroke-width=".8" fill="none"><path d="M-15.105 48.025v-12.18" stroke-width=".797"/><path d="M-17.177 37.4c.777-.13 1.943-1.555 2.072-1.943.13.388 1.295 1.813 2.072 1.942" stroke-linejoin="round" stroke-linecap="round" stroke-width=".638"/></g><g stroke-width=".8" fill="none"><path d="M12.469 52.92h12.18" stroke-width=".797"/><path d="M23.094 50.848c.13.777 1.555 1.942 1.943 2.072-.388.13-1.813 1.295-1.943 2.072" stroke-linejoin="round" stroke-linecap="round" stroke-width=".638"/></g><g stroke-width=".8" fill="none"><path d="M7.574 48.025v-12.18" stroke-width=".797"/><path d="M5.502 37.4c.777-.13 1.942-1.555 2.072-1.943.13.388 1.295 1.813 2.072 1.942" stroke-linejoin="round" stroke-linecap="round" stroke-width=".638"/></g><g stroke-width=".8" fill="none"><path d="M12.469 30.24l12.18.001" stroke-width=".797"/><path d="M23.094 28.169c.13.777 1.555 1.943 1.943 2.072-.388.13-1.813 1.295-1.943 2.072" stroke-linejoin="round" stroke-linecap="round" stroke-width=".638"/></g><g stroke-width=".8" fill="none"><path d="M30.253 48.025v-12.18" stroke-width=".797"/><path d="M28.18 37.4c.777-.13 1.943-1.555 2.073-1.943.13.388 1.295 1.813 2.072 1.942" stroke-linejoin="round" stroke-linecap="round" stroke-width=".638"/></g><g stroke-width=".8" fill="none"><path d="M12.469 7.562h12.18" stroke-width=".797"/><path d="M23.094 5.49c.13.777 1.555 1.943 1.943 2.072-.388.13-1.813 1.295-1.943 2.073" stroke-linejoin="round" stroke-linecap="round" stroke-width=".638"/></g><g stroke-width=".8" fill="none"><path d="M52.932 48.025v-12.18" stroke-width=".797"/><path d="M50.86 37.4c.776-.13 1.942-1.555 2.071-1.943.13.388 1.295 1.813 2.073 1.942" stroke-linejoin="round" stroke-linecap="round" stroke-width=".638"/></g><g stroke-width=".8" fill="none"><path d="M12.469-15.117h12.18" stroke-width=".797"/><path d="M23.094-17.188c.13.777 1.555 1.942 1.943 2.072-.388.13-1.813 1.295-1.943 2.072" stroke-linejoin="round" stroke-linecap="round" stroke-width=".638"/></g><g stroke-width=".8" fill="none"><path d="M75.61 48.025v-12.18" stroke-width=".797"/><path d="M73.538 37.4c.777-.13 1.942-1.555 2.072-1.943.13.388 1.295 1.813 2.072 1.942" stroke-linejoin="round" stroke-linecap="round" stroke-width=".638"/></g><g stroke-width=".8" fill="none"><path d="M12.469-37.796l12.18.001" stroke-width=".797"/><path d="M23.094-39.867c.13.777 1.555 1.942 1.943 2.072-.388.13-1.813 1.295-1.943 2.072" stroke-linejoin="round" stroke-linecap="round" stroke-width=".638"/></g><g stroke-width=".8" fill="none"><path d="M98.29 48.025l-.001-12.18" stroke-width=".797"/><path d="M96.217 37.4c.777-.13 1.942-1.555 2.072-1.943.13.388 1.295 1.813 2.072 1.942" stroke-linejoin="round" stroke-linecap="round" stroke-width=".638"/></g><g stroke-width=".8" fill="none"><path d="M12.469-60.475l12.18.001" stroke-width=".797"/><path d="M23.095-62.546c.13.777 1.554 1.943 1.942 2.072-.388.13-1.813 1.295-1.943 2.072" stroke-linejoin="round" stroke-linecap="round" stroke-width=".638"/></g><g stroke-width=".8" fill="none"><path d="M120.969 48.025l-.002-12.18" stroke-width=".797"/><path d="M118.895 37.4c.777-.13 1.943-1.555 2.072-1.943.13.388 1.296 1.813 2.073 1.942" stroke-linejoin="round" stroke-linecap="round" stroke-width=".638"/></g><g stroke-width=".8" fill="none"><path d="M35.147 120.956h12.18" stroke-width=".797"/><path d="M45.773 118.884c.13.777 1.554 1.942 1.942 2.072-.388.13-1.813 1.295-1.942 2.072" stroke-linejoin="round" stroke-linecap="round" stroke-width=".638"/></g><g stroke-width=".8" fill="none"><path d="M-60.462 25.346v-12.18" stroke-width=".797"/><path d="M-62.534 14.72c.777-.129 1.942-1.553 2.072-1.942.13.389 1.295 1.813 2.072 1.943" stroke-linejoin="round" stroke-linecap="round" stroke-width=".638"/></g><g stroke-width=".8" fill="none"><path d="M35.147 98.277h12.18" stroke-width=".797"/><path d="M45.773 96.205c.13.777 1.554 1.943 1.943 2.072-.389.13-1.814 1.295-1.943 2.072" stroke-linejoin="round" stroke-linecap="round" stroke-width=".638"/></g><g stroke-width=".8" fill="none"><path d="M-37.783 25.346v-12.18" stroke-width=".797"/><path d="M-39.856 14.72c.777-.129 1.943-1.553 2.072-1.942.13.389 1.296 1.813 2.073 1.943" stroke-linejoin="round" stroke-linecap="round" stroke-width=".638"/></g><g stroke-width=".8" fill="none"><path d="M35.147 75.598h12.18" stroke-width=".797"/><path d="M45.773 73.526c.13.777 1.554 1.943 1.943 2.073-.389.129-1.814 1.295-1.943 2.072" stroke-linejoin="round" stroke-linecap="round" stroke-width=".638"/></g><g stroke-width=".8" fill="none"><path d="M-15.105 25.346v-12.18" stroke-width=".797"/><path d="M-17.177 14.72c.777-.129 1.943-1.553 2.072-1.942.13.389 1.295 1.813 2.072 1.943" stroke-linejoin="round" stroke-linecap="round" stroke-width=".638"/></g><g stroke-width=".8" fill="none"><path d="M35.147 52.92h12.18" stroke-width=".797"/><path d="M45.773 50.848c.13.777 1.554 1.942 1.943 2.072-.389.13-1.814 1.295-1.943 2.072" stroke-linejoin="round" stroke-linecap="round" stroke-width=".638"/></g><g stroke-width=".8" fill="none"><path d="M7.574 25.346v-12.18" stroke-width=".797"/><path d="M5.502 14.72c.777-.129 1.942-1.553 2.072-1.942.13.389 1.295 1.813 2.072 1.943" stroke-linejoin="round" stroke-linecap="round" stroke-width=".638"/></g><g stroke-width=".8" fill="none"><path d="M35.147 30.24l12.18.001" stroke-width=".797"/><path d="M45.773 28.169c.13.777 1.554 1.943 1.943 2.072-.389.13-1.814 1.295-1.943 2.072" stroke-linejoin="round" stroke-linecap="round" stroke-width=".638"/></g><g stroke-width=".8" fill="none"><path d="M30.253 25.346v-12.18" stroke-width=".797"/><path d="M28.18 14.72c.777-.129 1.943-1.553 2.073-1.942.13.389 1.295 1.813 2.072 1.943" stroke-linejoin="round" stroke-linecap="round" stroke-width=".638"/></g><g stroke-width=".8" fill="none"><path d="M35.147 7.562h12.18" stroke-width=".797"/><path d="M45.773 5.49c.13.777 1.554 1.943 1.943 2.072-.389.13-1.814 1.295-1.943 2.073" stroke-linejoin="round" stroke-linecap="round" stroke-width=".638"/></g><g stroke-width=".8" fill="none"><path d="M52.932 25.346v-12.18" stroke-width=".797"/><path d="M50.86 14.72c.776-.129 1.942-1.553 2.071-1.942.13.389 1.295 1.813 2.073 1.943" stroke-linejoin="round" stroke-linecap="round" stroke-width=".638"/></g><g stroke-width=".8" fill="none"><path d="M35.147-15.117h12.18" stroke-width=".797"/><path d="M45.773-17.188c.13.777 1.554 1.942 1.943 2.072-.389.13-1.814 1.295-1.943 2.072" stroke-linejoin="round" stroke-linecap="round" stroke-width=".638"/></g><g stroke-width=".8" fill="none"><path d="M75.61 25.346v-12.18" stroke-width=".797"/><path d="M73.538 14.72c.777-.129 1.942-1.553 2.072-1.942.13.389 1.295 1.813 2.072 1.943" stroke-linejoin="round" stroke-linecap="round" stroke-width=".638"/></g><g stroke-width=".8" fill="none"><path d="M35.147-37.796l12.18.001" stroke-width=".797"/><path d="M45.773-39.867c.13.777 1.554 1.942 1.943 2.072-.389.13-1.814 1.295-1.943 2.072" stroke-linejoin="round" stroke-linecap="round" stroke-width=".638"/></g><g stroke-width=".8" fill="none"><path d="M98.29 25.346l-.001-12.18" stroke-width=".797"/><path d="M96.217 14.72c.777-.129 1.942-1.553 2.072-1.942.13.389 1.295 1.813 2.072 1.943" stroke-linejoin="round" stroke-linecap="round" stroke-width=".638"/></g><g stroke-width=".8" fill="none"><path d="M35.147-60.475l12.18.001" stroke-width=".797"/><path d="M45.773-62.546c.13.777 1.554 1.943 1.943 2.072-.389.13-1.814 1.295-1.943 2.072" stroke-linejoin="round" stroke-linecap="round" stroke-width=".638"/></g><g stroke-width=".8" fill="none"><path d="M120.969 25.346l-.002-12.18" stroke-width=".797"/><path d="M118.895 14.72c.777-.129 1.943-1.553 2.072-1.942.13.389 1.296 1.813 2.073 1.943" stroke-linejoin="round" stroke-linecap="round" stroke-width=".638"/></g><g stroke-width=".8" fill="none"><path d="M57.826 120.956h12.18" stroke-width=".797"/><path d="M68.451 118.884c.13.777 1.554 1.942 1.943 2.072-.389.13-1.813 1.295-1.943 2.072" stroke-linejoin="round" stroke-linecap="round" stroke-width=".638"/></g><g stroke-width=".8" fill="none"><path d="M-60.462 2.668v-12.18" stroke-width=".797"/><path d="M-62.534-7.958c.777-.13 1.942-1.554 2.072-1.942.13.388 1.295 1.813 2.072 1.942" stroke-linejoin="round" stroke-linecap="round" stroke-width=".638"/></g><g stroke-width=".8" fill="none"><path d="M57.826 98.277h12.18" stroke-width=".797"/><path d="M68.451 96.205c.13.777 1.554 1.943 1.943 2.072-.389.13-1.813 1.295-1.943 2.072" stroke-linejoin="round" stroke-linecap="round" stroke-width=".638"/></g><g stroke-width=".8" fill="none"><path d="M-37.783 2.668v-12.18" stroke-width=".797"/><path d="M-39.856-7.958c.777-.13 1.943-1.554 2.072-1.942.13.388 1.296 1.813 2.073 1.942" stroke-linejoin="round" stroke-linecap="round" stroke-width=".638"/></g><g stroke-width=".8" fill="none"><path d="M57.826 75.598h12.18" stroke-width=".797"/><path d="M68.451 73.526c.13.777 1.554 1.943 1.943 2.073-.389.129-1.813 1.295-1.943 2.072" stroke-linejoin="round" stroke-linecap="round" stroke-width=".638"/></g><g stroke-width=".8" fill="none"><path d="M-15.105 2.668v-12.18" stroke-width=".797"/><path d="M-17.177-7.958c.777-.13 1.943-1.554 2.072-1.942.13.388 1.295 1.813 2.072 1.942" stroke-linejoin="round" stroke-linecap="round" stroke-width=".638"/></g><g stroke-width=".8" fill="none"><path d="M57.826 52.92h12.18" stroke-width=".797"/><path d="M68.451 50.848c.13.777 1.554 1.942 1.943 2.072-.389.13-1.813 1.295-1.943 2.072" stroke-linejoin="round" stroke-linecap="round" stroke-width=".638"/></g><g stroke-width=".8" fill="none"><path d="M7.574 2.668v-12.18" stroke-width=".797"/><path d="M5.502-7.958c.777-.13 1.942-1.554 2.072-1.942.13.388 1.295 1.813 2.072 1.942" stroke-linejoin="round" stroke-linecap="round" stroke-width=".638"/></g><g stroke-width=".8" fill="none"><path d="M57.826 30.24l12.18.001" stroke-width=".797"/><path d="M68.451 28.169c.13.777 1.554 1.943 1.943 2.072-.389.13-1.813 1.295-1.943 2.072" stroke-linejoin="round" stroke-linecap="round" stroke-width=".638"/></g><g stroke-width=".8" fill="none"><path d="M30.253 2.668v-12.18" stroke-width=".797"/><path d="M28.18-7.958c.777-.13 1.943-1.554 2.073-1.942.13.388 1.295 1.813 2.072 1.942" stroke-linejoin="round" stroke-linecap="round" stroke-width=".638"/></g><g stroke-width=".8" fill="none"><path d="M57.826 7.562h12.18" stroke-width=".797"/><path d="M68.451 5.49c.13.777 1.554 1.943 1.943 2.072-.389.13-1.813 1.295-1.943 2.073" stroke-linejoin="round" stroke-linecap="round" stroke-width=".638"/></g><g stroke-width=".8" fill="none"><path d="M52.932 2.668v-12.18" stroke-width=".797"/><path d="M50.86-7.958c.776-.13 1.942-1.554 2.071-1.942.13.388 1.295 1.813 2.073 1.942" stroke-linejoin="round" stroke-linecap="round" stroke-width=".638"/></g><g stroke-width=".8" fill="none"><path d="M57.826-15.117h12.18" stroke-width=".797"/><path d="M68.451-17.188c.13.777 1.554 1.942 1.943 2.072-.389.13-1.813 1.295-1.943 2.072" stroke-linejoin="round" stroke-linecap="round" stroke-width=".638"/></g><g stroke-width=".8" fill="none"><path d="M75.61 2.668v-12.18" stroke-width=".797"/><path d="M73.538-7.958c.777-.13 1.942-1.554 2.072-1.942.13.388 1.295 1.813 2.072 1.942" stroke-linejoin="round" stroke-linecap="round" stroke-width=".638"/></g><g stroke-width=".8" fill="none"><path d="M57.826-37.796l12.18.001" stroke-width=".797"/><path d="M68.451-39.867c.13.777 1.554 1.942 1.943 2.072-.389.13-1.813 1.295-1.943 2.072" stroke-linejoin="round" stroke-linecap="round" stroke-width=".638"/></g><g stroke-width=".8" fill="none"><path d="M98.29 2.668l-.001-12.18" stroke-width=".797"/><path d="M96.217-7.958c.777-.13 1.942-1.554 2.072-1.942.13.388 1.295 1.813 2.072 1.942" stroke-linejoin="round" stroke-linecap="round" stroke-width=".638"/></g><g stroke-width=".8" fill="none"><path d="M57.826-60.475l12.18.001" stroke-width=".797"/><path d="M68.451-62.546c.13.777 1.554 1.943 1.943 2.072-.389.13-1.813 1.295-1.943 2.072" stroke-linejoin="round" stroke-linecap="round" stroke-width=".638"/></g><g stroke-width=".8" fill="none"><path d="M120.969 2.668l-.002-12.18" stroke-width=".797"/><path d="M118.895-7.957c.777-.13 1.943-1.555 2.072-1.943.13.388 1.296 1.813 2.073 1.942" stroke-linejoin="round" stroke-linecap="round" stroke-width=".638"/></g><g stroke-width=".8" fill="none"><path d="M80.504 120.956h12.18" stroke-width=".797"/><path d="M91.13 118.884c.13.777 1.554 1.942 1.942 2.072-.388.13-1.813 1.295-1.942 2.072" stroke-linejoin="round" stroke-linecap="round" stroke-width=".638"/></g><g stroke-width=".8" fill="none"><path d="M-60.462-20.01v-12.18" stroke-width=".797"/><path d="M-62.534-30.636c.777-.13 1.942-1.554 2.072-1.943.13.389 1.295 1.814 2.072 1.943" stroke-linejoin="round" stroke-linecap="round" stroke-width=".638"/></g><g stroke-width=".8" fill="none"><path d="M80.504 98.277h12.18" stroke-width=".797"/><path d="M91.13 96.205c.13.777 1.554 1.943 1.942 2.072-.388.13-1.813 1.295-1.942 2.072" stroke-linejoin="round" stroke-linecap="round" stroke-width=".638"/></g><g stroke-width=".8" fill="none"><path d="M-37.783-20.01v-12.18" stroke-width=".797"/><path d="M-39.856-30.636c.777-.13 1.943-1.554 2.072-1.943.13.389 1.296 1.813 2.073 1.943" stroke-linejoin="round" stroke-linecap="round" stroke-width=".638"/></g><g stroke-width=".8" fill="none"><path d="M80.504 75.598h12.18" stroke-width=".797"/><path d="M91.13 73.526c.13.777 1.554 1.943 1.942 2.073-.388.129-1.813 1.295-1.942 2.072" stroke-linejoin="round" stroke-linecap="round" stroke-width=".638"/></g><g stroke-width=".8" fill="none"><path d="M-15.105-20.01v-12.18" stroke-width=".797"/><path d="M-17.177-30.636c.777-.13 1.943-1.554 2.072-1.943.13.389 1.295 1.813 2.072 1.943" stroke-linejoin="round" stroke-linecap="round" stroke-width=".638"/></g><g stroke-width=".8" fill="none"><path d="M80.504 52.92h12.18" stroke-width=".797"/><path d="M91.13 50.848c.13.777 1.554 1.942 1.942 2.072-.388.13-1.813 1.295-1.942 2.072" stroke-linejoin="round" stroke-linecap="round" stroke-width=".638"/></g><g stroke-width=".8" fill="none"><path d="M7.574-20.01v-12.18" stroke-width=".797"/><path d="M5.502-30.636c.777-.13 1.942-1.554 2.072-1.943.13.389 1.295 1.813 2.072 1.943" stroke-linejoin="round" stroke-linecap="round" stroke-width=".638"/></g><g stroke-width=".8" fill="none"><path d="M80.504 30.24l12.18.001" stroke-width=".797"/><path d="M91.13 28.169c.13.777 1.554 1.943 1.942 2.072-.388.13-1.813 1.295-1.942 2.072" stroke-linejoin="round" stroke-linecap="round" stroke-width=".638"/></g><g stroke-width=".8" fill="none"><path d="M30.253-20.01v-12.18" stroke-width=".797"/><path d="M28.18-30.636c.777-.13 1.943-1.554 2.073-1.943.13.389 1.295 1.813 2.072 1.943" stroke-linejoin="round" stroke-linecap="round" stroke-width=".638"/></g><g stroke-width=".8" fill="none"><path d="M80.504 7.562h12.18" stroke-width=".797"/><path d="M91.13 5.49c.13.777 1.554 1.943 1.942 2.072-.388.13-1.813 1.295-1.942 2.073" stroke-linejoin="round" stroke-linecap="round" stroke-width=".638"/></g><g stroke-width=".8" fill="none"><path d="M52.932-20.01v-12.18" stroke-width=".797"/><path d="M50.86-30.636c.776-.13 1.942-1.554 2.071-1.943.13.389 1.295 1.813 2.073 1.943" stroke-linejoin="round" stroke-linecap="round" stroke-width=".638"/></g><g stroke-width=".8" fill="none"><path d="M80.504-15.117h12.18" stroke-width=".797"/><path d="M91.13-17.188c.13.777 1.554 1.942 1.942 2.072-.388.13-1.813 1.295-1.942 2.072" stroke-linejoin="round" stroke-linecap="round" stroke-width=".638"/></g><g stroke-width=".8" fill="none"><path d="M75.61-20.01v-12.18" stroke-width=".797"/><path d="M73.538-30.636c.777-.13 1.942-1.554 2.072-1.943.13.389 1.295 1.813 2.072 1.943" stroke-linejoin="round" stroke-linecap="round" stroke-width=".638"/></g><g stroke-width=".8" fill="none"><path d="M80.504-37.796l12.18.001" stroke-width=".797"/><path d="M91.13-39.867c.13.777 1.554 1.942 1.942 2.072-.388.13-1.813 1.295-1.942 2.072" stroke-linejoin="round" stroke-linecap="round" stroke-width=".638"/></g><g stroke-width=".8" fill="none"><path d="M98.29-20.01l-.001-12.18" stroke-width=".797"/><path d="M96.217-30.636c.777-.13 1.942-1.554 2.072-1.943.13.389 1.295 1.813 2.072 1.943" stroke-linejoin="round" stroke-linecap="round" stroke-width=".638"/></g><g stroke-width=".8" fill="none"><path d="M80.504-60.475l12.18.001" stroke-width=".797"/><path d="M91.13-62.546c.13.777 1.554 1.943 1.942 2.072-.388.13-1.813 1.295-1.942 2.072" stroke-linejoin="round" stroke-linecap="round" stroke-width=".638"/></g><g stroke-width=".8" fill="none"><path d="M120.969-20.01l-.002-12.18" stroke-width=".797"/><path d="M118.895-30.636c.777-.13 1.943-1.554 2.072-1.943.13.389 1.296 1.813 2.073 1.943" stroke-linejoin="round" stroke-linecap="round" stroke-width=".638"/></g><g stroke-width=".8" fill="none"><path d="M103.183 120.956h12.18" stroke-width=".797"/><path d="M113.808 118.884c.13.777 1.554 1.942 1.943 2.072-.389.13-1.813 1.295-1.943 2.072" stroke-linejoin="round" stroke-linecap="round" stroke-width=".638"/></g><g stroke-width=".8" fill="none"><path d="M-60.462-42.689v-12.18" stroke-width=".797"/><path d="M-62.534-53.314c.777-.13 1.942-1.555 2.072-1.943.13.388 1.295 1.813 2.072 1.943" stroke-linejoin="round" stroke-linecap="round" stroke-width=".638"/></g><g stroke-width=".8" fill="none"><path d="M103.183 98.277h12.18" stroke-width=".797"/><path d="M113.808 96.205c.13.777 1.554 1.943 1.943 2.072-.389.13-1.813 1.295-1.943 2.072" stroke-linejoin="round" stroke-linecap="round" stroke-width=".638"/></g><g stroke-width=".8" fill="none"><path d="M-37.783-42.689v-12.18" stroke-width=".797"/><path d="M-39.856-53.314c.777-.13 1.943-1.555 2.072-1.943.13.388 1.296 1.813 2.073 1.942" stroke-linejoin="round" stroke-linecap="round" stroke-width=".638"/></g><g stroke-width=".8" fill="none"><path d="M103.183 75.598h12.18" stroke-width=".797"/><path d="M113.808 73.526c.13.777 1.554 1.943 1.943 2.073-.389.129-1.813 1.295-1.943 2.072" stroke-linejoin="round" stroke-linecap="round" stroke-width=".638"/></g><g stroke-width=".8" fill="none"><path d="M-15.105-42.689v-12.18" stroke-width=".797"/><path d="M-17.177-53.314c.777-.13 1.943-1.555 2.072-1.943.13.388 1.295 1.813 2.072 1.942" stroke-linejoin="round" stroke-linecap="round" stroke-width=".638"/></g><g stroke-width=".8" fill="none"><path d="M103.183 52.92h12.18" stroke-width=".797"/><path d="M113.808 50.848c.13.777 1.554 1.942 1.943 2.072-.389.13-1.813 1.295-1.943 2.072" stroke-linejoin="round" stroke-linecap="round" stroke-width=".638"/></g><g stroke-width=".8" fill="none"><path d="M7.574-42.689v-12.18" stroke-width=".797"/><path d="M5.502-53.314c.777-.13 1.942-1.555 2.072-1.943.13.388 1.295 1.813 2.072 1.942" stroke-linejoin="round" stroke-linecap="round" stroke-width=".638"/></g><g stroke-width=".8" fill="none"><path d="M103.183 30.24l12.18.001" stroke-width=".797"/><path d="M113.808 28.169c.13.777 1.554 1.943 1.943 2.072-.389.13-1.813 1.295-1.943 2.072" stroke-linejoin="round" stroke-linecap="round" stroke-width=".638"/></g><g stroke-width=".8" fill="none"><path d="M30.253-42.689v-12.18" stroke-width=".797"/><path d="M28.18-53.314c.777-.13 1.943-1.555 2.073-1.943.13.388 1.295 1.813 2.072 1.942" stroke-linejoin="round" stroke-linecap="round" stroke-width=".638"/></g><g stroke-width=".8" fill="none"><path d="M103.183 7.562h12.18" stroke-width=".797"/><path d="M113.808 5.49c.13.777 1.554 1.943 1.943 2.072-.389.13-1.813 1.295-1.943 2.073" stroke-linejoin="round" stroke-linecap="round" stroke-width=".638"/></g><g stroke-width=".8" fill="none"><path d="M52.932-42.689v-12.18" stroke-width=".797"/><path d="M50.86-53.314c.776-.13 1.942-1.555 2.071-1.943.13.388 1.295 1.813 2.073 1.942" stroke-linejoin="round" stroke-linecap="round" stroke-width=".638"/></g><g stroke-width=".8" fill="none"><path d="M103.183-15.117h12.18" stroke-width=".797"/><path d="M113.808-17.188c.13.777 1.554 1.942 1.943 2.072-.389.13-1.813 1.295-1.943 2.072" stroke-linejoin="round" stroke-linecap="round" stroke-width=".638"/></g><g stroke-width=".8" fill="none"><path d="M75.61-42.689v-12.18" stroke-width=".797"/><path d="M73.538-53.314c.777-.13 1.942-1.555 2.072-1.943.13.388 1.295 1.813 2.072 1.942" stroke-linejoin="round" stroke-linecap="round" stroke-width=".638"/></g><g stroke-width=".8" fill="none"><path d="M103.183-37.796l12.18.001" stroke-width=".797"/><path d="M113.808-39.867c.13.777 1.554 1.942 1.943 2.072-.389.13-1.813 1.295-1.943 2.072" stroke-linejoin="round" stroke-linecap="round" stroke-width=".638"/></g><g stroke-width=".8" fill="none"><path d="M98.29-42.689l-.001-12.18" stroke-width=".797"/><path d="M96.217-53.314c.777-.13 1.942-1.555 2.072-1.943.13.388 1.295 1.813 2.072 1.942" stroke-linejoin="round" stroke-linecap="round" stroke-width=".638"/></g><g stroke-width=".8" fill="none"><path d="M103.183-60.475l12.18.001" stroke-width=".797"/><path d="M113.808-62.546c.13.777 1.554 1.943 1.943 2.072-.389.13-1.813 1.295-1.943 2.072" stroke-linejoin="round" stroke-linecap="round" stroke-width=".638"/></g><g stroke-width=".8" fill="none"><path d="M120.969-42.689l-.002-12.18" stroke-width=".797"/><path d="M118.895-53.314c.777-.13 1.943-1.555 2.072-1.943.13.388 1.296 1.813 2.073 1.942" stroke-linejoin="round" stroke-linecap="round" stroke-width=".638"/></g><g stroke-width=".8" fill="none"><path d="M-57 117.494l15.254-15.255" stroke-width=".797"/><path d="M-44.31 101.873c.641.458 2.473.275 2.839.092-.183.366-.366 2.198.092 2.839" stroke-linejoin="round" stroke-linecap="round" stroke-width=".638"/></g><g stroke-width=".8" fill="none"><path d="M-57 94.815l15.254-15.254" stroke-width=".797"/><path d="M-44.31 79.194c.641.458 2.473.275 2.839.092-.183.366-.366 2.198.091 2.839" stroke-linejoin="round" stroke-linecap="round" stroke-width=".638"/></g><g stroke-width=".8" fill="none"><path d="M-57 72.137l15.254-15.255" stroke-width=".797"/><path d="M-44.31 56.516c.641.458 2.473.275 2.839.092-.183.366-.366 2.197.091 2.838" stroke-linejoin="round" stroke-linecap="round" stroke-width=".638"/></g><g stroke-width=".8" fill="none"><path d="M-57 49.458l15.254-15.254" stroke-width=".797"/><path d="M-44.31 33.837c.64.458 2.472.275 2.839.092-.183.366-.367 2.198.091 2.839" stroke-linejoin="round" stroke-linecap="round" stroke-width=".638"/></g><g stroke-width=".8" fill="none"><path d="M-57 26.78l15.254-15.255" stroke-width=".797"/><path d="M-44.31 11.159c.64.458 2.472.275 2.839.091-.183.367-.367 2.198.091 2.84" stroke-linejoin="round" stroke-linecap="round" stroke-width=".638"/></g><g stroke-width=".8" fill="none"><path d="M-57.001 4.101l15.255-15.254" stroke-width=".797"/><path d="M-44.31-11.52c.64.458 2.472.275 2.839.092-.184.366-.367 2.198.091 2.839" stroke-linejoin="round" stroke-linecap="round" stroke-width=".638"/></g><g stroke-width=".8" fill="none"><path d="M-57.001-18.577l15.255-15.255" stroke-width=".797"/><path d="M-44.31-34.198c.64.458 2.472.275 2.838.091-.183.367-.366 2.198.092 2.84" stroke-linejoin="round" stroke-linecap="round" stroke-width=".638"/></g><g stroke-width=".8" fill="none"><path d="M-57.001-41.256l15.255-15.254" stroke-width=".797"/><path d="M-44.31-56.877c.64.458 2.472.275 2.838.092-.183.366-.366 2.198.092 2.839" stroke-linejoin="round" stroke-linecap="round" stroke-width=".638"/></g><g stroke-width=".8" fill="none"><path d="M-34.322 117.494l15.255-15.255" stroke-width=".797"/><path d="M-21.631 101.873c.64.458 2.472.275 2.839.092-.184.366-.367 2.198.091 2.839" stroke-linejoin="round" stroke-linecap="round" stroke-width=".638"/></g><g stroke-width=".8" fill="none"><path d="M-34.322 94.816l15.255-15.255" stroke-width=".797"/><path d="M-21.631 79.195c.64.458 2.472.274 2.838.091-.183.367-.366 2.198.092 2.84" stroke-linejoin="round" stroke-linecap="round" stroke-width=".638"/></g><g stroke-width=".8" fill="none"><path d="M-34.322 72.137l15.255-15.255" stroke-width=".797"/><path d="M-21.632 56.516c.642.458 2.473.275 2.84.092-.184.366-.367 2.197.09 2.839" stroke-linejoin="round" stroke-linecap="round" stroke-width=".638"/></g><g stroke-width=".8" fill="none"><path d="M-34.322 49.459l15.255-15.255" stroke-width=".797"/><path d="M-21.632 33.838c.641.457 2.473.274 2.84.091-.184.366-.367 2.198.09 2.839" stroke-linejoin="round" stroke-linecap="round" stroke-width=".638"/></g><g stroke-width=".8" fill="none"><path d="M-34.322 26.78l15.255-15.255" stroke-width=".797"/><path d="M-21.632 11.159c.641.458 2.473.275 2.84.092-.184.366-.367 2.197.09 2.838" stroke-linejoin="round" stroke-linecap="round" stroke-width=".638"/></g><g stroke-width=".8" fill="none"><path d="M-34.322 4.101l15.254-15.254" stroke-width=".797"/><path d="M-21.632-11.52c.641.458 2.473.275 2.84.092-.184.366-.367 2.198.09 2.839" stroke-linejoin="round" stroke-linecap="round" stroke-width=".638"/></g><g stroke-width=".8" fill="none"><path d="M-34.323-18.577l15.255-15.255" stroke-width=".797"/><path d="M-21.632-34.198c.641.458 2.473.275 2.84.091-.184.367-.367 2.198.09 2.84" stroke-linejoin="round" stroke-linecap="round" stroke-width=".638"/></g><g stroke-width=".8" fill="none"><path d="M-34.323-41.256l15.255-15.254" stroke-width=".797"/><path d="M-21.632-56.877c.641.458 2.473.275 2.839.092-.183.366-.366 2.198.091 2.839" stroke-linejoin="round" stroke-linecap="round" stroke-width=".638"/></g><g stroke-width=".8" fill="none"><path d="M-11.643 117.494L3.61 102.24" stroke-width=".797"/><path d="M1.047 101.873c.641.458 2.473.275 2.84.092-.184.366-.367 2.198.09 2.839" stroke-linejoin="round" stroke-linecap="round" stroke-width=".638"/></g><g stroke-width=".8" fill="none"><path d="M-11.643 94.816L3.61 79.56" stroke-width=".797"/><path d="M1.047 79.195c.641.458 2.473.274 2.839.091-.183.367-.366 2.198.092 2.84" stroke-linejoin="round" stroke-linecap="round" stroke-width=".638"/></g><g stroke-width=".8" fill="none"><path d="M-11.643 72.137L3.61 56.882" stroke-width=".797"/><path d="M1.047 56.516c.641.458 2.473.275 2.839.092-.183.366-.366 2.198.091 2.839" stroke-linejoin="round" stroke-linecap="round" stroke-width=".638"/></g><g stroke-width=".8" fill="none"><path d="M-11.644 49.459L3.611 34.204" stroke-width=".797"/><path d="M1.047 33.838c.641.457 2.472.274 2.839.091-.183.366-.367 2.198.091 2.84" stroke-linejoin="round" stroke-linecap="round" stroke-width=".638"/></g><g stroke-width=".8" fill="none"><path d="M-11.644 26.78L3.611 11.525" stroke-width=".797"/><path d="M1.047 11.16c.64.457 2.472.274 2.839.09-.183.367-.367 2.199.091 2.84" stroke-linejoin="round" stroke-linecap="round" stroke-width=".638"/></g><g stroke-width=".8" fill="none"><path d="M-11.644 4.101L3.611-11.153" stroke-width=".797"/><path d="M1.047-11.52c.64.458 2.472.275 2.839.092-.183.366-.367 2.198.091 2.839" stroke-linejoin="round" stroke-linecap="round" stroke-width=".638"/></g><g stroke-width=".8" fill="none"><path d="M-11.644-18.577L3.61-33.832" stroke-width=".797"/><path d="M1.047-34.198c.64.458 2.472.275 2.839.092-.184.366-.367 2.197.091 2.838" stroke-linejoin="round" stroke-linecap="round" stroke-width=".638"/></g><g stroke-width=".8" fill="none"><path d="M-11.644-41.256L3.61-56.51" stroke-width=".797"/><path d="M1.047-56.877c.64.458 2.472.275 2.839.092-.184.366-.367 2.198.091 2.839" stroke-linejoin="round" stroke-linecap="round" stroke-width=".638"/></g><g stroke-width=".8" fill="none"><path d="M11.035 117.494L26.29 102.24" stroke-width=".797"/><path d="M23.726 101.873c.64.458 2.472.275 2.839.092-.183.366-.367 2.198.091 2.839" stroke-linejoin="round" stroke-linecap="round" stroke-width=".638"/></g><g stroke-width=".8" fill="none"><path d="M11.035 94.816L26.29 79.56" stroke-width=".797"/><path d="M23.726 79.195c.64.458 2.472.275 2.839.091-.184.367-.367 2.198.091 2.84" stroke-linejoin="round" stroke-linecap="round" stroke-width=".638"/></g><g stroke-width=".8" fill="none"><path d="M11.035 72.137L26.29 56.883" stroke-width=".797"/><path d="M23.726 56.516c.64.458 2.472.275 2.838.092-.183.366-.366 2.198.092 2.839" stroke-linejoin="round" stroke-linecap="round" stroke-width=".638"/></g><g stroke-width=".8" fill="none"><path d="M11.035 49.459L26.29 34.204" stroke-width=".797"/><path d="M23.725 33.838c.641.458 2.473.275 2.84.091-.184.367-.367 2.198.09 2.84" stroke-linejoin="round" stroke-linecap="round" stroke-width=".638"/></g><g stroke-width=".8" fill="none"><path d="M11.035 26.78L26.29 11.525" stroke-width=".797"/><path d="M23.725 11.16c.641.457 2.473.274 2.84.09-.184.367-.367 2.199.09 2.84" stroke-linejoin="round" stroke-linecap="round" stroke-width=".638"/></g><g stroke-width=".8" fill="none"><path d="M11.035 4.102L26.29-11.153" stroke-width=".797"/><path d="M23.725-11.52c.641.459 2.473.275 2.84.092-.184.367-.367 2.198.09 2.84" stroke-linejoin="round" stroke-linecap="round" stroke-width=".638"/></g><g stroke-width=".8" fill="none"><path d="M11.035-18.577l15.254-15.255" stroke-width=".797"/><path d="M23.725-34.198c.641.458 2.473.275 2.84.092-.184.366-.367 2.197.09 2.839" stroke-linejoin="round" stroke-linecap="round" stroke-width=".638"/></g><g stroke-width=".8" fill="none"><path d="M11.034-41.256L26.29-56.51" stroke-width=".797"/><path d="M23.725-56.876c.641.457 2.473.274 2.839.091-.183.366-.366 2.198.092 2.839" stroke-linejoin="round" stroke-linecap="round" stroke-width=".638"/></g><g stroke-width=".8" fill="none"><path d="M33.714 117.495l15.254-15.255" stroke-width=".797"/><path d="M46.404 101.873c.641.458 2.473.275 2.84.092-.184.366-.367 2.198.09 2.839" stroke-linejoin="round" stroke-linecap="round" stroke-width=".638"/></g><g stroke-width=".8" fill="none"><path d="M33.714 94.816l15.254-15.255" stroke-width=".797"/><path d="M46.404 79.195c.641.458 2.473.275 2.84.091-.184.367-.367 2.198.09 2.84" stroke-linejoin="round" stroke-linecap="round" stroke-width=".638"/></g><g stroke-width=".8" fill="none"><path d="M33.714 72.137l15.254-15.254" stroke-width=".797"/><path d="M46.404 56.516c.641.458 2.473.275 2.839.092-.183.366-.366 2.198.092 2.839" stroke-linejoin="round" stroke-linecap="round" stroke-width=".638"/></g><g stroke-width=".8" fill="none"><path d="M33.713 49.459l15.255-15.255" stroke-width=".797"/><path d="M46.404 33.838c.641.458 2.473.275 2.839.091-.183.367-.366 2.198.092 2.84" stroke-linejoin="round" stroke-linecap="round" stroke-width=".638"/></g><g stroke-width=".8" fill="none"><path d="M33.713 26.78l15.255-15.254" stroke-width=".797"/><path d="M46.404 11.16c.64.457 2.472.274 2.839.09-.183.367-.367 2.199.091 2.84" stroke-linejoin="round" stroke-linecap="round" stroke-width=".638"/></g><g stroke-width=".8" fill="none"><path d="M33.713 4.102l15.255-15.255" stroke-width=".797"/><path d="M46.404-11.52c.64.459 2.472.275 2.839.092-.183.367-.367 2.198.091 2.84" stroke-linejoin="round" stroke-linecap="round" stroke-width=".638"/></g><g stroke-width=".8" fill="none"><path d="M33.713-18.577L48.968-33.83" stroke-width=".797"/><path d="M46.404-34.198c.64.458 2.472.275 2.839.092-.184.366-.367 2.198.091 2.839" stroke-linejoin="round" stroke-linecap="round" stroke-width=".638"/></g><g stroke-width=".8" fill="none"><path d="M33.713-41.255L48.968-56.51" stroke-width=".797"/><path d="M46.404-56.876c.64.457 2.472.274 2.839.091-.184.367-.367 2.198.091 2.84" stroke-linejoin="round" stroke-linecap="round" stroke-width=".638"/></g><g stroke-width=".8" fill="none"><path d="M56.392 117.495l15.255-15.255" stroke-width=".797"/><path d="M69.083 101.873c.641.458 2.472.275 2.839.092-.183.366-.366 2.198.091 2.839" stroke-linejoin="round" stroke-linecap="round" stroke-width=".638"/></g><g stroke-width=".8" fill="none"><path d="M56.392 94.816l15.255-15.255" stroke-width=".797"/><path d="M69.083 79.195c.64.458 2.472.275 2.839.092-.184.366-.367 2.197.091 2.838" stroke-linejoin="round" stroke-linecap="round" stroke-width=".638"/></g><g stroke-width=".8" fill="none"><path d="M56.392 72.138l15.255-15.255" stroke-width=".797"/><path d="M69.083 56.516c.64.458 2.472.275 2.839.092-.184.366-.367 2.198.091 2.839" stroke-linejoin="round" stroke-linecap="round" stroke-width=".638"/></g><g stroke-width=".8" fill="none"><path d="M56.392 49.46l15.255-15.256" stroke-width=".797"/><path d="M69.083 33.838c.64.458 2.472.275 2.838.091-.183.367-.366 2.198.092 2.84" stroke-linejoin="round" stroke-linecap="round" stroke-width=".638"/></g><g stroke-width=".8" fill="none"><path d="M56.392 26.78l15.255-15.254" stroke-width=".797"/><path d="M69.082 11.16c.642.457 2.473.274 2.84.09-.184.367-.367 2.199.09 2.84" stroke-linejoin="round" stroke-linecap="round" stroke-width=".638"/></g><g stroke-width=".8" fill="none"><path d="M56.392 4.102l15.254-15.255" stroke-width=".797"/><path d="M69.082-11.52c.641.459 2.473.276 2.84.092-.184.367-.367 2.198.09 2.84" stroke-linejoin="round" stroke-linecap="round" stroke-width=".638"/></g><g stroke-width=".8" fill="none"><path d="M56.392-18.577L71.646-33.83" stroke-width=".797"/><path d="M69.082-34.198c.641.458 2.473.275 2.84.092-.184.366-.367 2.198.09 2.839" stroke-linejoin="round" stroke-linecap="round" stroke-width=".638"/></g><g stroke-width=".8" fill="none"><path d="M56.391-41.255L71.646-56.51" stroke-width=".797"/><path d="M69.082-56.876c.641.458 2.473.275 2.839.091-.183.367-.366 2.198.092 2.84" stroke-linejoin="round" stroke-linecap="round" stroke-width=".638"/></g><g stroke-width=".8" fill="none"><path d="M79.07 117.495l15.256-15.255" stroke-width=".797"/><path d="M91.761 101.874c.641.458 2.473.274 2.84.091-.184.366-.367 2.198.09 2.839" stroke-linejoin="round" stroke-linecap="round" stroke-width=".638"/></g><g stroke-width=".8" fill="none"><path d="M79.07 94.816l15.255-15.255" stroke-width=".797"/><path d="M91.761 79.195c.641.458 2.473.275 2.84.092-.184.366-.367 2.197.09 2.838" stroke-linejoin="round" stroke-linecap="round" stroke-width=".638"/></g><g stroke-width=".8" fill="none"><path d="M79.07 72.138l15.255-15.255" stroke-width=".797"/><path d="M91.761 56.517c.641.457 2.473.274 2.84.091-.184.366-.367 2.198.09 2.839" stroke-linejoin="round" stroke-linecap="round" stroke-width=".638"/></g><g stroke-width=".8" fill="none"><path d="M79.07 49.46l15.255-15.256" stroke-width=".797"/><path d="M91.761 33.838c.641.458 2.473.275 2.839.092-.183.366-.366 2.197.092 2.838" stroke-linejoin="round" stroke-linecap="round" stroke-width=".638"/></g><g stroke-width=".8" fill="none"><path d="M79.07 26.78l15.255-15.254" stroke-width=".797"/><path d="M91.761 11.16c.641.457 2.473.274 2.839.091-.183.366-.366 2.198.091 2.839" stroke-linejoin="round" stroke-linecap="round" stroke-width=".638"/></g><g stroke-width=".8" fill="none"><path d="M79.07 4.102l15.255-15.255" stroke-width=".797"/><path d="M91.76-11.519c.642.458 2.473.275 2.84.092-.183.366-.367 2.197.091 2.838" stroke-linejoin="round" stroke-linecap="round" stroke-width=".638"/></g><g stroke-width=".8" fill="none"><path d="M79.07-18.577L94.325-33.83" stroke-width=".797"/><path d="M91.76-34.198c.642.458 2.473.275 2.84.092-.184.366-.367 2.198.091 2.839" stroke-linejoin="round" stroke-linecap="round" stroke-width=".638"/></g><g stroke-width=".8" fill="none"><path d="M79.07-41.255L94.325-56.51" stroke-width=".797"/><path d="M91.76-56.876c.642.458 2.473.275 2.84.091-.184.367-.367 2.198.091 2.84" stroke-linejoin="round" stroke-linecap="round" stroke-width=".638"/></g><g stroke-width=".8" fill="none"><path d="M101.75 117.495l15.254-15.255" stroke-width=".797"/><path d="M114.44 101.874c.641.458 2.473.274 2.839.091-.183.367-.366 2.198.091 2.84" stroke-linejoin="round" stroke-linecap="round" stroke-width=".638"/></g><g stroke-width=".8" fill="none"><path d="M101.75 94.816l15.254-15.255" stroke-width=".797"/><path d="M114.44 79.195c.64.458 2.472.275 2.839.092-.183.366-.367 2.198.091 2.839" stroke-linejoin="round" stroke-linecap="round" stroke-width=".638"/></g><g stroke-width=".8" fill="none"><path d="M101.75 72.138l15.254-15.255" stroke-width=".797"/><path d="M114.44 56.517c.64.457 2.472.274 2.839.091-.184.366-.367 2.198.091 2.839" stroke-linejoin="round" stroke-linecap="round" stroke-width=".638"/></g><g stroke-width=".8" fill="none"><path d="M101.75 49.46l15.254-15.256" stroke-width=".797"/><path d="M114.44 33.838c.64.458 2.472.275 2.839.092-.184.366-.367 2.198.091 2.839" stroke-linejoin="round" stroke-linecap="round" stroke-width=".638"/></g><g stroke-width=".8" fill="none"><path d="M101.749 26.78l15.255-15.254" stroke-width=".797"/><path d="M114.44 11.16c.64.457 2.472.274 2.838.091-.183.366-.366 2.198.092 2.839" stroke-linejoin="round" stroke-linecap="round" stroke-width=".638"/></g><g stroke-width=".8" fill="none"><path d="M101.749 4.102l15.255-15.255" stroke-width=".797"/><path d="M114.44-11.519c.64.458 2.472.275 2.838.092-.183.366-.366 2.197.092 2.839" stroke-linejoin="round" stroke-linecap="round" stroke-width=".638"/></g><g stroke-width=".8" fill="none"><path d="M101.749-18.576l15.254-15.255" stroke-width=".797"/><path d="M114.44-34.197c.64.457 2.472.274 2.838.091-.183.366-.366 2.198.092 2.839" stroke-linejoin="round" stroke-linecap="round" stroke-width=".638"/></g><g stroke-width=".8" fill="none"><path d="M101.749-41.255l15.254-15.255" stroke-width=".797"/><path d="M114.44-56.876c.64.458 2.472.275 2.838.092-.183.366-.366 2.197.092 2.839" stroke-linejoin="round" stroke-linecap="round" stroke-width=".638"/></g></g></svg>