<svg xmlns="http://www.w3.org/2000/svg" width="164.236" height="164.236" viewBox="-72 -72 123.177 123.177"><g stroke-width=".4" stroke="#000" stroke-miterlimit="10"><path d="M-62.408 46.281a4.696 4.696 0 10-9.393 0 4.696 4.696 0 009.393 0zm-4.696 0" stroke-width=".399" fill="#fff"/><path d="M-62.408-10.412a4.696 4.696 0 10-9.393 0 4.696 4.696 0 009.393 0zm-4.696 0" stroke-width=".399" fill="#ffd1d1"/><path d="M-62.408-67.104a4.696 4.696 0 10-9.393 0 4.696 4.696 0 009.393 0zm-4.696 0" stroke-width=".399" fill="#ffa3a3"/><path d="M-5.715 46.281a4.696 4.696 0 10-9.393 0 4.696 4.696 0 009.393 0zm-4.697 0" stroke-width=".399" fill="#ffd1d1"/><path d="M-5.715-10.412a4.696 4.696 0 10-9.393 0 4.696 4.696 0 009.393 0zm-4.697 0" stroke-width=".399" fill="#ffa3a3"/><path d="M-5.715-67.104a4.696 4.696 0 10-9.393 0 4.696 4.696 0 009.393 0zm-4.697 0" stroke-width=".399" fill="#ff7575"/><path d="M50.978 46.281a4.696 4.696 0 10-9.393 0 4.696 4.696 0 009.393 0zm-4.697 0" stroke-width=".399" fill="#ffa3a3"/><path d="M50.978-10.412a4.696 4.696 0 10-9.393 0 4.696 4.696 0 009.393 0zm-4.697 0" stroke-width=".399" fill="#ff7575"/><path d="M50.978-67.104a4.696 4.696 0 10-9.393 0 4.696 4.696 0 009.393 0zm-4.697 0" stroke-width=".399" fill="#ff4747"/><g stroke-width=".8" fill="none"><path d="M-62.209 46.281h46.195" stroke-width=".797"/><path d="M-17.569 44.21c.13.776 1.555 1.942 1.943 2.071-.388.13-1.813 1.295-1.943 2.072" stroke-linejoin="round" stroke-linecap="round" stroke-width=".638"/></g><g stroke-width=".8" fill="none"><path d="M-67.104 41.386V-4.81" stroke-width=".797"/><path d="M-69.177-3.255c.777-.13 1.943-1.554 2.073-1.942.129.388 1.295 1.813 2.072 1.942" stroke-linejoin="round" stroke-linecap="round" stroke-width=".638"/></g><g stroke-width=".8" fill="none"><path d="M-62.209-10.412h46.195" stroke-width=".797"/><path d="M-17.569-12.484c.13.777 1.555 1.943 1.943 2.072-.388.13-1.813 1.296-1.943 2.073" stroke-linejoin="round" stroke-linecap="round" stroke-width=".638"/></g><g stroke-width=".8" fill="none"><path d="M-10.412 41.386V-4.81" stroke-width=".797"/><path d="M-12.484-3.255c.777-.13 1.943-1.554 2.072-1.942.13.388 1.296 1.813 2.073 1.942" stroke-linejoin="round" stroke-linecap="round" stroke-width=".638"/></g><g stroke-width=".8" fill="none"><path d="M-62.209-67.104h46.195" stroke-width=".797"/><path d="M-17.569-69.177c.13.777 1.555 1.943 1.943 2.073-.388.129-1.813 1.295-1.943 2.072" stroke-linejoin="round" stroke-linecap="round" stroke-width=".638"/></g><g stroke-width=".8" fill="none"><path d="M46.281 41.386V-4.81" stroke-width=".797"/><path d="M44.21-3.255c.776-.13 1.942-1.554 2.071-1.942.13.388 1.295 1.813 2.072 1.942" stroke-linejoin="round" stroke-linecap="round" stroke-width=".638"/></g><g stroke-width=".8" fill="none"><path d="M-5.516 46.281h46.194" stroke-width=".797"/><path d="M39.124 44.21c.13.776 1.554 1.942 1.943 2.071-.389.13-1.813 1.295-1.943 2.072" stroke-linejoin="round" stroke-linecap="round" stroke-width=".638"/></g><g stroke-width=".8" fill="none"><path d="M-67.104-15.307v-46.195" stroke-width=".797"/><path d="M-69.177-59.947c.777-.13 1.943-1.555 2.073-1.943.129.388 1.295 1.813 2.072 1.943" stroke-linejoin="round" stroke-linecap="round" stroke-width=".638"/></g><g stroke-width=".8" fill="none"><path d="M-5.516-10.412h46.194" stroke-width=".797"/><path d="M39.124-12.484c.13.777 1.554 1.943 1.943 2.072-.389.13-1.813 1.296-1.943 2.073" stroke-linejoin="round" stroke-linecap="round" stroke-width=".638"/></g><g stroke-width=".8" fill="none"><path d="M-10.412-15.307v-46.195" stroke-width=".797"/><path d="M-12.484-59.947c.777-.13 1.943-1.555 2.072-1.943.13.388 1.296 1.813 2.073 1.943" stroke-linejoin="round" stroke-linecap="round" stroke-width=".638"/></g><g stroke-width=".8" fill="none"><path d="M-5.516-67.104h46.194" stroke-width=".797"/><path d="M39.124-69.177c.13.777 1.554 1.943 1.943 2.073-.389.129-1.813 1.295-1.943 2.072" stroke-linejoin="round" stroke-linecap="round" stroke-width=".638"/></g><g stroke-width=".8" fill="none"><path d="M46.281-15.307v-46.195" stroke-width=".797"/><path d="M44.21-59.947c.776-.13 1.942-1.555 2.071-1.943.13.388 1.295 1.813 2.072 1.943" stroke-linejoin="round" stroke-linecap="round" stroke-width=".638"/></g><g stroke-width=".8" fill="none"><path d="M-63.643 42.82l49.27-49.27" stroke-width=".797"/><path d="M-16.938-6.816c.641.458 2.473.275 2.84.092-.184.366-.367 2.197.09 2.838" stroke-linejoin="round" stroke-linecap="round" stroke-width=".638"/></g><g stroke-width=".8" fill="none"><path d="M-63.643-13.873l49.27-49.27" stroke-width=".797"/><path d="M-16.938-63.509c.641.458 2.473.275 2.84.092-.184.366-.367 2.197.09 2.839" stroke-linejoin="round" stroke-linecap="round" stroke-width=".638"/></g><g stroke-width=".8" fill="none"><path d="M-6.95 42.82L42.32-6.45" stroke-width=".797"/><path d="M39.755-6.816c.641.458 2.473.275 2.84.092-.184.366-.367 2.197.09 2.838" stroke-linejoin="round" stroke-linecap="round" stroke-width=".638"/></g><g stroke-width=".8" fill="none"><path d="M-6.95-13.873l49.27-49.27" stroke-width=".797"/><path d="M39.755-63.509c.641.458 2.473.275 2.84.092-.184.366-.367 2.197.09 2.839" stroke-linejoin="round" stroke-linecap="round" stroke-width=".638"/></g></g></svg>