<svg xmlns="http://www.w3.org/2000/svg" width="254.945" height="254.945" viewBox="-72 -72 191.209 191.209"><g stroke-width=".4" stroke="#000" stroke-miterlimit="10"><path d="M-62.408 114.313a4.696 4.696 0 10-9.393 0 4.696 4.696 0 009.393 0zm-4.696 0" stroke-width=".399" fill="#fff"/><path d="M-62.408 91.636a4.696 4.696 0 10-9.393 0 4.696 4.696 0 009.393 0zm-4.696 0" stroke-width=".399" fill="#f0f0ff"/><path d="M-62.408 68.959a4.696 4.696 0 10-9.393 0 4.696 4.696 0 009.393 0zm-4.696 0" stroke-width=".399" fill="#e1e1ff"/><path d="M-62.408 46.282a4.696 4.696 0 10-9.393 0 4.696 4.696 0 009.393 0zm-4.696 0" stroke-width=".399" fill="#d1d1ff"/><path d="M-62.408 23.604a4.696 4.696 0 10-9.393 0 4.696 4.696 0 009.393 0zm-4.696 0" stroke-width=".399" fill="#c2c2ff"/><path d="M-62.408.927a4.696 4.696 0 10-9.393 0 4.696 4.696 0 009.393 0zm-4.696 0" stroke-width=".399" fill="#b3b3ff"/><path d="M-62.408-21.75a4.696 4.696 0 10-9.393 0 4.696 4.696 0 009.393 0zm-4.696 0" stroke-width=".399" fill="#a3a3ff"/><path d="M-62.408-44.427a4.696 4.696 0 10-9.393 0 4.696 4.696 0 009.393 0zm-4.696 0" stroke-width=".399" fill="#9494ff"/><path d="M-62.408-67.104a4.696 4.696 0 10-9.393 0 4.696 4.696 0 009.393 0zm-4.696 0" stroke-width=".399" fill="#8585ff"/><path d="M-39.731 114.313a4.696 4.696 0 10-9.392 0 4.696 4.696 0 009.392 0zm-4.696 0" stroke-width=".399" fill="#f0f0ff"/><path d="M-39.731 91.636a4.696 4.696 0 10-9.392 0 4.696 4.696 0 009.392 0zm-4.696 0" stroke-width=".399" fill="#e1e1ff"/><path d="M-39.731 68.959a4.696 4.696 0 10-9.392 0 4.696 4.696 0 009.392 0zm-4.696 0" stroke-width=".399" fill="#d1d1ff"/><path d="M-39.731 46.282a4.696 4.696 0 10-9.392 0 4.696 4.696 0 009.392 0zm-4.696 0" stroke-width=".399" fill="#c2c2ff"/><path d="M-39.731 23.604a4.696 4.696 0 10-9.392 0 4.696 4.696 0 009.392 0zm-4.696 0" stroke-width=".399" fill="#b3b3ff"/><path d="M-39.731.927a4.696 4.696 0 10-9.392 0 4.696 4.696 0 009.392 0zm-4.696 0" stroke-width=".399" fill="#a3a3ff"/><path d="M-39.731-21.75a4.696 4.696 0 10-9.392 0 4.696 4.696 0 009.392 0zm-4.696 0" stroke-width=".399" fill="#9494ff"/><path d="M-39.731-44.427a4.696 4.696 0 10-9.392 0 4.696 4.696 0 009.392 0zm-4.696 0" stroke-width=".399" fill="#8585ff"/><path d="M-39.731-67.104a4.696 4.696 0 10-9.392 0 4.696 4.696 0 009.392 0zm-4.696 0" stroke-width=".399" fill="#7575ff"/><path d="M-17.054 114.313a4.696 4.696 0 10-9.392 0 4.696 4.696 0 009.392 0zm-4.696 0" stroke-width=".399" fill="#e1e1ff"/><path d="M-17.054 91.636a4.696 4.696 0 10-9.392 0 4.696 4.696 0 009.392 0zm-4.696 0" stroke-width=".399" fill="#d1d1ff"/><path d="M-17.054 68.959a4.696 4.696 0 10-9.392 0 4.696 4.696 0 009.392 0zm-4.696 0" stroke-width=".399" fill="#c2c2ff"/><path d="M-17.054 46.282a4.696 4.696 0 10-9.392 0 4.696 4.696 0 009.392 0zm-4.696 0" stroke-width=".399" fill="#b3b3ff"/><path d="M-17.054 23.604a4.696 4.696 0 10-9.392 0 4.696 4.696 0 009.392 0zm-4.696 0" stroke-width=".399" fill="#a3a3ff"/><path d="M-17.054.927a4.696 4.696 0 10-9.392 0 4.696 4.696 0 009.392 0zm-4.696 0" stroke-width=".399" fill="#9494ff"/><path d="M-17.054-21.75a4.696 4.696 0 10-9.392 0 4.696 4.696 0 009.392 0zm-4.696 0" stroke-width=".399" fill="#8585ff"/><path d="M-17.054-44.427a4.696 4.696 0 10-9.392 0 4.696 4.696 0 009.392 0zm-4.696 0" stroke-width=".399" fill="#7575ff"/><path d="M-17.054-67.104a4.696 4.696 0 10-9.392 0 4.696 4.696 0 009.392 0zm-4.696 0" stroke-width=".399" fill="#66f"/><path d="M5.623 114.313a4.696 4.696 0 10-9.392 0 4.696 4.696 0 009.392 0zm-4.696 0" stroke-width=".399" fill="#d1d1ff"/><path d="M5.623 91.636a4.696 4.696 0 10-9.392 0 4.696 4.696 0 009.392 0zm-4.696 0" stroke-width=".399" fill="#c2c2ff"/><path d="M5.623 68.959a4.696 4.696 0 10-9.392 0 4.696 4.696 0 009.392 0zm-4.696 0" stroke-width=".399" fill="#b3b3ff"/><path d="M5.623 46.282a4.696 4.696 0 10-9.392 0 4.696 4.696 0 009.392 0zm-4.696 0" stroke-width=".399" fill="#a3a3ff"/><path d="M5.623 23.604a4.696 4.696 0 10-9.392 0 4.696 4.696 0 009.392 0zm-4.696 0" stroke-width=".399" fill="#9494ff"/><path d="M5.623.927a4.696 4.696 0 10-9.392 0 4.696 4.696 0 009.392 0zm-4.696 0" stroke-width=".399" fill="#8585ff"/><path d="M5.623-21.75a4.696 4.696 0 10-9.392 0 4.696 4.696 0 009.392 0zm-4.696 0" stroke-width=".399" fill="#7575ff"/><path d="M5.623-44.427a4.696 4.696 0 10-9.392 0 4.696 4.696 0 009.392 0zm-4.696 0" stroke-width=".399" fill="#66f"/><path d="M5.623-67.104a4.696 4.696 0 10-9.392 0 4.696 4.696 0 009.392 0zm-4.696 0" stroke-width=".399" fill="#5757ff"/><path d="M28.3 114.313a4.696 4.696 0 10-9.392 0 4.696 4.696 0 009.393 0zm-4.696 0" stroke-width=".399" fill="#c2c2ff"/><path d="M28.3 91.636a4.696 4.696 0 10-9.392 0 4.696 4.696 0 009.393 0zm-4.696 0" stroke-width=".399" fill="#b3b3ff"/><path d="M28.3 68.959a4.696 4.696 0 10-9.392 0 4.696 4.696 0 009.393 0zm-4.696 0" stroke-width=".399" fill="#a3a3ff"/><path d="M28.3 46.282a4.696 4.696 0 10-9.392 0 4.696 4.696 0 009.393 0zm-4.696 0" stroke-width=".399" fill="#9494ff"/><path d="M28.3 23.604a4.696 4.696 0 10-9.392 0 4.696 4.696 0 009.393 0zm-4.696 0" stroke-width=".399" fill="#8585ff"/><path d="M28.3.927a4.696 4.696 0 10-9.392 0 4.696 4.696 0 009.393 0zm-4.696 0" stroke-width=".399" fill="#7575ff"/><path d="M28.3-21.75a4.696 4.696 0 10-9.392 0 4.696 4.696 0 009.393 0zm-4.696 0" stroke-width=".399" fill="#66f"/><path d="M28.3-44.427a4.696 4.696 0 10-9.392 0 4.696 4.696 0 009.393 0zm-4.696 0" stroke-width=".399" fill="#5757ff"/><path d="M28.3-67.104a4.696 4.696 0 10-9.392 0 4.696 4.696 0 009.393 0zm-4.696 0" stroke-width=".399" fill="#4747ff"/><path d="M50.978 114.313a4.696 4.696 0 10-9.392 0 4.696 4.696 0 009.392 0zm-4.696 0" stroke-width=".399" fill="#b3b3ff"/><path d="M50.978 91.636a4.696 4.696 0 10-9.392 0 4.696 4.696 0 009.392 0zm-4.696 0" stroke-width=".399" fill="#a3a3ff"/><path d="M50.978 68.959a4.696 4.696 0 10-9.392 0 4.696 4.696 0 009.392 0zm-4.696 0" stroke-width=".399" fill="#9494ff"/><path d="M50.978 46.282a4.696 4.696 0 10-9.392 0 4.696 4.696 0 009.392 0zm-4.696 0" stroke-width=".399" fill="#8585ff"/><path d="M50.978 23.604a4.696 4.696 0 10-9.392 0 4.696 4.696 0 009.392 0zm-4.696 0" stroke-width=".399" fill="#7575ff"/><path d="M50.978.927a4.696 4.696 0 10-9.392 0 4.696 4.696 0 009.392 0zm-4.696 0" stroke-width=".399" fill="#66f"/><path d="M50.978-21.75a4.696 4.696 0 10-9.392 0 4.696 4.696 0 009.392 0zm-4.696 0" stroke-width=".399" fill="#5757ff"/><path d="M50.978-44.427a4.696 4.696 0 10-9.392 0 4.696 4.696 0 009.392 0zm-4.696 0" stroke-width=".399" fill="#4747ff"/><path d="M50.978-67.104a4.696 4.696 0 10-9.392 0 4.696 4.696 0 009.392 0zm-4.696 0" stroke-width=".399" fill="#3838ff"/><path d="M73.655 114.313a4.696 4.696 0 10-9.392 0 4.696 4.696 0 009.392 0zm-4.696 0" stroke-width=".399" fill="#a3a3ff"/><path d="M73.655 91.636a4.696 4.696 0 10-9.392 0 4.696 4.696 0 009.392 0zm-4.696 0" stroke-width=".399" fill="#9494ff"/><path d="M73.655 68.959a4.696 4.696 0 10-9.392 0 4.696 4.696 0 009.392 0zm-4.696 0" stroke-width=".399" fill="#8585ff"/><path d="M73.655 46.282a4.696 4.696 0 10-9.392 0 4.696 4.696 0 009.392 0zm-4.696 0" stroke-width=".399" fill="#7575ff"/><path d="M73.655 23.604a4.696 4.696 0 10-9.392 0 4.696 4.696 0 009.392 0zm-4.696 0" stroke-width=".399" fill="#66f"/><path d="M73.655.927a4.696 4.696 0 10-9.392 0 4.696 4.696 0 009.392 0zm-4.696 0" stroke-width=".399" fill="#5757ff"/><path d="M73.655-21.75a4.696 4.696 0 10-9.392 0 4.696 4.696 0 009.392 0zm-4.696 0" stroke-width=".399" fill="#4747ff"/><path d="M73.655-44.427a4.696 4.696 0 10-9.392 0 4.696 4.696 0 009.392 0zm-4.696 0" stroke-width=".399" fill="#3838ff"/><path d="M73.655-67.104a4.696 4.696 0 10-9.392 0 4.696 4.696 0 009.392 0zm-4.696 0" stroke-width=".399" fill="#2828ff"/><path d="M96.332 114.313a4.696 4.696 0 10-9.392 0 4.696 4.696 0 009.392 0zm-4.696 0" stroke-width=".399" fill="#9494ff"/><path d="M96.332 91.636a4.696 4.696 0 10-9.392 0 4.696 4.696 0 009.392 0zm-4.696 0" stroke-width=".399" fill="#8585ff"/><path d="M96.332 68.959a4.696 4.696 0 10-9.392 0 4.696 4.696 0 009.392 0zm-4.696 0" stroke-width=".399" fill="#7575ff"/><path d="M96.332 46.282a4.696 4.696 0 10-9.392 0 4.696 4.696 0 009.392 0zm-4.696 0" stroke-width=".399" fill="#66f"/><path d="M96.332 23.604a4.696 4.696 0 10-9.392 0 4.696 4.696 0 009.392 0zm-4.696 0" stroke-width=".399" fill="#5757ff"/><path d="M96.332.927a4.696 4.696 0 10-9.392 0 4.696 4.696 0 009.392 0zm-4.696 0" stroke-width=".399" fill="#4747ff"/><path d="M96.332-21.75a4.696 4.696 0 10-9.392 0 4.696 4.696 0 009.392 0zm-4.696 0" stroke-width=".399" fill="#3838ff"/><path d="M96.332-44.427a4.696 4.696 0 10-9.392 0 4.696 4.696 0 009.392 0zm-4.696 0" stroke-width=".399" fill="#2828ff"/><path d="M96.332-67.104a4.696 4.696 0 10-9.392 0 4.696 4.696 0 009.392 0zm-4.696 0" stroke-width=".399" fill="#1919ff"/><path d="M119.01 114.313a4.696 4.696 0 10-9.393 0 4.696 4.696 0 009.393 0zm-4.697 0" stroke-width=".399" fill="#8585ff"/><path d="M119.01 91.636a4.696 4.696 0 10-9.393 0 4.696 4.696 0 009.393 0zm-4.697 0" stroke-width=".399" fill="#7575ff"/><path d="M119.01 68.959a4.696 4.696 0 10-9.393 0 4.696 4.696 0 009.393 0zm-4.697 0" stroke-width=".399" fill="#66f"/><path d="M119.01 46.282a4.696 4.696 0 10-9.393 0 4.696 4.696 0 009.393 0zm-4.697 0" stroke-width=".399" fill="#5757ff"/><path d="M119.01 23.604a4.696 4.696 0 10-9.393 0 4.696 4.696 0 009.393 0zm-4.697 0" stroke-width=".399" fill="#4747ff"/><path d="M119.01.927a4.696 4.696 0 10-9.393 0 4.696 4.696 0 009.393 0zm-4.697 0" stroke-width=".399" fill="#3838ff"/><path d="M119.01-21.75a4.696 4.696 0 10-9.393 0 4.696 4.696 0 009.393 0zm-4.697 0" stroke-width=".399" fill="#2828ff"/><path d="M119.01-44.427a4.696 4.696 0 10-9.393 0 4.696 4.696 0 009.393 0zm-4.697 0" stroke-width=".399" fill="#1919ff"/><path d="M119.01-67.104a4.696 4.696 0 10-9.393 0 4.696 4.696 0 009.393 0zm-4.697 0" stroke-width=".399" fill="#0a0aff"/><g stroke-width=".8" fill="none"><path d="M-62.209 114.313h12.18" stroke-width=".797"/><path d="M-51.583 112.241c.13.777 1.554 1.943 1.942 2.072-.388.13-1.813 1.296-1.942 2.073" stroke-linejoin="round" stroke-linecap="round" stroke-width=".638"/></g><g stroke-width=".8" fill="none"><path d="M-67.104 109.418v-12.18" stroke-width=".797"/><path d="M-69.177 98.792c.777-.13 1.943-1.554 2.073-1.942.129.388 1.295 1.813 2.072 1.942" stroke-linejoin="round" stroke-linecap="round" stroke-width=".638"/></g><g stroke-width=".8" fill="none"><path d="M-62.209 91.635h12.18" stroke-width=".797"/><path d="M-51.583 89.563c.13.777 1.554 1.942 1.942 2.072-.388.13-1.813 1.295-1.942 2.072" stroke-linejoin="round" stroke-linecap="round" stroke-width=".638"/></g><g stroke-width=".8" fill="none"><path d="M-44.426 109.418v-12.18" stroke-width=".797"/><path d="M-46.498 98.792c.777-.13 1.943-1.554 2.072-1.942.13.388 1.295 1.813 2.072 1.942" stroke-linejoin="round" stroke-linecap="round" stroke-width=".638"/></g><g stroke-width=".8" fill="none"><path d="M-62.209 68.956h12.18" stroke-width=".797"/><path d="M-51.583 66.884c.13.777 1.554 1.943 1.942 2.072-.388.13-1.813 1.295-1.942 2.072" stroke-linejoin="round" stroke-linecap="round" stroke-width=".638"/></g><g stroke-width=".8" fill="none"><path d="M-21.747 109.418v-12.18" stroke-width=".797"/><path d="M-23.82 98.792c.778-.13 1.943-1.554 2.073-1.942.13.388 1.295 1.813 2.072 1.942" stroke-linejoin="round" stroke-linecap="round" stroke-width=".638"/></g><g stroke-width=".8" fill="none"><path d="M-62.209 46.277h12.18" stroke-width=".797"/><path d="M-51.583 44.205c.13.777 1.554 1.943 1.942 2.072-.388.13-1.813 1.296-1.942 2.073" stroke-linejoin="round" stroke-linecap="round" stroke-width=".638"/></g><g stroke-width=".8" fill="none"><path d="M.932 109.418v-12.18" stroke-width=".797"/><path d="M-1.14 98.792c.776-.13 1.942-1.554 2.071-1.942.13.388 1.296 1.813 2.073 1.942" stroke-linejoin="round" stroke-linecap="round" stroke-width=".638"/></g><g stroke-width=".8" fill="none"><path d="M-62.209 23.598h12.18" stroke-width=".797"/><path d="M-51.583 21.527c.13.777 1.554 1.942 1.942 2.072-.388.13-1.813 1.295-1.942 2.072" stroke-linejoin="round" stroke-linecap="round" stroke-width=".638"/></g><g stroke-width=".8" fill="none"><path d="M23.61 109.418v-12.18" stroke-width=".797"/><path d="M21.538 98.792c.777-.13 1.943-1.554 2.072-1.942.13.388 1.295 1.813 2.072 1.942" stroke-linejoin="round" stroke-linecap="round" stroke-width=".638"/></g><g stroke-width=".8" fill="none"><path d="M-62.209.92h12.18" stroke-width=".797"/><path d="M-51.583-1.152c.13.777 1.554 1.943 1.942 2.072-.388.13-1.813 1.295-1.942 2.072" stroke-linejoin="round" stroke-linecap="round" stroke-width=".638"/></g><g stroke-width=".8" fill="none"><path d="M46.29 109.418l-.001-12.18" stroke-width=".797"/><path d="M44.217 98.792c.777-.13 1.942-1.554 2.072-1.942.13.388 1.295 1.813 2.072 1.942" stroke-linejoin="round" stroke-linecap="round" stroke-width=".638"/></g><g stroke-width=".8" fill="none"><path d="M-62.209-21.76l12.18.001" stroke-width=".797"/><path d="M-51.583-23.83c.13.776 1.554 1.942 1.942 2.071-.388.13-1.813 1.295-1.942 2.073" stroke-linejoin="round" stroke-linecap="round" stroke-width=".638"/></g><g stroke-width=".8" fill="none"><path d="M68.968 109.418v-12.18" stroke-width=".797"/><path d="M66.896 98.792c.777-.13 1.942-1.554 2.072-1.942.13.388 1.295 1.813 2.072 1.942" stroke-linejoin="round" stroke-linecap="round" stroke-width=".638"/></g><g stroke-width=".8" fill="none"><path d="M-62.209-44.438h12.18" stroke-width=".797"/><path d="M-51.583-46.51c.13.778 1.554 1.943 1.942 2.073-.388.13-1.813 1.295-1.942 2.072" stroke-linejoin="round" stroke-linecap="round" stroke-width=".638"/></g><g stroke-width=".8" fill="none"><path d="M91.647 109.418v-12.18" stroke-width=".797"/><path d="M89.574 98.792c.777-.13 1.943-1.554 2.072-1.942.13.388 1.296 1.813 2.073 1.942" stroke-linejoin="round" stroke-linecap="round" stroke-width=".638"/></g><g stroke-width=".8" fill="none"><path d="M-62.209-67.117h12.18" stroke-width=".797"/><path d="M-51.583-69.188c.13.777 1.554 1.942 1.942 2.072-.388.13-1.813 1.295-1.942 2.072" stroke-linejoin="round" stroke-linecap="round" stroke-width=".638"/></g><g stroke-width=".8" fill="none"><path d="M114.326 109.418v-12.18" stroke-width=".797"/><path d="M112.253 98.792c.777-.13 1.943-1.554 2.072-1.942.13.388 1.295 1.813 2.072 1.942" stroke-linejoin="round" stroke-linecap="round" stroke-width=".638"/></g><g stroke-width=".8" fill="none"><path d="M-39.53 114.313h12.18" stroke-width=".797"/><path d="M-28.905 112.241c.13.777 1.554 1.943 1.943 2.072-.389.13-1.813 1.296-1.943 2.073" stroke-linejoin="round" stroke-linecap="round" stroke-width=".638"/></g><g stroke-width=".8" fill="none"><path d="M-67.104 86.74V74.56" stroke-width=".797"/><path d="M-69.177 76.114c.777-.13 1.943-1.554 2.073-1.943.129.389 1.295 1.813 2.072 1.943" stroke-linejoin="round" stroke-linecap="round" stroke-width=".638"/></g><g stroke-width=".8" fill="none"><path d="M-39.53 91.635h12.18" stroke-width=".797"/><path d="M-28.905 89.563c.13.777 1.554 1.942 1.943 2.072-.389.13-1.813 1.295-1.943 2.072" stroke-linejoin="round" stroke-linecap="round" stroke-width=".638"/></g><g stroke-width=".8" fill="none"><path d="M-44.426 86.74V74.56" stroke-width=".797"/><path d="M-46.498 76.114c.777-.13 1.943-1.554 2.072-1.943.13.389 1.295 1.813 2.072 1.943" stroke-linejoin="round" stroke-linecap="round" stroke-width=".638"/></g><g stroke-width=".8" fill="none"><path d="M-39.53 68.956h12.18" stroke-width=".797"/><path d="M-28.905 66.884c.13.777 1.554 1.943 1.943 2.072-.389.13-1.813 1.295-1.943 2.072" stroke-linejoin="round" stroke-linecap="round" stroke-width=".638"/></g><g stroke-width=".8" fill="none"><path d="M-21.747 86.74V74.56" stroke-width=".797"/><path d="M-23.82 76.114c.778-.13 1.943-1.554 2.073-1.943.13.389 1.295 1.813 2.072 1.943" stroke-linejoin="round" stroke-linecap="round" stroke-width=".638"/></g><g stroke-width=".8" fill="none"><path d="M-39.53 46.277h12.18" stroke-width=".797"/><path d="M-28.905 44.205c.13.777 1.554 1.943 1.943 2.072-.389.13-1.813 1.296-1.943 2.073" stroke-linejoin="round" stroke-linecap="round" stroke-width=".638"/></g><g stroke-width=".8" fill="none"><path d="M.932 86.74V74.56" stroke-width=".797"/><path d="M-1.14 76.114c.775-.13 1.941-1.554 2.07-1.944.13.389 1.296 1.813 2.073 1.943" stroke-linejoin="round" stroke-linecap="round" stroke-width=".638"/></g><g stroke-width=".8" fill="none"><path d="M-39.53 23.598h12.18" stroke-width=".797"/><path d="M-28.905 21.527c.13.777 1.554 1.942 1.943 2.072-.389.13-1.813 1.295-1.943 2.072" stroke-linejoin="round" stroke-linecap="round" stroke-width=".638"/></g><g stroke-width=".8" fill="none"><path d="M23.61 86.74V74.56" stroke-width=".797"/><path d="M21.538 76.114c.777-.13 1.943-1.554 2.072-1.943.13.389 1.295 1.813 2.072 1.943" stroke-linejoin="round" stroke-linecap="round" stroke-width=".638"/></g><g stroke-width=".8" fill="none"><path d="M-39.53.92h12.18" stroke-width=".797"/><path d="M-28.905-1.152c.13.777 1.554 1.943 1.943 2.072-.389.13-1.813 1.295-1.943 2.072" stroke-linejoin="round" stroke-linecap="round" stroke-width=".638"/></g><g stroke-width=".8" fill="none"><path d="M46.29 86.74l-.001-12.18" stroke-width=".797"/><path d="M44.217 76.114c.777-.13 1.942-1.554 2.072-1.943.13.389 1.295 1.813 2.072 1.943" stroke-linejoin="round" stroke-linecap="round" stroke-width=".638"/></g><g stroke-width=".8" fill="none"><path d="M-39.53-21.76l12.18.001" stroke-width=".797"/><path d="M-28.905-23.83c.13.776 1.554 1.942 1.943 2.071-.389.13-1.813 1.295-1.943 2.073" stroke-linejoin="round" stroke-linecap="round" stroke-width=".638"/></g><g stroke-width=".8" fill="none"><path d="M68.968 86.74V74.56" stroke-width=".797"/><path d="M66.896 76.114c.777-.13 1.942-1.554 2.072-1.943.13.389 1.295 1.813 2.072 1.943" stroke-linejoin="round" stroke-linecap="round" stroke-width=".638"/></g><g stroke-width=".8" fill="none"><path d="M-39.53-44.438h12.18" stroke-width=".797"/><path d="M-28.905-46.51c.13.778 1.554 1.943 1.943 2.073-.389.13-1.813 1.295-1.943 2.072" stroke-linejoin="round" stroke-linecap="round" stroke-width=".638"/></g><g stroke-width=".8" fill="none"><path d="M91.647 86.74V74.56" stroke-width=".797"/><path d="M89.574 76.114c.777-.13 1.943-1.554 2.072-1.943.13.389 1.296 1.813 2.073 1.943" stroke-linejoin="round" stroke-linecap="round" stroke-width=".638"/></g><g stroke-width=".8" fill="none"><path d="M-39.53-67.117h12.18" stroke-width=".797"/><path d="M-28.905-69.188c.13.777 1.554 1.942 1.943 2.072-.389.13-1.813 1.295-1.943 2.072" stroke-linejoin="round" stroke-linecap="round" stroke-width=".638"/></g><g stroke-width=".8" fill="none"><path d="M114.326 86.74V74.56" stroke-width=".797"/><path d="M112.253 76.114c.777-.13 1.943-1.554 2.072-1.943.13.389 1.295 1.813 2.072 1.943" stroke-linejoin="round" stroke-linecap="round" stroke-width=".638"/></g><g stroke-width=".8" fill="none"><path d="M-16.852 114.313h12.18" stroke-width=".797"/><path d="M-6.226 112.241c.13.777 1.554 1.943 1.942 2.072-.388.13-1.813 1.296-1.942 2.073" stroke-linejoin="round" stroke-linecap="round" stroke-width=".638"/></g><g stroke-width=".8" fill="none"><path d="M-67.104 64.06V51.882" stroke-width=".797"/><path d="M-69.177 53.435c.777-.13 1.943-1.554 2.073-1.942.129.388 1.295 1.813 2.072 1.942" stroke-linejoin="round" stroke-linecap="round" stroke-width=".638"/></g><g stroke-width=".8" fill="none"><path d="M-16.852 91.635h12.18" stroke-width=".797"/><path d="M-6.226 89.563c.13.777 1.554 1.942 1.942 2.072-.388.13-1.813 1.295-1.942 2.072" stroke-linejoin="round" stroke-linecap="round" stroke-width=".638"/></g><g stroke-width=".8" fill="none"><path d="M-44.426 64.06V51.882" stroke-width=".797"/><path d="M-46.498 53.435c.777-.13 1.943-1.554 2.072-1.942.13.388 1.295 1.813 2.072 1.942" stroke-linejoin="round" stroke-linecap="round" stroke-width=".638"/></g><g stroke-width=".8" fill="none"><path d="M-16.852 68.956h12.18" stroke-width=".797"/><path d="M-6.226 66.884c.13.777 1.554 1.943 1.942 2.072-.388.13-1.813 1.295-1.942 2.072" stroke-linejoin="round" stroke-linecap="round" stroke-width=".638"/></g><g stroke-width=".8" fill="none"><path d="M-21.747 64.06V51.882" stroke-width=".797"/><path d="M-23.82 53.435c.778-.13 1.943-1.554 2.073-1.942.13.388 1.295 1.813 2.072 1.942" stroke-linejoin="round" stroke-linecap="round" stroke-width=".638"/></g><g stroke-width=".8" fill="none"><path d="M-16.852 46.277h12.18" stroke-width=".797"/><path d="M-6.226 44.205c.13.777 1.554 1.943 1.942 2.072-.388.13-1.813 1.296-1.942 2.073" stroke-linejoin="round" stroke-linecap="round" stroke-width=".638"/></g><g stroke-width=".8" fill="none"><path d="M.932 64.06V51.882" stroke-width=".797"/><path d="M-1.14 53.435c.776-.13 1.942-1.554 2.071-1.942.13.388 1.296 1.813 2.073 1.942" stroke-linejoin="round" stroke-linecap="round" stroke-width=".638"/></g><g stroke-width=".8" fill="none"><path d="M-16.852 23.598h12.18" stroke-width=".797"/><path d="M-6.226 21.527c.13.777 1.554 1.942 1.942 2.072-.388.13-1.813 1.295-1.942 2.072" stroke-linejoin="round" stroke-linecap="round" stroke-width=".638"/></g><g stroke-width=".8" fill="none"><path d="M23.61 64.06V51.882" stroke-width=".797"/><path d="M21.538 53.435c.777-.13 1.943-1.554 2.072-1.942.13.388 1.295 1.813 2.072 1.942" stroke-linejoin="round" stroke-linecap="round" stroke-width=".638"/></g><g stroke-width=".8" fill="none"><path d="M-16.852.92h12.18" stroke-width=".797"/><path d="M-6.226-1.152C-6.096-.375-4.672.79-4.284.92c-.388.13-1.813 1.295-1.942 2.072" stroke-linejoin="round" stroke-linecap="round" stroke-width=".638"/></g><g stroke-width=".8" fill="none"><path d="M46.29 64.06l-.001-12.179" stroke-width=".797"/><path d="M44.217 53.435c.777-.13 1.942-1.554 2.072-1.942.13.388 1.295 1.813 2.072 1.942" stroke-linejoin="round" stroke-linecap="round" stroke-width=".638"/></g><g stroke-width=".8" fill="none"><path d="M-16.852-21.76l12.18.001" stroke-width=".797"/><path d="M-6.226-23.83c.13.776 1.554 1.942 1.942 2.071-.388.13-1.813 1.295-1.942 2.073" stroke-linejoin="round" stroke-linecap="round" stroke-width=".638"/></g><g stroke-width=".8" fill="none"><path d="M68.968 64.06V51.882" stroke-width=".797"/><path d="M66.896 53.435c.777-.13 1.942-1.554 2.072-1.942.13.388 1.295 1.813 2.072 1.942" stroke-linejoin="round" stroke-linecap="round" stroke-width=".638"/></g><g stroke-width=".8" fill="none"><path d="M-16.852-44.438h12.18" stroke-width=".797"/><path d="M-6.226-46.51c.13.778 1.554 1.943 1.942 2.073-.388.13-1.813 1.295-1.942 2.072" stroke-linejoin="round" stroke-linecap="round" stroke-width=".638"/></g><g stroke-width=".8" fill="none"><path d="M91.647 64.06V51.882" stroke-width=".797"/><path d="M89.574 53.435c.777-.13 1.943-1.554 2.072-1.942.13.388 1.296 1.813 2.073 1.942" stroke-linejoin="round" stroke-linecap="round" stroke-width=".638"/></g><g stroke-width=".8" fill="none"><path d="M-16.852-67.117h12.18" stroke-width=".797"/><path d="M-6.226-69.188c.13.777 1.554 1.942 1.942 2.072-.388.13-1.813 1.295-1.943 2.072" stroke-linejoin="round" stroke-linecap="round" stroke-width=".638"/></g><g stroke-width=".8" fill="none"><path d="M114.326 64.06V51.882" stroke-width=".797"/><path d="M112.253 53.435c.777-.13 1.943-1.554 2.072-1.942.13.388 1.295 1.813 2.072 1.942" stroke-linejoin="round" stroke-linecap="round" stroke-width=".638"/></g><g stroke-width=".8" fill="none"><path d="M5.827 114.313h12.18" stroke-width=".797"/><path d="M16.452 112.241c.13.777 1.554 1.943 1.943 2.072-.389.13-1.814 1.296-1.943 2.073" stroke-linejoin="round" stroke-linecap="round" stroke-width=".638"/></g><g stroke-width=".8" fill="none"><path d="M-67.104 41.382v-12.18" stroke-width=".797"/><path d="M-69.177 30.757c.777-.13 1.943-1.554 2.073-1.943.129.389 1.295 1.813 2.072 1.943" stroke-linejoin="round" stroke-linecap="round" stroke-width=".638"/></g><g stroke-width=".8" fill="none"><path d="M5.826 91.635h12.18" stroke-width=".797"/><path d="M16.452 89.563c.13.777 1.554 1.942 1.943 2.072-.389.13-1.813 1.295-1.943 2.072" stroke-linejoin="round" stroke-linecap="round" stroke-width=".638"/></g><g stroke-width=".8" fill="none"><path d="M-44.426 41.382v-12.18" stroke-width=".797"/><path d="M-46.498 30.757c.777-.13 1.943-1.554 2.072-1.943.13.389 1.295 1.813 2.072 1.943" stroke-linejoin="round" stroke-linecap="round" stroke-width=".638"/></g><g stroke-width=".8" fill="none"><path d="M5.826 68.956h12.18" stroke-width=".797"/><path d="M16.452 66.884c.13.777 1.554 1.943 1.943 2.072-.389.13-1.813 1.295-1.943 2.072" stroke-linejoin="round" stroke-linecap="round" stroke-width=".638"/></g><g stroke-width=".8" fill="none"><path d="M-21.747 41.382v-12.18" stroke-width=".797"/><path d="M-23.82 30.757c.778-.13 1.943-1.554 2.073-1.943.13.389 1.295 1.813 2.072 1.943" stroke-linejoin="round" stroke-linecap="round" stroke-width=".638"/></g><g stroke-width=".8" fill="none"><path d="M5.826 46.277h12.18" stroke-width=".797"/><path d="M16.452 44.205c.13.777 1.554 1.943 1.943 2.072-.389.13-1.813 1.296-1.943 2.073" stroke-linejoin="round" stroke-linecap="round" stroke-width=".638"/></g><g stroke-width=".8" fill="none"><path d="M.932 41.382v-12.18" stroke-width=".797"/><path d="M-1.14 30.757c.776-.13 1.942-1.554 2.071-1.943.13.389 1.296 1.813 2.073 1.943" stroke-linejoin="round" stroke-linecap="round" stroke-width=".638"/></g><g stroke-width=".8" fill="none"><path d="M5.826 23.598h12.18" stroke-width=".797"/><path d="M16.452 21.527c.13.777 1.554 1.942 1.943 2.072-.389.13-1.813 1.295-1.943 2.072" stroke-linejoin="round" stroke-linecap="round" stroke-width=".638"/></g><g stroke-width=".8" fill="none"><path d="M23.61 41.382v-12.18" stroke-width=".797"/><path d="M21.538 30.757c.777-.13 1.943-1.554 2.072-1.943.13.389 1.295 1.813 2.072 1.943" stroke-linejoin="round" stroke-linecap="round" stroke-width=".638"/></g><g stroke-width=".8" fill="none"><path d="M5.826.92h12.18" stroke-width=".797"/><path d="M16.452-1.152c.13.777 1.554 1.943 1.943 2.072-.389.13-1.813 1.295-1.943 2.072" stroke-linejoin="round" stroke-linecap="round" stroke-width=".638"/></g><g stroke-width=".8" fill="none"><path d="M46.29 41.382l-.001-12.18" stroke-width=".797"/><path d="M44.217 30.757c.777-.13 1.942-1.554 2.072-1.943.13.389 1.295 1.813 2.072 1.943" stroke-linejoin="round" stroke-linecap="round" stroke-width=".638"/></g><g stroke-width=".8" fill="none"><path d="M5.826-21.76l12.18.001" stroke-width=".797"/><path d="M16.452-23.83c.13.776 1.554 1.942 1.943 2.071-.389.13-1.813 1.295-1.943 2.073" stroke-linejoin="round" stroke-linecap="round" stroke-width=".638"/></g><g stroke-width=".8" fill="none"><path d="M68.968 41.382v-12.18" stroke-width=".797"/><path d="M66.896 30.757c.777-.13 1.942-1.554 2.072-1.943.13.389 1.295 1.813 2.072 1.943" stroke-linejoin="round" stroke-linecap="round" stroke-width=".638"/></g><g stroke-width=".8" fill="none"><path d="M5.826-44.438h12.18" stroke-width=".797"/><path d="M16.452-46.51c.13.778 1.554 1.943 1.943 2.073-.389.13-1.813 1.295-1.943 2.072" stroke-linejoin="round" stroke-linecap="round" stroke-width=".638"/></g><g stroke-width=".8" fill="none"><path d="M91.647 41.382v-12.18" stroke-width=".797"/><path d="M89.574 30.757c.777-.13 1.943-1.554 2.072-1.943.13.389 1.296 1.813 2.073 1.943" stroke-linejoin="round" stroke-linecap="round" stroke-width=".638"/></g><g stroke-width=".8" fill="none"><path d="M5.826-67.117h12.18" stroke-width=".797"/><path d="M16.452-69.188c.13.777 1.554 1.942 1.943 2.072-.389.13-1.813 1.295-1.943 2.072" stroke-linejoin="round" stroke-linecap="round" stroke-width=".638"/></g><g stroke-width=".8" fill="none"><path d="M114.326 41.382v-12.18" stroke-width=".797"/><path d="M112.253 30.757c.777-.13 1.943-1.554 2.072-1.943.13.389 1.295 1.813 2.072 1.943" stroke-linejoin="round" stroke-linecap="round" stroke-width=".638"/></g><g stroke-width=".8" fill="none"><path d="M28.505 114.313h12.18" stroke-width=".797"/><path d="M39.13 112.241c.13.777 1.555 1.943 1.943 2.072-.388.13-1.813 1.296-1.943 2.073" stroke-linejoin="round" stroke-linecap="round" stroke-width=".638"/></g><g stroke-width=".8" fill="none"><path d="M-67.104 18.704V6.524" stroke-width=".797"/><path d="M-69.177 8.079c.777-.13 1.943-1.555 2.073-1.943.129.388 1.295 1.813 2.072 1.943" stroke-linejoin="round" stroke-linecap="round" stroke-width=".638"/></g><g stroke-width=".8" fill="none"><path d="M28.505 91.635h12.18" stroke-width=".797"/><path d="M39.13 89.563c.13.777 1.555 1.942 1.943 2.072-.388.13-1.813 1.295-1.943 2.072" stroke-linejoin="round" stroke-linecap="round" stroke-width=".638"/></g><g stroke-width=".8" fill="none"><path d="M-44.426 18.704V6.524" stroke-width=".797"/><path d="M-46.498 8.078c.777-.13 1.943-1.554 2.072-1.942.13.388 1.295 1.813 2.072 1.942" stroke-linejoin="round" stroke-linecap="round" stroke-width=".638"/></g><g stroke-width=".8" fill="none"><path d="M28.505 68.956h12.18" stroke-width=".797"/><path d="M39.13 66.884c.13.777 1.555 1.943 1.943 2.072-.388.13-1.813 1.295-1.943 2.072" stroke-linejoin="round" stroke-linecap="round" stroke-width=".638"/></g><g stroke-width=".8" fill="none"><path d="M-21.747 18.704V6.524" stroke-width=".797"/><path d="M-23.82 8.078c.778-.13 1.943-1.554 2.073-1.942.13.388 1.295 1.813 2.072 1.942" stroke-linejoin="round" stroke-linecap="round" stroke-width=".638"/></g><g stroke-width=".8" fill="none"><path d="M28.505 46.277h12.18" stroke-width=".797"/><path d="M39.13 44.205c.13.777 1.555 1.943 1.943 2.072-.388.13-1.813 1.296-1.943 2.073" stroke-linejoin="round" stroke-linecap="round" stroke-width=".638"/></g><g stroke-width=".8" fill="none"><path d="M.932 18.704V6.524" stroke-width=".797"/><path d="M-1.14 8.078C-.365 7.948.801 6.524.93 6.136c.13.388 1.296 1.813 2.073 1.942" stroke-linejoin="round" stroke-linecap="round" stroke-width=".638"/></g><g stroke-width=".8" fill="none"><path d="M28.505 23.598h12.18" stroke-width=".797"/><path d="M39.13 21.527c.13.777 1.555 1.942 1.943 2.072-.388.13-1.813 1.295-1.943 2.072" stroke-linejoin="round" stroke-linecap="round" stroke-width=".638"/></g><g stroke-width=".8" fill="none"><path d="M23.61 18.704V6.524" stroke-width=".797"/><path d="M21.538 8.078c.777-.13 1.943-1.554 2.072-1.942.13.388 1.295 1.813 2.072 1.942" stroke-linejoin="round" stroke-linecap="round" stroke-width=".638"/></g><g stroke-width=".8" fill="none"><path d="M28.505.92h12.18" stroke-width=".797"/><path d="M39.13-1.152C39.26-.375 40.685.79 41.073.92c-.388.13-1.813 1.295-1.943 2.072" stroke-linejoin="round" stroke-linecap="round" stroke-width=".638"/></g><g stroke-width=".8" fill="none"><path d="M46.29 18.704l-.001-12.18" stroke-width=".797"/><path d="M44.217 8.079c.777-.13 1.942-1.555 2.072-1.943.13.388 1.295 1.813 2.072 1.942" stroke-linejoin="round" stroke-linecap="round" stroke-width=".638"/></g><g stroke-width=".8" fill="none"><path d="M28.505-21.76l12.18.001" stroke-width=".797"/><path d="M39.13-23.83c.13.776 1.555 1.942 1.943 2.071-.388.13-1.813 1.295-1.943 2.073" stroke-linejoin="round" stroke-linecap="round" stroke-width=".638"/></g><g stroke-width=".8" fill="none"><path d="M68.968 18.704V6.524" stroke-width=".797"/><path d="M66.896 8.079c.777-.13 1.942-1.555 2.072-1.943.13.388 1.295 1.813 2.072 1.942" stroke-linejoin="round" stroke-linecap="round" stroke-width=".638"/></g><g stroke-width=".8" fill="none"><path d="M28.505-44.438h12.18" stroke-width=".797"/><path d="M39.13-46.51c.13.778 1.555 1.943 1.943 2.073-.388.13-1.813 1.295-1.943 2.072" stroke-linejoin="round" stroke-linecap="round" stroke-width=".638"/></g><g stroke-width=".8" fill="none"><path d="M91.647 18.704V6.524" stroke-width=".797"/><path d="M89.574 8.079c.777-.13 1.943-1.555 2.072-1.943.13.388 1.296 1.813 2.073 1.942" stroke-linejoin="round" stroke-linecap="round" stroke-width=".638"/></g><g stroke-width=".8" fill="none"><path d="M28.505-67.117h12.18" stroke-width=".797"/><path d="M39.13-69.188c.13.777 1.555 1.942 1.943 2.072-.388.13-1.813 1.295-1.943 2.072" stroke-linejoin="round" stroke-linecap="round" stroke-width=".638"/></g><g stroke-width=".8" fill="none"><path d="M114.326 18.704V6.524" stroke-width=".797"/><path d="M112.253 8.079c.777-.13 1.943-1.555 2.072-1.943.13.388 1.295 1.813 2.072 1.942" stroke-linejoin="round" stroke-linecap="round" stroke-width=".638"/></g><g stroke-width=".8" fill="none"><path d="M51.183 114.313h12.18" stroke-width=".797"/><path d="M61.809 112.241c.13.777 1.554 1.943 1.943 2.072-.389.13-1.814 1.296-1.943 2.073" stroke-linejoin="round" stroke-linecap="round" stroke-width=".638"/></g><g stroke-width=".8" fill="none"><path d="M-67.104-3.974v-12.18" stroke-width=".797"/><path d="M-69.177-14.6c.777-.13 1.943-1.554 2.073-1.943.129.389 1.295 1.814 2.072 1.943" stroke-linejoin="round" stroke-linecap="round" stroke-width=".638"/></g><g stroke-width=".8" fill="none"><path d="M51.183 91.635h12.18" stroke-width=".797"/><path d="M61.809 89.563c.13.777 1.554 1.942 1.943 2.072-.389.13-1.814 1.295-1.943 2.072" stroke-linejoin="round" stroke-linecap="round" stroke-width=".638"/></g><g stroke-width=".8" fill="none"><path d="M-44.426-3.974v-12.18" stroke-width=".797"/><path d="M-46.498-14.6c.777-.13 1.943-1.554 2.072-1.943.13.389 1.295 1.813 2.072 1.943" stroke-linejoin="round" stroke-linecap="round" stroke-width=".638"/></g><g stroke-width=".8" fill="none"><path d="M51.183 68.956h12.18" stroke-width=".797"/><path d="M61.809 66.884c.13.777 1.554 1.943 1.943 2.072-.389.13-1.814 1.295-1.943 2.072" stroke-linejoin="round" stroke-linecap="round" stroke-width=".638"/></g><g stroke-width=".8" fill="none"><path d="M-21.747-3.974v-12.18" stroke-width=".797"/><path d="M-23.82-14.6c.778-.13 1.943-1.554 2.073-1.943.13.389 1.295 1.813 2.072 1.943" stroke-linejoin="round" stroke-linecap="round" stroke-width=".638"/></g><g stroke-width=".8" fill="none"><path d="M51.183 46.277h12.18" stroke-width=".797"/><path d="M61.809 44.205c.13.777 1.554 1.943 1.943 2.072-.389.13-1.814 1.296-1.943 2.073" stroke-linejoin="round" stroke-linecap="round" stroke-width=".638"/></g><g stroke-width=".8" fill="none"><path d="M.932-3.974v-12.18" stroke-width=".797"/><path d="M-1.14-14.6c.776-.13 1.942-1.554 2.071-1.943.13.389 1.296 1.813 2.073 1.943" stroke-linejoin="round" stroke-linecap="round" stroke-width=".638"/></g><g stroke-width=".8" fill="none"><path d="M51.183 23.598h12.18" stroke-width=".797"/><path d="M61.809 21.527c.13.777 1.554 1.942 1.943 2.072-.389.13-1.814 1.295-1.943 2.072" stroke-linejoin="round" stroke-linecap="round" stroke-width=".638"/></g><g stroke-width=".8" fill="none"><path d="M23.61-3.974v-12.18" stroke-width=".797"/><path d="M21.538-14.6c.777-.13 1.943-1.554 2.072-1.943.13.389 1.295 1.813 2.072 1.943" stroke-linejoin="round" stroke-linecap="round" stroke-width=".638"/></g><g stroke-width=".8" fill="none"><path d="M51.183.92h12.18" stroke-width=".797"/><path d="M61.809-1.152c.13.777 1.554 1.943 1.943 2.072-.389.13-1.814 1.295-1.943 2.072" stroke-linejoin="round" stroke-linecap="round" stroke-width=".638"/></g><g stroke-width=".8" fill="none"><path d="M46.29-3.974l-.001-12.18" stroke-width=".797"/><path d="M44.217-14.6c.777-.13 1.942-1.554 2.072-1.943.13.389 1.295 1.813 2.072 1.943" stroke-linejoin="round" stroke-linecap="round" stroke-width=".638"/></g><g stroke-width=".8" fill="none"><path d="M51.183-21.76l12.18.001" stroke-width=".797"/><path d="M61.809-23.83c.13.776 1.554 1.942 1.943 2.071-.389.13-1.814 1.295-1.943 2.073" stroke-linejoin="round" stroke-linecap="round" stroke-width=".638"/></g><g stroke-width=".8" fill="none"><path d="M68.968-3.974v-12.18" stroke-width=".797"/><path d="M66.896-14.6c.777-.13 1.942-1.554 2.072-1.943.13.389 1.295 1.813 2.072 1.943" stroke-linejoin="round" stroke-linecap="round" stroke-width=".638"/></g><g stroke-width=".8" fill="none"><path d="M51.183-44.438h12.18" stroke-width=".797"/><path d="M61.809-46.51c.13.778 1.554 1.943 1.943 2.073-.389.13-1.814 1.295-1.943 2.072" stroke-linejoin="round" stroke-linecap="round" stroke-width=".638"/></g><g stroke-width=".8" fill="none"><path d="M91.647-3.974v-12.18" stroke-width=".797"/><path d="M89.574-14.6c.777-.13 1.943-1.554 2.072-1.943.13.389 1.296 1.813 2.073 1.943" stroke-linejoin="round" stroke-linecap="round" stroke-width=".638"/></g><g stroke-width=".8" fill="none"><path d="M51.183-67.117h12.18" stroke-width=".797"/><path d="M61.81-69.188c.129.777 1.553 1.942 1.942 2.072-.389.13-1.814 1.295-1.943 2.072" stroke-linejoin="round" stroke-linecap="round" stroke-width=".638"/></g><g stroke-width=".8" fill="none"><path d="M114.326-3.974v-12.18" stroke-width=".797"/><path d="M112.253-14.6c.777-.13 1.943-1.554 2.072-1.943.13.389 1.295 1.813 2.072 1.943" stroke-linejoin="round" stroke-linecap="round" stroke-width=".638"/></g><g stroke-width=".8" fill="none"><path d="M73.862 114.313h12.18" stroke-width=".797"/><path d="M84.487 112.241c.13.777 1.554 1.943 1.943 2.072-.389.13-1.813 1.296-1.943 2.073" stroke-linejoin="round" stroke-linecap="round" stroke-width=".638"/></g><g stroke-width=".8" fill="none"><path d="M-67.104-26.653v-12.18" stroke-width=".797"/><path d="M-69.177-37.278c.777-.13 1.943-1.554 2.073-1.943.129.389 1.295 1.813 2.072 1.943" stroke-linejoin="round" stroke-linecap="round" stroke-width=".638"/></g><g stroke-width=".8" fill="none"><path d="M73.862 91.635h12.18" stroke-width=".797"/><path d="M84.487 89.563c.13.777 1.554 1.942 1.943 2.072-.389.13-1.813 1.295-1.943 2.072" stroke-linejoin="round" stroke-linecap="round" stroke-width=".638"/></g><g stroke-width=".8" fill="none"><path d="M-44.426-26.653v-12.18" stroke-width=".797"/><path d="M-46.498-37.278c.777-.13 1.943-1.555 2.072-1.943.13.388 1.295 1.813 2.072 1.943" stroke-linejoin="round" stroke-linecap="round" stroke-width=".638"/></g><g stroke-width=".8" fill="none"><path d="M73.862 68.956h12.18" stroke-width=".797"/><path d="M84.487 66.884c.13.777 1.554 1.943 1.943 2.072-.389.13-1.813 1.295-1.943 2.072" stroke-linejoin="round" stroke-linecap="round" stroke-width=".638"/></g><g stroke-width=".8" fill="none"><path d="M-21.747-26.653v-12.18" stroke-width=".797"/><path d="M-23.82-37.278c.778-.13 1.943-1.555 2.073-1.943.13.388 1.295 1.813 2.072 1.943" stroke-linejoin="round" stroke-linecap="round" stroke-width=".638"/></g><g stroke-width=".8" fill="none"><path d="M73.862 46.277h12.18" stroke-width=".797"/><path d="M84.487 44.205c.13.777 1.554 1.943 1.943 2.072-.389.13-1.813 1.296-1.943 2.073" stroke-linejoin="round" stroke-linecap="round" stroke-width=".638"/></g><g stroke-width=".8" fill="none"><path d="M.932-26.653v-12.18" stroke-width=".797"/><path d="M-1.14-37.278c.776-.13 1.942-1.555 2.071-1.943.13.388 1.296 1.813 2.073 1.943" stroke-linejoin="round" stroke-linecap="round" stroke-width=".638"/></g><g stroke-width=".8" fill="none"><path d="M73.862 23.598h12.18" stroke-width=".797"/><path d="M84.487 21.527c.13.777 1.554 1.942 1.943 2.072-.389.13-1.813 1.295-1.943 2.072" stroke-linejoin="round" stroke-linecap="round" stroke-width=".638"/></g><g stroke-width=".8" fill="none"><path d="M23.61-26.653v-12.18" stroke-width=".797"/><path d="M21.538-37.278c.777-.13 1.943-1.555 2.072-1.943.13.388 1.295 1.813 2.072 1.943" stroke-linejoin="round" stroke-linecap="round" stroke-width=".638"/></g><g stroke-width=".8" fill="none"><path d="M73.862.92h12.18" stroke-width=".797"/><path d="M84.487-1.152C84.617-.375 86.041.79 86.43.92c-.389.13-1.813 1.295-1.943 2.072" stroke-linejoin="round" stroke-linecap="round" stroke-width=".638"/></g><g stroke-width=".8" fill="none"><path d="M46.29-26.653l-.001-12.18" stroke-width=".797"/><path d="M44.217-37.278c.777-.13 1.942-1.555 2.072-1.943.13.388 1.295 1.813 2.072 1.942" stroke-linejoin="round" stroke-linecap="round" stroke-width=".638"/></g><g stroke-width=".8" fill="none"><path d="M73.862-21.76l12.18.001" stroke-width=".797"/><path d="M84.487-23.83c.13.776 1.554 1.942 1.943 2.071-.389.13-1.813 1.295-1.943 2.073" stroke-linejoin="round" stroke-linecap="round" stroke-width=".638"/></g><g stroke-width=".8" fill="none"><path d="M68.968-26.653v-12.18" stroke-width=".797"/><path d="M66.896-37.278c.777-.13 1.942-1.555 2.072-1.943.13.388 1.295 1.813 2.072 1.942" stroke-linejoin="round" stroke-linecap="round" stroke-width=".638"/></g><g stroke-width=".8" fill="none"><path d="M73.862-44.438h12.18" stroke-width=".797"/><path d="M84.487-46.51c.13.778 1.554 1.943 1.943 2.073-.389.13-1.813 1.295-1.943 2.072" stroke-linejoin="round" stroke-linecap="round" stroke-width=".638"/></g><g stroke-width=".8" fill="none"><path d="M91.647-26.653v-12.18" stroke-width=".797"/><path d="M89.574-37.278c.777-.13 1.943-1.555 2.072-1.943.13.388 1.296 1.813 2.073 1.942" stroke-linejoin="round" stroke-linecap="round" stroke-width=".638"/></g><g stroke-width=".8" fill="none"><path d="M73.862-67.117h12.18" stroke-width=".797"/><path d="M84.488-69.188c.129.777 1.554 1.942 1.942 2.072-.389.13-1.813 1.295-1.943 2.072" stroke-linejoin="round" stroke-linecap="round" stroke-width=".638"/></g><g stroke-width=".8" fill="none"><path d="M114.326-26.653v-12.18" stroke-width=".797"/><path d="M112.253-37.278c.777-.13 1.943-1.555 2.072-1.943.13.388 1.295 1.813 2.072 1.942" stroke-linejoin="round" stroke-linecap="round" stroke-width=".638"/></g><g stroke-width=".8" fill="none"><path d="M96.54 114.313h12.18" stroke-width=".797"/><path d="M107.166 112.241c.13.777 1.554 1.943 1.942 2.072-.388.13-1.813 1.296-1.942 2.073" stroke-linejoin="round" stroke-linecap="round" stroke-width=".638"/></g><g stroke-width=".8" fill="none"><path d="M-67.104-49.331v-12.18" stroke-width=".797"/><path d="M-69.177-59.957c.777-.13 1.943-1.554 2.073-1.942.129.388 1.295 1.813 2.072 1.942" stroke-linejoin="round" stroke-linecap="round" stroke-width=".638"/></g><g stroke-width=".8" fill="none"><path d="M96.54 91.635h12.18" stroke-width=".797"/><path d="M107.166 89.563c.13.777 1.554 1.942 1.942 2.072-.388.13-1.813 1.295-1.942 2.072" stroke-linejoin="round" stroke-linecap="round" stroke-width=".638"/></g><g stroke-width=".8" fill="none"><path d="M-44.426-49.331v-12.18" stroke-width=".797"/><path d="M-46.498-59.957c.777-.13 1.943-1.554 2.072-1.943.13.389 1.295 1.814 2.072 1.943" stroke-linejoin="round" stroke-linecap="round" stroke-width=".638"/></g><g stroke-width=".8" fill="none"><path d="M96.54 68.956h12.18" stroke-width=".797"/><path d="M107.166 66.884c.13.777 1.554 1.943 1.942 2.072-.388.13-1.813 1.295-1.942 2.072" stroke-linejoin="round" stroke-linecap="round" stroke-width=".638"/></g><g stroke-width=".8" fill="none"><path d="M-21.747-49.331v-12.18" stroke-width=".797"/><path d="M-23.82-59.957c.778-.13 1.943-1.554 2.073-1.943.13.389 1.295 1.814 2.072 1.943" stroke-linejoin="round" stroke-linecap="round" stroke-width=".638"/></g><g stroke-width=".8" fill="none"><path d="M96.54 46.277h12.18" stroke-width=".797"/><path d="M107.166 44.205c.13.777 1.554 1.943 1.942 2.072-.388.13-1.813 1.296-1.942 2.073" stroke-linejoin="round" stroke-linecap="round" stroke-width=".638"/></g><g stroke-width=".8" fill="none"><path d="M.932-49.331v-12.18" stroke-width=".797"/><path d="M-1.14-59.957C-.365-60.087.801-61.51.93-61.9c.13.389 1.296 1.814 2.073 1.943" stroke-linejoin="round" stroke-linecap="round" stroke-width=".638"/></g><g stroke-width=".8" fill="none"><path d="M96.54 23.598h12.18" stroke-width=".797"/><path d="M107.166 21.527c.13.777 1.554 1.942 1.942 2.072-.388.13-1.813 1.295-1.942 2.072" stroke-linejoin="round" stroke-linecap="round" stroke-width=".638"/></g><g stroke-width=".8" fill="none"><path d="M23.61-49.331v-12.18" stroke-width=".797"/><path d="M21.538-59.957c.777-.13 1.943-1.554 2.072-1.943.13.389 1.295 1.814 2.072 1.943" stroke-linejoin="round" stroke-linecap="round" stroke-width=".638"/></g><g stroke-width=".8" fill="none"><path d="M96.54.92h12.18" stroke-width=".797"/><path d="M107.166-1.152c.13.777 1.554 1.943 1.942 2.072-.388.13-1.813 1.295-1.942 2.072" stroke-linejoin="round" stroke-linecap="round" stroke-width=".638"/></g><g stroke-width=".8" fill="none"><path d="M46.29-49.331l-.001-12.18" stroke-width=".797"/><path d="M44.217-59.957c.777-.13 1.942-1.554 2.072-1.943.13.389 1.295 1.814 2.072 1.943" stroke-linejoin="round" stroke-linecap="round" stroke-width=".638"/></g><g stroke-width=".8" fill="none"><path d="M96.54-21.76l12.18.001" stroke-width=".797"/><path d="M107.166-23.83c.13.776 1.554 1.942 1.942 2.071-.388.13-1.813 1.295-1.942 2.073" stroke-linejoin="round" stroke-linecap="round" stroke-width=".638"/></g><g stroke-width=".8" fill="none"><path d="M68.968-49.331v-12.18" stroke-width=".797"/><path d="M66.896-59.957c.777-.13 1.942-1.554 2.072-1.943.13.389 1.295 1.814 2.072 1.943" stroke-linejoin="round" stroke-linecap="round" stroke-width=".638"/></g><g stroke-width=".8" fill="none"><path d="M96.54-44.438h12.18" stroke-width=".797"/><path d="M107.166-46.51c.13.778 1.554 1.943 1.942 2.073-.388.13-1.813 1.295-1.942 2.072" stroke-linejoin="round" stroke-linecap="round" stroke-width=".638"/></g><g stroke-width=".8" fill="none"><path d="M91.647-49.331v-12.18" stroke-width=".797"/><path d="M89.574-59.957c.777-.13 1.943-1.554 2.072-1.943.13.389 1.296 1.814 2.073 1.943" stroke-linejoin="round" stroke-linecap="round" stroke-width=".638"/></g><g stroke-width=".8" fill="none"><path d="M96.54-67.117h12.18" stroke-width=".797"/><path d="M107.166-69.188c.13.777 1.554 1.942 1.942 2.072-.388.13-1.813 1.295-1.942 2.072" stroke-linejoin="round" stroke-linecap="round" stroke-width=".638"/></g><g stroke-width=".8" fill="none"><path d="M114.326-49.331v-12.18" stroke-width=".797"/><path d="M112.253-59.957c.777-.13 1.943-1.554 2.072-1.943.13.389 1.295 1.813 2.072 1.943" stroke-linejoin="round" stroke-linecap="round" stroke-width=".638"/></g><g stroke-width=".8" fill="none"><path d="M-63.643 110.852l15.255-15.255" stroke-width=".797"/><path d="M-50.952 95.23c.64.459 2.472.275 2.839.092-.184.367-.367 2.198.091 2.84" stroke-linejoin="round" stroke-linecap="round" stroke-width=".638"/></g><g stroke-width=".8" fill="none"><path d="M-63.643 88.173l15.255-15.255" stroke-width=".797"/><path d="M-50.952 72.552c.64.458 2.472.275 2.839.092-.184.366-.367 2.198.091 2.839" stroke-linejoin="round" stroke-linecap="round" stroke-width=".638"/></g><g stroke-width=".8" fill="none"><path d="M-63.643 65.495l15.255-15.255" stroke-width=".797"/><path d="M-50.952 49.874c.64.457 2.472.274 2.838.091-.183.366-.366 2.198.092 2.84" stroke-linejoin="round" stroke-linecap="round" stroke-width=".638"/></g><g stroke-width=".8" fill="none"><path d="M-63.643 42.816l15.255-15.255" stroke-width=".797"/><path d="M-50.952 27.195c.64.458 2.472.275 2.838.092-.183.366-.366 2.197.092 2.838" stroke-linejoin="round" stroke-linecap="round" stroke-width=".638"/></g><g stroke-width=".8" fill="none"><path d="M-63.643 20.137l15.255-15.254" stroke-width=".797"/><path d="M-50.953 4.516c.641.458 2.473.275 2.84.092-.184.366-.367 2.198.09 2.839" stroke-linejoin="round" stroke-linecap="round" stroke-width=".638"/></g><g stroke-width=".8" fill="none"><path d="M-63.643-2.541l15.255-15.255" stroke-width=".797"/><path d="M-50.953-18.162c.641.458 2.473.275 2.84.092-.184.366-.367 2.197.09 2.838" stroke-linejoin="round" stroke-linecap="round" stroke-width=".638"/></g><g stroke-width=".8" fill="none"><path d="M-63.644-25.22l15.255-15.254" stroke-width=".797"/><path d="M-50.953-40.84c.641.457 2.473.274 2.84.091-.184.366-.367 2.198.09 2.839" stroke-linejoin="round" stroke-linecap="round" stroke-width=".638"/></g><g stroke-width=".8" fill="none"><path d="M-63.644-47.898l15.255-15.255" stroke-width=".797"/><path d="M-50.953-63.52c.641.459 2.473.276 2.839.092-.183.367-.366 2.198.092 2.84" stroke-linejoin="round" stroke-linecap="round" stroke-width=".638"/></g><g stroke-width=".8" fill="none"><path d="M-40.964 110.852l15.255-15.255" stroke-width=".797"/><path d="M-28.274 95.23c.641.459 2.473.276 2.84.092-.184.367-.367 2.198.09 2.84" stroke-linejoin="round" stroke-linecap="round" stroke-width=".638"/></g><g stroke-width=".8" fill="none"><path d="M-40.964 88.173L-25.71 72.92" stroke-width=".797"/><path d="M-28.274 72.552c.641.458 2.473.275 2.84.092-.184.366-.367 2.198.09 2.839" stroke-linejoin="round" stroke-linecap="round" stroke-width=".638"/></g><g stroke-width=".8" fill="none"><path d="M-40.964 65.495L-25.71 50.24" stroke-width=".797"/><path d="M-28.274 49.874c.641.458 2.473.274 2.839.091-.183.367-.366 2.198.092 2.84" stroke-linejoin="round" stroke-linecap="round" stroke-width=".638"/></g><g stroke-width=".8" fill="none"><path d="M-40.965 42.816l15.255-15.255" stroke-width=".797"/><path d="M-28.274 27.195c.641.458 2.473.275 2.839.092-.183.366-.366 2.198.091 2.839" stroke-linejoin="round" stroke-linecap="round" stroke-width=".638"/></g><g stroke-width=".8" fill="none"><path d="M-40.965 20.138L-25.71 4.883" stroke-width=".797"/><path d="M-28.274 4.517c.641.457 2.473.274 2.839.091-.183.366-.366 2.198.091 2.84" stroke-linejoin="round" stroke-linecap="round" stroke-width=".638"/></g><g stroke-width=".8" fill="none"><path d="M-40.965-2.541l15.255-15.255" stroke-width=".797"/><path d="M-28.274-18.162c.64.458 2.472.275 2.839.092-.183.366-.367 2.197.091 2.839" stroke-linejoin="round" stroke-linecap="round" stroke-width=".638"/></g><g stroke-width=".8" fill="none"><path d="M-40.965-25.22l15.255-15.254" stroke-width=".797"/><path d="M-28.274-40.84c.64.457 2.472.274 2.839.091-.183.366-.367 2.198.091 2.839" stroke-linejoin="round" stroke-linecap="round" stroke-width=".638"/></g><g stroke-width=".8" fill="none"><path d="M-40.965-47.898l15.255-15.255" stroke-width=".797"/><path d="M-28.274-63.519c.64.458 2.472.275 2.839.092-.184.366-.367 2.197.091 2.839" stroke-linejoin="round" stroke-linecap="round" stroke-width=".638"/></g><g stroke-width=".8" fill="none"><path d="M-18.286 110.852L-3.03 95.597" stroke-width=".797"/><path d="M-5.595 95.23c.64.459 2.472.276 2.839.092-.183.367-.367 2.198.091 2.84" stroke-linejoin="round" stroke-linecap="round" stroke-width=".638"/></g><g stroke-width=".8" fill="none"><path d="M-18.286 88.173L-3.03 72.92" stroke-width=".797"/><path d="M-5.595 72.552c.64.458 2.472.275 2.839.092-.184.366-.367 2.198.091 2.839" stroke-linejoin="round" stroke-linecap="round" stroke-width=".638"/></g><g stroke-width=".8" fill="none"><path d="M-18.286 65.495L-3.03 50.24" stroke-width=".797"/><path d="M-5.595 49.874c.64.458 2.472.275 2.839.091-.184.367-.367 2.198.091 2.84" stroke-linejoin="round" stroke-linecap="round" stroke-width=".638"/></g><g stroke-width=".8" fill="none"><path d="M-18.286 42.816l15.255-15.254" stroke-width=".797"/><path d="M-5.595 27.195c.64.458 2.472.275 2.838.092-.183.366-.366 2.198.092 2.839" stroke-linejoin="round" stroke-linecap="round" stroke-width=".638"/></g><g stroke-width=".8" fill="none"><path d="M-18.286 20.138L-3.031 4.883" stroke-width=".797"/><path d="M-5.596 4.517c.642.458 2.473.274 2.84.091-.184.367-.367 2.198.09 2.84" stroke-linejoin="round" stroke-linecap="round" stroke-width=".638"/></g><g stroke-width=".8" fill="none"><path d="M-18.286-2.54l15.255-15.256" stroke-width=".797"/><path d="M-5.596-18.162c.642.458 2.473.275 2.84.092-.184.366-.367 2.198.09 2.839" stroke-linejoin="round" stroke-linecap="round" stroke-width=".638"/></g><g stroke-width=".8" fill="none"><path d="M-18.286-25.22l15.254-15.254" stroke-width=".797"/><path d="M-5.596-40.84c.641.457 2.473.274 2.84.091-.184.367-.367 2.198.09 2.84" stroke-linejoin="round" stroke-linecap="round" stroke-width=".638"/></g><g stroke-width=".8" fill="none"><path d="M-18.287-47.898l15.255-15.255" stroke-width=".797"/><path d="M-5.596-63.519c.641.458 2.473.275 2.84.092-.184.366-.367 2.198.09 2.839" stroke-linejoin="round" stroke-linecap="round" stroke-width=".638"/></g><g stroke-width=".8" fill="none"><path d="M4.393 110.852l15.255-15.255" stroke-width=".797"/><path d="M17.083 95.231c.642.458 2.473.275 2.84.092-.184.366-.367 2.197.09 2.838" stroke-linejoin="round" stroke-linecap="round" stroke-width=".638"/></g><g stroke-width=".8" fill="none"><path d="M4.393 88.174l15.254-15.255" stroke-width=".797"/><path d="M17.083 72.552c.641.458 2.473.275 2.84.092-.184.366-.367 2.198.09 2.839" stroke-linejoin="round" stroke-linecap="round" stroke-width=".638"/></g><g stroke-width=".8" fill="none"><path d="M4.393 65.495L19.647 50.24" stroke-width=".797"/><path d="M17.083 49.874c.641.458 2.473.275 2.84.092-.184.366-.367 2.197.09 2.838" stroke-linejoin="round" stroke-linecap="round" stroke-width=".638"/></g><g stroke-width=".8" fill="none"><path d="M4.393 42.816l15.254-15.254" stroke-width=".797"/><path d="M17.083 27.195c.641.458 2.473.275 2.839.092-.183.366-.366 2.198.092 2.839" stroke-linejoin="round" stroke-linecap="round" stroke-width=".638"/></g><g stroke-width=".8" fill="none"><path d="M4.392 20.138L19.647 4.883" stroke-width=".797"/><path d="M17.083 4.517c.641.458 2.473.275 2.839.091-.183.367-.366 2.198.092 2.84" stroke-linejoin="round" stroke-linecap="round" stroke-width=".638"/></g><g stroke-width=".8" fill="none"><path d="M4.392-2.54l15.255-15.255" stroke-width=".797"/><path d="M17.083-18.162c.641.458 2.473.275 2.839.092-.183.366-.366 2.198.091 2.839" stroke-linejoin="round" stroke-linecap="round" stroke-width=".638"/></g><g stroke-width=".8" fill="none"><path d="M4.392-25.22l15.255-15.254" stroke-width=".797"/><path d="M17.083-40.84c.64.458 2.472.274 2.839.091-.183.367-.367 2.198.091 2.84" stroke-linejoin="round" stroke-linecap="round" stroke-width=".638"/></g><g stroke-width=".8" fill="none"><path d="M4.392-47.898l15.255-15.255" stroke-width=".797"/><path d="M17.083-63.519c.64.458 2.472.275 2.839.092-.184.366-.367 2.198.091 2.839" stroke-linejoin="round" stroke-linecap="round" stroke-width=".638"/></g><g stroke-width=".8" fill="none"><path d="M27.071 110.852l15.255-15.255" stroke-width=".797"/><path d="M39.762 95.231c.641.458 2.473.275 2.839.092-.183.366-.366 2.197.091 2.839" stroke-linejoin="round" stroke-linecap="round" stroke-width=".638"/></g><g stroke-width=".8" fill="none"><path d="M27.071 88.174l15.255-15.255" stroke-width=".797"/><path d="M39.762 72.552c.64.458 2.472.275 2.839.092-.183.366-.367 2.198.091 2.839" stroke-linejoin="round" stroke-linecap="round" stroke-width=".638"/></g><g stroke-width=".8" fill="none"><path d="M27.071 65.495L42.326 50.24" stroke-width=".797"/><path d="M39.762 49.874c.64.458 2.472.275 2.839.092-.184.366-.367 2.197.091 2.838" stroke-linejoin="round" stroke-linecap="round" stroke-width=".638"/></g><g stroke-width=".8" fill="none"><path d="M27.071 42.817l15.255-15.255" stroke-width=".797"/><path d="M39.762 27.195c.64.458 2.472.275 2.839.092-.184.366-.367 2.198.091 2.839" stroke-linejoin="round" stroke-linecap="round" stroke-width=".638"/></g><g stroke-width=".8" fill="none"><path d="M27.071 20.138L42.326 4.883" stroke-width=".797"/><path d="M39.761 4.517c.642.458 2.473.275 2.84.092-.184.366-.367 2.197.091 2.838" stroke-linejoin="round" stroke-linecap="round" stroke-width=".638"/></g><g stroke-width=".8" fill="none"><path d="M27.07-2.54l15.256-15.255" stroke-width=".797"/><path d="M39.761-18.162c.642.458 2.473.275 2.84.092-.184.366-.367 2.198.09 2.839" stroke-linejoin="round" stroke-linecap="round" stroke-width=".638"/></g><g stroke-width=".8" fill="none"><path d="M27.07-25.22l15.256-15.254" stroke-width=".797"/><path d="M39.761-40.84c.641.458 2.473.275 2.84.091-.184.367-.367 2.198.09 2.84" stroke-linejoin="round" stroke-linecap="round" stroke-width=".638"/></g><g stroke-width=".8" fill="none"><path d="M27.07-47.898l15.256-15.254" stroke-width=".797"/><path d="M39.761-63.519c.641.458 2.473.275 2.84.092-.184.366-.367 2.198.09 2.839" stroke-linejoin="round" stroke-linecap="round" stroke-width=".638"/></g><g stroke-width=".8" fill="none"><path d="M49.75 110.852l15.255-15.255" stroke-width=".797"/><path d="M62.44 95.231c.642.458 2.473.275 2.84.092-.184.366-.367 2.198.091 2.839" stroke-linejoin="round" stroke-linecap="round" stroke-width=".638"/></g><g stroke-width=".8" fill="none"><path d="M49.75 88.174l15.255-15.255" stroke-width=".797"/><path d="M62.44 72.553c.641.457 2.473.274 2.84.091-.184.366-.367 2.198.09 2.84" stroke-linejoin="round" stroke-linecap="round" stroke-width=".638"/></g><g stroke-width=".8" fill="none"><path d="M49.75 65.495L65.004 50.24" stroke-width=".797"/><path d="M62.44 49.874c.641.458 2.473.275 2.84.092-.184.366-.367 2.197.09 2.838" stroke-linejoin="round" stroke-linecap="round" stroke-width=".638"/></g><g stroke-width=".8" fill="none"><path d="M49.75 42.817l15.254-15.255" stroke-width=".797"/><path d="M62.44 27.196c.641.457 2.473.274 2.84.091-.184.366-.367 2.198.09 2.839" stroke-linejoin="round" stroke-linecap="round" stroke-width=".638"/></g><g stroke-width=".8" fill="none"><path d="M49.75 20.138L65.004 4.883" stroke-width=".797"/><path d="M62.44 4.517c.641.458 2.473.275 2.839.092-.183.366-.366 2.197.092 2.838" stroke-linejoin="round" stroke-linecap="round" stroke-width=".638"/></g><g stroke-width=".8" fill="none"><path d="M49.75-2.54l15.254-15.255" stroke-width=".797"/><path d="M62.44-18.161c.641.457 2.473.274 2.839.091-.183.366-.366 2.198.091 2.839" stroke-linejoin="round" stroke-linecap="round" stroke-width=".638"/></g><g stroke-width=".8" fill="none"><path d="M49.75-25.22l15.254-15.254" stroke-width=".797"/><path d="M62.44-40.84c.64.458 2.472.275 2.839.092-.183.366-.367 2.197.091 2.838" stroke-linejoin="round" stroke-linecap="round" stroke-width=".638"/></g><g stroke-width=".8" fill="none"><path d="M49.75-47.898l15.254-15.254" stroke-width=".797"/><path d="M62.44-63.519c.64.458 2.472.275 2.839.092-.183.366-.367 2.198.091 2.839" stroke-linejoin="round" stroke-linecap="round" stroke-width=".638"/></g><g stroke-width=".8" fill="none"><path d="M72.429 110.852l15.254-15.254" stroke-width=".797"/><path d="M85.119 95.231c.641.458 2.473.275 2.839.092-.183.366-.366 2.198.091 2.839" stroke-linejoin="round" stroke-linecap="round" stroke-width=".638"/></g><g stroke-width=".8" fill="none"><path d="M72.428 88.174l15.255-15.255" stroke-width=".797"/><path d="M85.119 72.553c.641.458 2.473.274 2.839.091-.183.367-.366 2.198.091 2.84" stroke-linejoin="round" stroke-linecap="round" stroke-width=".638"/></g><g stroke-width=".8" fill="none"><path d="M72.428 65.495L87.683 50.24" stroke-width=".797"/><path d="M85.119 49.874c.64.458 2.472.275 2.839.092-.183.366-.367 2.198.091 2.839" stroke-linejoin="round" stroke-linecap="round" stroke-width=".638"/></g><g stroke-width=".8" fill="none"><path d="M72.428 42.817l15.255-15.255" stroke-width=".797"/><path d="M85.119 27.196c.64.457 2.472.274 2.839.091-.184.366-.367 2.198.091 2.839" stroke-linejoin="round" stroke-linecap="round" stroke-width=".638"/></g><g stroke-width=".8" fill="none"><path d="M72.428 20.138L87.683 4.883" stroke-width=".797"/><path d="M85.119 4.517c.64.458 2.472.275 2.838.092-.183.366-.366 2.198.092 2.839" stroke-linejoin="round" stroke-linecap="round" stroke-width=".638"/></g><g stroke-width=".8" fill="none"><path d="M72.428-2.54l15.255-15.255" stroke-width=".797"/><path d="M85.119-18.161c.64.457 2.472.274 2.838.091-.183.366-.366 2.198.092 2.84" stroke-linejoin="round" stroke-linecap="round" stroke-width=".638"/></g><g stroke-width=".8" fill="none"><path d="M72.428-25.219l15.255-15.255" stroke-width=".797"/><path d="M85.118-40.84c.641.458 2.473.275 2.84.092-.184.366-.367 2.198.09 2.839" stroke-linejoin="round" stroke-linecap="round" stroke-width=".638"/></g><g stroke-width=".8" fill="none"><path d="M72.428-47.898l15.254-15.254" stroke-width=".797"/><path d="M85.118-63.519c.641.458 2.473.275 2.84.092-.184.366-.367 2.198.09 2.839" stroke-linejoin="round" stroke-linecap="round" stroke-width=".638"/></g><g stroke-width=".8" fill="none"><path d="M95.107 110.853l15.255-15.255" stroke-width=".797"/><path d="M107.798 95.231c.64.458 2.472.275 2.838.092-.183.366-.366 2.198.092 2.839" stroke-linejoin="round" stroke-linecap="round" stroke-width=".638"/></g><g stroke-width=".8" fill="none"><path d="M95.107 88.174l15.255-15.255" stroke-width=".797"/><path d="M107.797 72.553c.641.458 2.473.275 2.84.091-.184.367-.367 2.198.09 2.84" stroke-linejoin="round" stroke-linecap="round" stroke-width=".638"/></g><g stroke-width=".8" fill="none"><path d="M95.107 65.496l15.255-15.255" stroke-width=".797"/><path d="M107.797 49.874c.641.458 2.473.275 2.84.092-.184.366-.367 2.198.09 2.839" stroke-linejoin="round" stroke-linecap="round" stroke-width=".638"/></g><g stroke-width=".8" fill="none"><path d="M95.107 42.817l15.254-15.255" stroke-width=".797"/><path d="M107.797 27.196c.641.458 2.473.274 2.84.091-.184.367-.367 2.198.09 2.84" stroke-linejoin="round" stroke-linecap="round" stroke-width=".638"/></g><g stroke-width=".8" fill="none"><path d="M95.107 20.138L110.36 4.883" stroke-width=".797"/><path d="M107.797 4.517c.641.458 2.473.275 2.84.092-.184.366-.367 2.198.09 2.839" stroke-linejoin="round" stroke-linecap="round" stroke-width=".638"/></g><g stroke-width=".8" fill="none"><path d="M95.107-2.54l15.254-15.255" stroke-width=".797"/><path d="M107.797-18.161c.641.458 2.473.274 2.839.091-.183.367-.366 2.198.092 2.84" stroke-linejoin="round" stroke-linecap="round" stroke-width=".638"/></g><g stroke-width=".8" fill="none"><path d="M95.106-25.219l15.255-15.255" stroke-width=".797"/><path d="M107.797-40.84c.641.458 2.473.275 2.839.092-.183.366-.366 2.198.091 2.839" stroke-linejoin="round" stroke-linecap="round" stroke-width=".638"/></g><g stroke-width=".8" fill="none"><path d="M95.106-47.897l15.255-15.255" stroke-width=".797"/><path d="M107.797-63.518c.64.458 2.472.274 2.839.091-.183.367-.367 2.198.091 2.84" stroke-linejoin="round" stroke-linecap="round" stroke-width=".638"/></g></g></svg>