<svg xmlns="http://www.w3.org/2000/svg" width="321.791" height="121.477" viewBox="-72 -72 241.343 91.107"><g stroke-width=".4" stroke="#000" stroke-miterlimit="10"><path d="M-71.8 18.908V-71.8h7.086v90.71zm7.086-90.709" fill="#ccf" stroke-width=".399"/><path d="M-71.8 16.073l7.086-28.346M-71.8 16.073l7.086-56.692M-71.8 16.073l7.086-85.039M-71.8-12.273l7.086 28.346M-71.8-12.273l7.086-28.346M-71.8-12.273l7.086-56.693M-71.8-40.62l7.086 56.693M-71.8-40.62l7.086 28.347M-71.8-40.62l7.086-28.346m-7.086 0l7.086 85.04m-7.086-85.04l7.086 56.693M-71.8-68.966l7.086 28.347" fill="none" stroke-width=".399"/><path d="M-64.714 16.073h226.771M-64.714-12.273h170.079" fill="none" stroke="#00f" stroke-width="4.981"/><path d="M105.365-12.273h56.692" fill="none" stroke="red" stroke-width="4.981"/><path d="M-64.714-40.62h226.771M-64.714-68.966H48.672" fill="none" stroke="#00f" stroke-width="4.981"/><path d="M48.672-68.966h113.385" fill="none" stroke="red" stroke-width="4.981"/><path d="M162.057 18.908V-71.8h7.087v90.71zm7.087-90.709" fill="#ccf" stroke-width=".399"/><path d="M162.057 16.073l7.087-28.346m-7.087 28.346l7.087-56.692m-7.087 56.692l7.087-85.039m-7.087 56.693l7.087 28.346m-7.087-28.346l7.087-28.346m-7.087 28.346l7.087-56.693m-7.087 28.346l7.087 56.693m-7.087-56.693l7.087 28.347m-7.087-28.347l7.087-28.346m-7.087 0l7.087 85.04m-7.087-85.04l7.087 56.693m-7.087-56.693l7.087 28.347" fill="none" stroke-width=".399"/></g></svg>