<svg xmlns="http://www.w3.org/2000/svg" width="189.508" height="121.477" viewBox="-72 -72 142.131 91.107"><g stroke-width=".4" stroke="#000" stroke-miterlimit="10"><path d="M-71.8 18.908V-71.8h28.346v90.71zM-43.455-71.8" fill="red" stroke-width=".399"/><path d="M-71.8 16.073l28.346-28.346M-71.8 16.073l28.346-56.692M-71.8 16.073l28.346-85.039M-71.8-12.273l28.346 28.346M-71.8-12.273l28.346-28.346M-71.8-12.273l28.346-56.693M-71.8-40.62l28.346 56.693M-71.8-40.62l28.346 28.347M-71.8-40.62l28.346-28.346m-28.346 0l28.346 85.04M-71.8-68.966l28.346 56.693M-71.8-68.966l28.346 28.347" fill="none" stroke-width=".399"/><path d="M-43.454 16.073h28.346m-28.346-28.346h21.26" fill="none" stroke="#00f" stroke-width="4.981"/><path d="M-22.194-12.273h7.086" fill="none" stroke="#ccf" stroke-width="4.981"/><path d="M-43.454-40.62h28.346m-28.346-28.346h14.173" fill="none" stroke="#00f" stroke-width="4.981"/><path d="M-29.281-68.966h14.173" fill="none" stroke="#ccf" stroke-width="4.981"/><path d="M-15.108 18.908V-71.8H13.24v90.71zM13.24-71.8" fill="red" stroke-width=".399"/><path d="M-15.108 16.073L13.24-12.273m-28.348 28.346L13.24-40.619m-28.348 56.692L13.24-68.966m-28.348 56.693L13.24 16.073m-28.348-28.346L13.24-40.619m-28.348 28.346L13.24-68.966M-15.108-40.62L13.24 16.074M-15.108-40.62L13.24-12.272M-15.108-40.62L13.24-68.965m-28.348-.001l28.347 85.04m-28.347-85.04L13.24-12.273m-28.348-56.693L13.24-40.619" fill="none" stroke-width=".399"/><path d="M13.239 16.073h28.346M13.239-12.273h21.26" fill="none" stroke="#00f" stroke-width="4.981"/><path d="M34.498-12.273h7.087" fill="none" stroke="#ccf" stroke-width="4.981"/><path d="M13.239-40.62h28.346M13.239-68.966h14.173" fill="none" stroke="#00f" stroke-width="4.981"/><path d="M27.412-68.966h14.173" fill="none" stroke="#ccf" stroke-width="4.981"/><path d="M41.585 18.908V-71.8h28.346v90.71zM69.931-71.8" fill="red" stroke-width=".399"/><path d="M41.585 16.073l28.346-28.346M41.585 16.073l28.346-56.692M41.585 16.073l28.346-85.039M41.585-12.273l28.346 28.346M41.585-12.273l28.346-28.346M41.585-12.273l28.346-56.693M41.585-40.62l28.346 56.693M41.585-40.62l28.346 28.347M41.585-40.62l28.346-28.346m-28.346 0l28.346 85.04m-28.346-85.04l28.346 56.693M41.585-68.966l28.346 28.347" fill="none" stroke-width=".399"/></g></svg>