<svg xmlns="http://www.w3.org/2000/svg" width="416.279" height="121.477" viewBox="-72 -72 312.209 91.107"><g stroke-width=".4" stroke="#000" stroke-miterlimit="10"><path d="M-71.8 18.908V-71.8h28.346v90.71zM-43.455-71.8" fill="#ccf" stroke-width=".399"/><path d="M-71.8 16.073l28.346-28.346M-71.8 16.073l28.346-56.692M-71.8 16.073l28.346-85.039M-71.8-12.273l28.346 28.346M-71.8-12.273l28.346-28.346M-71.8-12.273l28.346-56.693M-71.8-40.62l28.346 56.693M-71.8-40.62l28.346 28.347M-71.8-40.62l28.346-28.346m-28.346 0l28.346 85.04M-71.8-68.966l28.346 56.693M-71.8-68.966l28.346 28.347" fill="none" stroke-width=".399"/><path d="M-43.454 16.073H69.93M-43.454-12.273h85.039" fill="none" stroke="red" stroke-width="4.981"/><path d="M41.585-12.273h28.346" fill="none" stroke="#fcc" stroke-width="4.981"/><path d="M-43.454-40.62H69.93M-43.454-68.966h56.693" fill="none" stroke="red" stroke-width="4.981"/><path d="M13.239-68.966H69.93" fill="none" stroke="#fcc" stroke-width="4.981"/><path d="M69.932 18.908V-71.8h28.346v90.71zM98.278-71.8" fill="#ccf" stroke-width=".399"/><path d="M69.932 16.073l28.346-28.346M69.932 16.073l28.346-56.692M69.932 16.073l28.346-85.039M69.932-12.273l28.346 28.346M69.932-12.273l28.346-28.346M69.932-12.273l28.346-56.693M69.932-40.62l28.346 56.693M69.932-40.62l28.346 28.347M69.932-40.62l28.346-28.346m-28.346 0l28.346 85.04m-28.346-85.04l28.346 56.693M69.932-68.966l28.346 28.347" fill="none" stroke-width=".399"/><path d="M98.278 16.073h113.386M98.278-12.273h85.04" fill="none" stroke="red" stroke-width="4.981"/><path d="M183.317-12.273h28.347" fill="none" stroke="#fcc" stroke-width="4.981"/><path d="M98.278-40.62h113.386M98.278-68.966h56.693" fill="none" stroke="red" stroke-width="4.981"/><path d="M154.97-68.966h56.694" fill="none" stroke="#fcc" stroke-width="4.981"/><path d="M211.664 18.908V-71.8h28.346v90.71zM240.01-71.8" fill="#ccf" stroke-width=".399"/><path d="M211.664 16.073l28.346-28.346m-28.346 28.346l28.346-56.692m-28.346 56.692l28.346-85.039m-28.346 56.693l28.346 28.346m-28.346-28.346l28.346-28.346m-28.346 28.346l28.346-56.693M211.664-40.62l28.346 56.693M211.664-40.62l28.346 28.347M211.664-40.62l28.346-28.346m-28.346 0l28.346 85.04m-28.346-85.04l28.346 56.693m-28.346-56.693l28.346 28.347" fill="none" stroke-width=".399"/></g></svg>