<svg xmlns="http://www.w3.org/2000/svg" width="280.216" height="38.327" viewBox="-72 -72 210.162 28.745"><path d="M-60.462-57.628a5.67 5.67 0 10-11.339 0 5.67 5.67 0 0011.339 0zm31.181 0a8.504 8.504 0 10-17.008 0 8.504 8.504 0 0017.008 0zm34.016 0C4.735-65.455-1.611-71.8-9.44-71.8c-7.827 0-14.173 6.346-14.173 14.173 0 7.828 6.346 14.174 14.173 14.174 7.828 0 14.174-6.346 14.174-14.174zm17.007 0a2.835 2.835 0 10-5.669 0 2.835 2.835 0 005.67 0zm36.851 0c0-6.262-5.077-11.338-11.339-11.338-6.262 0-11.338 5.076-11.338 11.338 0 6.263 5.076 11.339 11.338 11.339s11.339-5.076 11.339-11.339zm22.677 0a5.67 5.67 0 10-11.338 0 5.67 5.67 0 0011.338 0zm31.181 0a8.504 8.504 0 10-17.008 0 8.504 8.504 0 0017.008 0zm25.512 0a5.67 5.67 0 10-11.339 0 5.67 5.67 0 0011.339 0zm-5.67 0" stroke-width=".399" fill="#8080ff" stroke="#000" stroke-miterlimit="10"/></svg>