<svg xmlns="http://www.w3.org/2000/svg" width="280.216" height="15.649" viewBox="-72 -72 210.162 11.737"><path d="M-60.462-66.131a5.67 5.67 0 10-11.339 0 5.67 5.67 0 0011.339 0zm28.347 0a5.67 5.67 0 10-11.34 0 5.67 5.67 0 0011.34 0zm28.346 0a5.67 5.67 0 10-11.339 0 5.67 5.67 0 0011.339 0zm28.347 0a5.67 5.67 0 10-11.34 0 5.67 5.67 0 0011.34 0zm28.346 0a5.67 5.67 0 10-11.339 0 5.67 5.67 0 0011.339 0zm28.346 0a5.67 5.67 0 10-11.338 0 5.67 5.67 0 0011.338 0zm28.347 0a5.67 5.67 0 10-11.339 0 5.67 5.67 0 0011.338 0zm28.346 0a5.67 5.67 0 10-11.339 0 5.67 5.67 0 0011.339 0zm-5.67 0" stroke-width=".399" fill="#8080ff" stroke="#000" stroke-miterlimit="10"/></svg>