<svg xmlns="http://www.w3.org/2000/svg" width="192.531" height="192.531" viewBox="-72 -72 144.398 144.398"><g stroke-width=".399" stroke="#000" stroke-miterlimit="10" fill="none"><path d="M-34.001-63.7a4.5 4.5 0 10-9 0 4.5 4.5 0 009 0zm-4.5 0"/><path d="M-37.601-63.7a.9.9 0 10-1.8 0 .9.9 0 001.8 0zM-52.9-48.4a4.5 4.5 0 10-9 0 4.5 4.5 0 009 0zm-4.5 0"/><path d="M-56.5-48.4a.9.9 0 10-1.801 0 .9.9 0 001.8 0zm47.7 27.899a4.5 4.5 0 10-9 0 4.5 4.5 0 009 0zm-4.5 0"/><path d="M-12.4-20.501a.9.9 0 10-1.8 0 .9.9 0 001.8 0zm-4.5-18.9a4.5 4.5 0 10-9 0 4.5 4.5 0 009 0zm-4.5 0"/><path d="M-20.5-39.401a.9.9 0 10-1.8 0 .9.9 0 001.8 0zM-44.8-9.7a4.5 4.5 0 10-9 0 4.5 4.5 0 009 0zm-4.5 0"/><path d="M-48.4-9.7a.9.9 0 10-1.801 0 .9.9 0 001.8 0zm44.999 23.4a4.5 4.5 0 10-9 0 4.5 4.5 0 009 0zm-4.5 0"/><path d="M-7.001 13.7a.9.9 0 10-1.8 0 .9.9 0 001.8 0zM22.7 16.4a4.5 4.5 0 10-9-.001 4.5 4.5 0 009 0zm-4.5 0"/><path d="M19.1 16.4a.9.9 0 10-1.8 0 .9.9 0 001.8 0zm7.2-44.101a4.5 4.5 0 10-9 0 4.5 4.5 0 009 0zm-4.5 0"/><path d="M22.7-27.701a.9.9 0 10-1.8 0 .9.9 0 001.8 0zM59.6-57.4a4.5 4.5 0 10-9 0 4.5 4.5 0 009 0zm-4.5 0"/><path d="M56-57.4a.9.9 0 10-1.801 0 .9.9 0 001.8 0zM-32.2 46.099a4.5 4.5 0 10-9 0 4.5 4.5 0 009 0zm-4.5 0"/><path d="M-35.8 46.099a.9.9 0 10-1.8 0 .9.9 0 001.8 0zM43.399 51.5a4.5 4.5 0 10-9-.001 4.5 4.5 0 009 0zm-4.5 0"/><path d="M39.799 51.5a.9.9 0 10-1.8 0 .9.9 0 001.8 0zM-71.8-71.8v144m35.999-144v144m36-144v144M36.2-71.8v144m36-144v144m-144-144h144m-144 35.999h144m-144 36h144M-71.8 36.2h144m-144 36h144"/></g></svg>