<svg xmlns="http://www.w3.org/2000/svg" width="296.519" height="126.44" viewBox="-72 -72 222.389 94.83"><g stroke-width=".4" stroke="#000" stroke-miterlimit="10"><path d="M-67.104 17.935h85.039m-85.04-21.26h85.04m-85.04-21.26h85.04m-85.04-21.26h85.04m-85.04-21.252h85.04m-85.04 85.032v-85.04m21.26 85.04v-85.04m21.26 85.04v-85.04m21.26 85.04v-85.04m21.252 85.04v-85.04m.008 0" fill="none" stroke-width=".399"/><path d="M-62.408 17.935a4.696 4.696 0 10-9.393 0 4.696 4.696 0 009.393 0zm0-21.26a4.696 4.696 0 10-9.393 0 4.696 4.696 0 009.393 0zm0-21.26a4.696 4.696 0 10-9.393 0 4.696 4.696 0 009.393 0zm0-21.26a4.696 4.696 0 10-9.393 0 4.696 4.696 0 009.393 0zm0-21.259a4.696 4.696 0 10-9.393 0 4.696 4.696 0 009.393 0zm21.26 85.039a4.696 4.696 0 10-9.393 0 4.696 4.696 0 009.393 0zm0-21.26a4.696 4.696 0 10-9.393 0 4.696 4.696 0 009.393 0zm0-21.26a4.696 4.696 0 10-9.393 0 4.696 4.696 0 009.393 0zm0-21.26a4.696 4.696 0 10-9.393 0 4.696 4.696 0 009.393 0zm0-21.259a4.696 4.696 0 10-9.393 0 4.696 4.696 0 009.393 0zm-4.697 0" stroke-width=".399" fill="#00f"/><path d="M-19.889 17.935a4.696 4.696 0 10-9.392 0 4.696 4.696 0 009.392 0zm0-21.26a4.696 4.696 0 10-9.392 0 4.696 4.696 0 009.392 0zm0-21.26a4.696 4.696 0 10-9.392 0 4.696 4.696 0 009.392 0zm0-21.26a4.696 4.696 0 10-9.392 0 4.696 4.696 0 009.392 0zm0-21.259a4.696 4.696 0 10-9.392 0 4.696 4.696 0 009.392 0zm-4.696 0" stroke-width=".399"/><path d="M1.371 17.935a4.696 4.696 0 10-9.392 0 4.696 4.696 0 009.392 0zm0-21.26a4.696 4.696 0 10-9.392 0 4.696 4.696 0 009.392 0zm0-21.26a4.696 4.696 0 10-9.392 0 4.696 4.696 0 009.392 0zm0-21.26a4.696 4.696 0 10-9.392 0 4.696 4.696 0 009.392 0zm0-21.259a4.696 4.696 0 10-9.392 0 4.696 4.696 0 009.392 0zm21.26 85.039a4.696 4.696 0 10-9.392 0 4.696 4.696 0 009.392 0zm0-21.26a4.696 4.696 0 10-9.392 0 4.696 4.696 0 009.392 0zm0-21.26a4.696 4.696 0 10-9.392 0 4.696 4.696 0 009.392 0zm0-21.26a4.696 4.696 0 10-9.392 0 4.696 4.696 0 009.392 0zm0-21.259a4.696 4.696 0 10-9.392 0 4.696 4.696 0 009.392 0zm-4.696 0" stroke-width=".399" fill="#0f0"/><path d="M107.67-45.845a4.696 4.696 0 10-9.392 0 4.696 4.696 0 009.392 0zm-4.696 0" stroke-width=".399"/><path d="M65.15-24.585a4.696 4.696 0 10-9.392 0 4.696 4.696 0 009.393 0zm-4.696 0" stroke-width=".399" fill="#00f"/><path d="M150.19-24.585a4.696 4.696 0 10-9.392 0 4.696 4.696 0 009.392 0zm-4.696 0" stroke-width=".399" fill="#0f0"/><path d="M98.6-43.657L64.838-26.775m42.52-16.883l33.764 16.882" fill="none" stroke-width="1.594"/></g></svg>