<svg xmlns="http://www.w3.org/2000/svg" width="240.436" height="158.257" viewBox="-72 -72 180.327 118.693"><g stroke-width=".4" stroke="#000" stroke-miterlimit="10"><path d="M-25.585 35.642a4.696 4.696 0 10-9.393 0 4.696 4.696 0 009.393 0zM-2.661 6.911a4.696 4.696 0 10-9.393 0 4.696 4.696 0 009.393 0zm-59.946 4.355a4.696 4.696 0 10-9.393 0 4.696 4.696 0 009.393 0zm30.253-23.256a4.696 4.696 0 10-9.392 0 4.696 4.696 0 009.392 0zm62.007 1.146a4.696 4.696 0 10-9.393 0 4.696 4.696 0 009.393 0zm3.835 52.841a4.696 4.696 0 10-9.393 0 4.696 4.696 0 009.393 0zM60.665 8.342a4.696 4.696 0 10-9.392 0 4.696 4.696 0 009.392 0zM83.912-21.89a4.696 4.696 0 10-9.392 0 4.696 4.696 0 009.392 0zM51.226-46.963a4.696 4.696 0 10-9.393 0 4.696 4.696 0 009.393 0zm57.101 5.421a4.696 4.696 0 10-9.393 0 4.696 4.696 0 009.393 0zM84.762-67.304a4.696 4.696 0 10-9.392 0 4.696 4.696 0 009.392 0zm-4.696 0" fill="#00f" stroke="none"/><path d="M-27.229 31.816l16.819-21.078M-34.37 32.95l-28.845-18.992m37.801 22.208l49.338 5.307M-12.24 7.266l-50.181 3.646m50.934-6.629L-32.921-9.361M-3.067 4.554l23.733-13.04M-3.845 10.32L25.28 38.588M-2.463 7.022l53.538 1.21m-114.498.051L-40.93-9.006m8.774-2.893l52.218.965m9.058 2.666L51.805 5.766M29.753-11.82l44.666-9.093m-46.953 5.867L44.02-42.76M31.867 38.188L52.893 12.15m6.06-7.689l17.28-22.47m-.901-6.86L50.413-43.984M83.03-24.959l16.787-13.514M51.403-46.5l47.354 4.495m-48.042-7.497L75.88-64.765m24.446 19.611L83.37-63.692" fill="none" stroke-width="1.594"/></g></svg>