<svg xmlns="http://www.w3.org/2000/svg" width="136.594" height="136.594" viewBox="-72 -72 102.446 102.446"><g stroke-width=".399" stroke="#000" stroke-miterlimit="10"><path d="M-71.8 30.247V-71.801H30.246V30.247zM30.246-71.801" fill="none"/><path d="M24.731 13.239a2.989 2.989 0 10-5.977 0 2.989 2.989 0 005.977 0zm0-8.504a2.989 2.989 0 10-5.977 0 2.989 2.989 0 005.977 0zm0-25.512a2.989 2.989 0 10-5.977 0 2.989 2.989 0 005.977 0zm-8.504 42.52a2.989 2.989 0 10-5.977 0 2.989 2.989 0 005.977 0zm0-17.008a2.989 2.989 0 10-5.977 0 2.989 2.989 0 005.977 0zm0-8.504a2.989 2.989 0 10-5.977 0 2.989 2.989 0 005.977 0zm0-8.504a2.989 2.989 0 10-5.977 0 2.989 2.989 0 005.977 0zm0-8.504a2.989 2.989 0 10-5.977 0 2.989 2.989 0 005.977 0zm0-8.504a2.989 2.989 0 10-5.977 0 2.989 2.989 0 005.977 0zM7.723 21.743a2.989 2.989 0 10-5.977 0 2.989 2.989 0 005.977 0zm0-8.504a2.989 2.989 0 10-5.977 0 2.989 2.989 0 005.977 0zm0-17.008a2.989 2.989 0 10-5.977 0 2.989 2.989 0 005.977 0zM-.78 13.239a2.989 2.989 0 10-5.978 0 2.989 2.989 0 005.978 0zm0-8.504a2.989 2.989 0 10-5.978 0 2.989 2.989 0 005.978 0zm0-17.008a2.989 2.989 0 10-5.978 0 2.989 2.989 0 005.978 0zm-8.504 25.512a2.989 2.989 0 10-5.978 0 2.989 2.989 0 005.978 0zm0-17.008a2.989 2.989 0 10-5.978 0 2.989 2.989 0 005.978 0zm0-25.512a2.989 2.989 0 10-5.978 0 2.989 2.989 0 005.978 0zm0-8.504a2.989 2.989 0 10-5.978 0 2.989 2.989 0 005.978 0zm0-8.504a2.989 2.989 0 10-5.978 0 2.989 2.989 0 005.978 0zm-8.504 68.032a2.989 2.989 0 10-5.978 0 2.989 2.989 0 005.978 0zm0-8.504a2.989 2.989 0 10-5.978 0 2.989 2.989 0 005.978 0zm0-42.52a2.989 2.989 0 10-5.978 0 2.989 2.989 0 005.978 0zm-8.504 42.52a2.989 2.989 0 10-5.978 0 2.989 2.989 0 005.978 0zm0-25.512a2.989 2.989 0 10-5.978 0 2.989 2.989 0 005.978 0zm0-8.504a2.989 2.989 0 10-5.978 0 2.989 2.989 0 005.978 0zm0-17.008a2.989 2.989 0 10-5.978 0 2.989 2.989 0 005.978 0zm-8.504 25.512a2.989 2.989 0 10-5.978 0 2.989 2.989 0 005.978 0zm0-17.008a2.989 2.989 0 10-5.978 0 2.989 2.989 0 005.978 0zm0-17.008a2.989 2.989 0 10-5.978 0 2.989 2.989 0 005.978 0zm0-8.504a2.989 2.989 0 10-5.978 0 2.989 2.989 0 005.978 0zm-8.503 42.52a2.989 2.989 0 10-5.978 0 2.989 2.989 0 005.977 0zm0-25.512a2.989 2.989 0 10-5.978 0 2.989 2.989 0 005.977 0zm0-17.008a2.989 2.989 0 10-5.978 0 2.989 2.989 0 005.977 0zm0-8.504a2.989 2.989 0 10-5.978 0 2.989 2.989 0 005.977 0zm-8.504 25.512a2.989 2.989 0 10-5.978 0 2.989 2.989 0 005.977 0zm0-8.504a2.989 2.989 0 10-5.978 0 2.989 2.989 0 005.977 0zm0-17.008a2.989 2.989 0 10-5.978 0 2.989 2.989 0 005.977 0zm-8.504 17.008a2.989 2.989 0 10-5.978 0 2.989 2.989 0 005.977 0zm0-8.504a2.989 2.989 0 10-5.978 0 2.989 2.989 0 005.977 0zm-2.99 0" fill="#00f" stroke="#00f"/></g></svg>