<svg xmlns="http://www.w3.org/2000/svg" width="240.436" height="207.134" viewBox="-72 -72 180.327 155.35"><g stroke-width=".4" stroke="#000" stroke-miterlimit="10"><path d="M-25.585 50.079a4.696 4.696 0 10-9.393 0 4.696 4.696 0 009.393 0zm22.924-28.731a4.696 4.696 0 10-9.393 0 4.696 4.696 0 009.393 0zm-59.946 4.354a4.696 4.696 0 10-9.393 0 4.696 4.696 0 009.393 0zm30.253-23.255a4.696 4.696 0 10-9.392 0 4.696 4.696 0 009.392 0zm62.007 1.146a4.696 4.696 0 10-9.393 0 4.696 4.696 0 009.393 0zm3.835 52.84a4.696 4.696 0 10-9.393 0 4.696 4.696 0 009.393 0zm27.177-33.655a4.696 4.696 0 10-9.392 0 4.696 4.696 0 009.392 0zM83.912-7.453a4.696 4.696 0 10-9.392 0 4.696 4.696 0 009.392 0zM51.226-32.527a4.696 4.696 0 10-9.393 0 4.696 4.696 0 009.393 0zm57.101 5.421a4.696 4.696 0 10-9.393 0 4.696 4.696 0 009.393 0zM84.762-52.867a4.696 4.696 0 10-9.392 0 4.696 4.696 0 009.392 0zm-4.696 0" fill="#00f" stroke="none"/><path d="M-27.229 46.252l16.819-21.078m-23.96 22.213l-28.845-18.993m37.801 22.208l49.338 5.307M-12.24 21.702l-50.181 3.646m50.934-6.628L-32.921 5.075" fill="none" stroke-width="1.594"/><path d="M-3.067 18.99L20.666 5.95" fill="none" stroke-dasharray="3.0,3.0" stroke-width="1.594" stroke="red"/><path d="M-3.845 24.757L25.28 53.024" fill="none" stroke-width="1.594"/><path d="M-2.463 21.458l53.538 1.21" fill="none" stroke-dasharray="3.0,3.0" stroke-width="1.594" stroke="red"/><path d="M-63.423 22.72L-40.93 5.43" fill="none" stroke-width="1.594"/><path d="M-32.156 2.537l52.218.965" fill="none" stroke-dasharray="3.0,3.0" stroke-width="1.594" stroke="red"/><path d="M29.12 6.168l22.686 14.035M29.753 2.616L74.42-6.476M27.466-.61L44.02-28.324" fill="none" stroke-width="1.594"/><path d="M31.867 52.624l21.026-26.037" fill="none" stroke-dasharray="3.0,3.0" stroke-width="1.594" stroke="red"/><path d="M58.953 18.898l17.28-22.47m-.901-6.86L50.413-29.547M83.03-10.523l16.787-13.513m-48.414-8.028l47.354 4.496m-48.042-7.497L75.88-50.33m24.446 19.612L83.37-49.255" fill="none" stroke-width="1.594"/><g stroke-width="1.6" fill="none" stroke="gray"><path d="M33.277 1.854l-16.16 7.642" stroke-width="1.594"/><path d="M29.93.088c.656.945 3.266 1.595 3.86 1.524-.432.414-1.586 2.844-1.272 3.951m-12.054 5.7c-.656-.946-3.267-1.596-3.861-1.525.432-.413 1.587-2.843 1.272-3.951" stroke-linejoin="round" stroke-linecap="round" stroke-width="1.275"/></g><g stroke-width="1.6" fill="none" stroke="gray"><path d="M48.916 55.837L1.478-44.487" stroke-width="1.594"/><path d="M50.683 52.49c-.946.656-1.596 3.266-1.524 3.86-.414-.432-2.844-1.586-3.951-1.272M-.29-41.14c.947-.656 1.597-3.266 1.525-3.86.414.432 2.844 1.586 3.951 1.272" stroke-linejoin="round" stroke-linecap="round" stroke-width="1.275"/></g><path d="M61.548 82.553L-11.155-71.203" fill="none" stroke-dasharray="1.6,2.0" stroke-width="1.594" stroke="#00f"/></g></svg>