<svg xmlns="http://www.w3.org/2000/svg" width="174.469" height="223.391" viewBox="-72 -72 130.851 167.543"><g stroke-width=".4" stroke="#000" stroke-miterlimit="10"><path d="M-62.607-7.122a4.696 4.696 0 10-9.393 0 4.696 4.696 0 009.393 0zm14.954 22.689a4.696 4.696 0 10-9.393 0 4.696 4.696 0 009.393 0zM-61.005-54.09a4.696 4.696 0 10-9.392 0 4.696 4.696 0 009.392 0zm13.52 24.925a4.696 4.696 0 10-9.393 0 4.696 4.696 0 009.393 0zm31.483 70.202a4.696 4.696 0 10-9.393 0 4.696 4.696 0 009.393 0zM-53.01 61.585a4.696 4.696 0 10-9.393 0 4.696 4.696 0 009.393 0zm25.09 17.085a4.696 4.696 0 10-9.393 0 4.696 4.696 0 009.392 0zm39.887-15.149a4.696 4.696 0 10-9.392 0 4.696 4.696 0 009.392 0zm19.511-42.082a4.696 4.696 0 10-9.392 0 4.696 4.696 0 009.392 0zm13.773-10.143a4.696 4.696 0 10-9.392 0 4.696 4.696 0 009.392 0zm13.6-56.023a4.696 4.696 0 10-9.392 0 4.696 4.696 0 009.392 0zm-4.696 0" fill="#00f" stroke="none"/><path d="M-64.61-3.035l9.567 14.515m-12.094-23.495l1.269-37.182m-.759 46.923l8.243 59.011m5.114-45.977l-11.51-60.042m12.449 59.954l.131-34.942m3.664 42.906l24.024 19.332M-52.915 20.43l-4.226 36.293m6.253-36.484l16.81 53.759M-63.367-49.787l8.851 16.319m4.338 8.77l27.476 61.268m.526 9.133l-8.963 28.3" fill="none" stroke-width="1.594"/><path d="M-16.883 44.104l20.339 16.35m-19.629-21.285l38.43-15.863" fill="none" stroke-dasharray="3.0,3.0" stroke-width="1.594" stroke="red"/><path d="M-53.66 64.34l16.997 11.575" fill="none" stroke-width="1.594"/><path d="M-28.04 76.932L2.695 65.259" fill="none" stroke-dasharray="3.0,3.0" stroke-width="1.594" stroke="red"/><path d="M9.33 59.08l15.393-33.2M9.902 59.393l28.022-43.97m-7.2 3.113l5.89-4.338m-7.961 2.717l23.63-57.119M41.71 6.539L53-39.971" fill="none" stroke-width="1.594"/><path d="M-19.981 94.746V-71.203" fill="none" stroke-dasharray="1.6,2.0" stroke-width="1.594" stroke="#00f"/></g></svg>