<svg xmlns="http://www.w3.org/2000/svg" width="144.531" height="150.531" viewBox="-72 -72 108.398 112.898"><g stroke-width=".4" stroke="#000" stroke-miterlimit="10"><path d="M-35.8-49.3a1.8 1.8 0 10-3.601 0 1.8 1.8 0 003.6 0zM9.199 9.2a1.8 1.8 0 10-3.6 0 1.8 1.8 0 003.6 0zM-40.3-40.3a1.8 1.8 0 10-3.601 0 1.8 1.8 0 003.6 0zm-1.8 0" stroke-width=".399"/><path d="M-53.8-71.8V40.7m72-112.5V40.7m-90-22.5h108m-81-58.5l-8.747-13.12" fill="none" stroke-width=".399"/><path d="M-54.21-51.54c.442-.415.58-1.824.498-2.128.248.193 1.602.608 2.155.359" fill="none" stroke-linejoin="round" stroke-linecap="round" stroke-width=".319"/><path d="M-53.8-53.8v72h72v-72zm72 72" fill="none" stroke-width=".598"/><path d="M-71.8-53.8h108m-76.5 4.5l-13.066-4.356" fill="none" stroke-width=".399"/><path d="M-52.736-51.766c.094-.598-.662-1.795-.914-1.985.315 0 1.638-.504 1.922-1.04" fill="none" stroke-linejoin="round" stroke-linecap="round" stroke-width=".319"/><g fill="none"><path d="M4.7 9.2l13.118 8.745" stroke-width=".399"/><path d="M17.707 15.956c-.248.552.166 1.906.36 2.155-.304-.083-1.713.055-2.128.497" stroke-linejoin="round" stroke-linecap="round" stroke-width=".319"/></g><path d="M-71.8-71.8V40.7h108V-71.8zm108 112.5" fill="none" stroke-width=".399" stroke-dasharray="3.0,3.0"/></g></svg>