<svg xmlns="http://www.w3.org/2000/svg" width="240.436" height="223.45" viewBox="-72 -72 180.327 167.587"><g stroke-width=".4" stroke="#000" stroke-miterlimit="10"><path d="M-25.585 60.09a4.696 4.696 0 10-9.393 0 4.696 4.696 0 009.393 0zm22.924-28.731a4.696 4.696 0 10-9.393 0 4.696 4.696 0 009.393 0zm-59.946 4.354a4.696 4.696 0 10-9.393 0 4.696 4.696 0 009.393 0zm30.253-23.255a4.696 4.696 0 10-9.392 0 4.696 4.696 0 009.392 0zm62.007 1.146a4.696 4.696 0 10-9.393 0 4.696 4.696 0 009.393 0zm3.835 52.84a4.696 4.696 0 10-9.393 0 4.696 4.696 0 009.393 0zm27.177-33.655a4.696 4.696 0 10-9.392 0 4.696 4.696 0 009.392 0zM83.912 2.558a4.696 4.696 0 10-9.392 0 4.696 4.696 0 009.392 0zM51.226-22.516a4.696 4.696 0 10-9.393 0 4.696 4.696 0 009.393 0zm57.101 5.421a4.696 4.696 0 10-9.393 0 4.696 4.696 0 009.393 0zM84.762-42.857a4.696 4.696 0 10-9.392 0 4.696 4.696 0 009.392 0zm-4.696 0" fill="#00f" stroke="none"/><path d="M-27.229 56.263l16.819-21.078m-23.96 22.213l-28.845-18.993m37.801 22.208l49.338 5.307M-12.24 31.713l-50.18 3.647m50.933-6.63l-21.434-13.643m29.854 13.914l23.733-13.04M-3.845 34.768L25.28 63.035" fill="none" stroke-width="1.594"/><path d="M-2.463 31.47l53.538 1.209" fill="none" stroke-dasharray="3.0,3.0" stroke-width="1.594" stroke="red"/><path d="M-63.423 32.73l22.492-17.289m8.775-2.893l52.218.965" fill="none" stroke-width="1.594"/><path d="M29.12 16.179l22.686 14.035M29.753 12.627L74.42 3.535M27.466 9.4L44.02-18.312M31.867 62.635l21.026-26.037" fill="none" stroke-dasharray="3.0,3.0" stroke-width="1.594" stroke="red"/><path d="M58.953 28.909l17.28-22.47m-.901-6.86L50.413-19.536M83.03-.512l16.787-13.513m-48.414-8.028l47.354 4.495m-48.042-7.497L75.88-40.318m24.446 19.611L83.37-39.245" fill="none" stroke-width="1.594"/><path d="M28.792 94.79V-71.203" fill="none" stroke-dasharray="1.6,2.0" stroke-width="1.594" stroke="#00f"/></g></svg>