<svg xmlns="http://www.w3.org/2000/svg" width="383.714" height="114.537" viewBox="-72 -72 287.785 85.902"><g stroke-width=".4" stroke="#000" stroke-miterlimit="10"><path d="M-36.692 4.758a4.696 4.696 0 10-9.393 0 4.696 4.696 0 009.393 0zm16.047-20.111a4.696 4.696 0 10-9.393 0 4.696 4.696 0 009.393 0zm-41.962 3.048a4.696 4.696 0 10-9.393 0 4.696 4.696 0 009.393 0zm21.177-16.279a4.696 4.696 0 10-9.393 0 4.696 4.696 0 009.393 0zm-4.696 0" fill="#00f" stroke="none"/><path d="M1.974-27.782a4.696 4.696 0 10-9.392 0 4.696 4.696 0 009.392 0zm-4.696 0" fill="red" stroke="none"/><path d="M4.659 9.206a4.696 4.696 0 10-9.393 0 4.696 4.696 0 009.393 0zm-4.696 0" fill="#00f" stroke="none"/><path d="M23.683-14.352a4.696 4.696 0 10-9.393 0 4.696 4.696 0 009.393 0zm-4.696 0" fill="red" stroke="none"/><path d="M39.956-35.514a4.696 4.696 0 10-9.392 0 4.696 4.696 0 009.392 0zM17.075-53.065a4.696 4.696 0 10-9.392 0 4.696 4.696 0 009.392 0zm39.971 3.795a4.696 4.696 0 10-9.393 0 4.696 4.696 0 009.393 0zM40.55-67.304a4.696 4.696 0 10-9.391 0 4.696 4.696 0 009.392 0zm-4.695 0" fill="#00f" stroke="none"/><path d="M-38.335.932l9.941-12.46M-45.477 2.066l-17.738-11.68M-36.52 5.282l31.616 3.4M-30.223-15l-32.198 2.34m32.951-5.323l-12.526-7.973" fill="none" stroke-width="1.594"/><path d="M-21.05-17.711l14.039-7.714" fill="none" stroke-width=".399"/><path d="M-21.828-11.944l18.279 17.74" fill="none" stroke-width="1.594"/><path d="M-20.447-15.243l34.541.78" fill="none" stroke-width=".399"/><path d="M-63.423-15.289L-50.007-25.6" fill="none" stroke-width="1.594"/><path d="M-41.232-28.494l33.616.621m9.058 2.666l13.383 8.279M2.076-28.759l28.389-5.78M-.21-31.985L9.87-48.864M3.04 5.398l12.873-15.942m6.06-7.689l10.304-13.4" fill="none" stroke-width=".399"/><path d="M31.378-38.494L16.265-50.087m22.81 11.503l9.463-7.618m-31.284-6.402l30.224 2.87m-30.912-5.871l15.105-9.162m17.377 11.883l-9.887-10.81" fill="none" stroke-width="1.594"/><g stroke-width="1.6" fill="none"><path d="M37.043-11.745h37.273" stroke-width="1.594"/><path d="M39.314-8.716c-.19-1.136-2.271-2.84-2.84-3.029.569-.19 2.65-1.893 2.84-3.029m32.731 0c.19 1.136 2.271 2.84 2.84 3.03-.569.188-2.65 1.892-2.84 3.028" stroke-linejoin="round" stroke-linecap="round" stroke-width="1.275"/></g><path d="M122.047 4.758a4.696 4.696 0 10-9.392 0 4.696 4.696 0 009.392 0zm16.047-20.111a4.696 4.696 0 10-9.392 0 4.696 4.696 0 009.392 0zm-41.962 3.048a4.696 4.696 0 10-9.392 0 4.696 4.696 0 009.392 0zm21.178-16.279a4.696 4.696 0 10-9.393 0 4.696 4.696 0 009.392 0zm43.404.802a4.696 4.696 0 10-9.393 0 4.696 4.696 0 009.393 0zm2.684 36.988a4.696 4.696 0 10-9.392 0 4.696 4.696 0 009.392 0zm19.024-23.558a4.696 4.696 0 10-9.392 0 4.696 4.696 0 009.392 0zm16.273-21.162a4.696 4.696 0 10-9.392 0 4.696 4.696 0 009.392 0zm-22.88-17.551a4.696 4.696 0 10-9.393 0 4.696 4.696 0 009.393 0zm39.97 3.795a4.696 4.696 0 10-9.392 0 4.696 4.696 0 009.392 0zM199.29-67.304a4.696 4.696 0 10-9.392 0 4.696 4.696 0 009.392 0zm-4.696 0" fill="#00f" stroke="none"/><path d="M120.405.932l9.94-12.46M113.263 2.066L95.524-9.614m26.695 14.896l31.617 3.4M128.516-15l-32.198 2.34m32.952-5.323l-12.527-7.973" fill="none" stroke-width="1.594"/><path d="M137.689-17.711l14.04-7.714" fill="none" stroke-dasharray="3.0,3.0" stroke-width="1.594" stroke="red"/><path d="M136.912-11.944l18.278 17.74" fill="none" stroke-width="1.594"/><path d="M138.293-15.243l34.54.78" fill="none" stroke-dasharray="3.0,3.0" stroke-width="1.594" stroke="red"/><path d="M95.317-15.289L108.732-25.6" fill="none" stroke-width="1.594"/><path d="M117.508-28.494l33.616.621" fill="none" stroke-dasharray="3.0,3.0" stroke-width="1.594" stroke="red"/><path d="M160.182-25.207l13.383 8.279m-12.75-11.831l28.389-5.78m-30.675 2.554l10.08-16.879" fill="none" stroke-width="1.594"/><path d="M161.779 5.398l12.873-15.942" fill="none" stroke-dasharray="3.0,3.0" stroke-width="1.594" stroke="red"/><path d="M180.712-18.233l10.305-13.4m-.9-6.861l-15.113-11.593m22.81 11.503l9.464-7.618m-31.285-6.402l30.225 2.87m-30.913-5.871l15.105-9.162m17.378 11.883l-9.888-10.81" fill="none" stroke-width="1.594"/></g></svg>