<svg xmlns="http://www.w3.org/2000/svg" width="323.225" height="99.965" viewBox="-72 -72 242.419 74.973"><g stroke-width=".4" stroke="#000" stroke-miterlimit="10"><path d="M-40.394-5.535a4.696 4.696 0 10-9.392 0 4.696 4.696 0 009.392 0zm13.754-17.239a4.696 4.696 0 10-9.392 0 4.696 4.696 0 009.393 0zm-35.967 2.613a4.696 4.696 0 10-9.393 0 4.696 4.696 0 009.393 0zm18.152-13.954a4.696 4.696 0 10-9.393 0 4.696 4.696 0 009.393 0zm37.205.688a4.696 4.696 0 10-9.393 0 4.696 4.696 0 009.392 0zm2.3 31.704a4.696 4.696 0 10-9.392 0 4.696 4.696 0 009.392 0zm16.307-20.193a4.696 4.696 0 10-9.393 0 4.696 4.696 0 009.393 0zm13.948-18.139a4.696 4.696 0 10-9.392 0 4.696 4.696 0 009.392 0zM5.693-55.1a4.696 4.696 0 10-9.392 0 4.696 4.696 0 009.392 0zm34.261 3.253a4.696 4.696 0 10-9.392 0 4.696 4.696 0 009.392 0zM25.815-67.304a4.696 4.696 0 10-9.392 0 4.696 4.696 0 009.392 0zm-4.696 0" fill="#00f" stroke="none"/><path d="M-42.036-9.362l7.65-9.587M-49.178-8.228l-14.037-9.242m22.993 12.458l25.712 2.766M-36.216-22.42l-26.205 1.903m26.958-4.888l-9.558-6.083m17.978 6.355l10.808-5.939M-27.82-19.366l14.664 14.233M-26.44-22.665l28.21.637m-65.193-1.118l10.39-7.987m8.777-2.894l27.417.507m9.059 2.665l10.282 6.362m-9.649-9.913l22.964-4.675m-25.25 1.449l7.924-13.267M-6.567-5.531L3.59-18.108m6.06-7.689l7.98-10.379m-.9-6.862L4.886-52.123m19.542 8.997l7.022-5.653M5.874-54.64l24.516 2.327M5.186-57.641l11.752-7.128m15.023 9.306l-7.532-8.233" fill="none" stroke-width=".399"/><path d="M-42.036-9.362l7.65-9.587m-33.852-6.019h0m23.982-9.059l27.417.507M-6.567-5.531L3.59-18.108m13.14-24.93L4.886-52.123m27.075-3.34l-7.532-8.233" fill="none" stroke-width="1.594"/><path d="M102.548-14.155a4.696 4.696 0 10-9.393 0 4.696 4.696 0 009.393 0zm-29.091-6.006a4.696 4.696 0 10-9.393 0 4.696 4.696 0 009.393 0zm36.754-13.61a4.696 4.696 0 10-9.392 0 4.696 4.696 0 009.392 0zm29.057 21.951a4.696 4.696 0 10-9.393 0 4.696 4.696 0 009.393 0zm12.295-35.757a4.696 4.696 0 10-9.392 0 4.696 4.696 0 009.392 0zm17.386-11.998a4.696 4.696 0 10-9.392 0 4.696 4.696 0 009.392 0zm-4.696 0" fill="#00f" stroke="none"/><path d="M102.749-14.156h0m-9.69-.99l-19.504-4.027m26.08.458l4.1-10.498" fill="none" stroke-width="3.985"/><path d="M73.351-21.862l27.575-10.211" fill="none" stroke-width="1.993"/><path d="M109.103-37.106h0" fill="none" stroke-width="3.985"/><path d="M102.739-13.845l26.95 1.714" fill="none" stroke-width="5.978"/><path d="M109.423-30.822l21.246 16.05" fill="none" stroke-width="1.993"/><path d="M139.471-11.82h0M110.16-35.323l32.068-10.706" fill="none" stroke-width="3.985"/><path d="M136.168-16.45l9.112-26.5" fill="none" stroke-width="1.993"/><path d="M151.07-50.096h0" fill="none" stroke-width="3.985"/><path d="M150.9-50.36l9.329-6.438" fill="none" stroke-width="5.978"/><path d="M168.427-62.146h0" fill="none" stroke-width="3.985"/></g></svg>