<svg xmlns="http://www.w3.org/2000/svg" width="202.031" height="202.031" viewBox="-72 -72 151.523 151.523"><g stroke-width=".399" stroke="#000" stroke-miterlimit="10"><path d="M-67.104 74.628H74.628M-67.104 46.28H74.628M-67.104 17.935H74.628M-67.104-10.412H74.628M-67.104-38.758H74.628M-67.104-67.095H74.628M-67.104 74.628V-67.104m28.346 141.732V-67.104m28.346 141.732V-67.104M17.935 74.628V-67.104M46.28 74.628V-67.104M74.618 74.628V-67.104m.01 0" fill="none"/><path d="M-62.408 74.628a4.696 4.696 0 10-9.393 0 4.696 4.696 0 009.393 0zm0-28.347a4.696 4.696 0 10-9.393 0 4.696 4.696 0 009.393 0zm0-28.346a4.696 4.696 0 10-9.393 0 4.696 4.696 0 009.393 0zm0-28.347a4.696 4.696 0 10-9.393 0 4.696 4.696 0 009.393 0zm0-28.346a4.696 4.696 0 10-9.393 0 4.696 4.696 0 009.393 0zm0-28.346a4.696 4.696 0 10-9.393 0 4.696 4.696 0 009.393 0zm28.346 141.732a4.696 4.696 0 10-9.392 0 4.696 4.696 0 009.392 0zm0-28.347a4.696 4.696 0 10-9.392 0 4.696 4.696 0 009.392 0zm0-28.346a4.696 4.696 0 10-9.392 0 4.696 4.696 0 009.392 0zm0-28.347a4.696 4.696 0 10-9.392 0 4.696 4.696 0 009.392 0zm0-28.346a4.696 4.696 0 10-9.392 0 4.696 4.696 0 009.392 0zm0-28.346a4.696 4.696 0 10-9.392 0 4.696 4.696 0 009.392 0zM-5.715 74.628a4.696 4.696 0 10-9.393 0 4.696 4.696 0 009.393 0zm0-28.347a4.696 4.696 0 10-9.393 0 4.696 4.696 0 009.393 0zm0-28.346a4.696 4.696 0 10-9.393 0 4.696 4.696 0 009.393 0zm0-28.347a4.696 4.696 0 10-9.393 0 4.696 4.696 0 009.393 0zm0-28.346a4.696 4.696 0 10-9.393 0 4.696 4.696 0 009.393 0zm0-28.346a4.696 4.696 0 10-9.393 0 4.696 4.696 0 009.393 0zM22.631 74.628a4.696 4.696 0 10-9.392 0 4.696 4.696 0 009.392 0zm0-28.347a4.696 4.696 0 10-9.392 0 4.696 4.696 0 009.392 0zm0-28.346a4.696 4.696 0 10-9.392 0 4.696 4.696 0 009.392 0zm0-28.347a4.696 4.696 0 10-9.392 0 4.696 4.696 0 009.392 0zm0-28.346a4.696 4.696 0 10-9.392 0 4.696 4.696 0 009.392 0zm0-28.346a4.696 4.696 0 10-9.392 0 4.696 4.696 0 009.392 0zM50.978 74.628a4.696 4.696 0 10-9.393 0 4.696 4.696 0 009.393 0zm0-28.347a4.696 4.696 0 10-9.393 0 4.696 4.696 0 009.393 0zm0-28.346a4.696 4.696 0 10-9.393 0 4.696 4.696 0 009.393 0zm0-28.347a4.696 4.696 0 10-9.393 0 4.696 4.696 0 009.393 0zm0-28.346a4.696 4.696 0 10-9.393 0 4.696 4.696 0 009.393 0zm0-28.346a4.696 4.696 0 10-9.393 0 4.696 4.696 0 009.393 0zM79.324 74.628a4.696 4.696 0 10-9.392 0 4.696 4.696 0 009.392 0zm0-28.347a4.696 4.696 0 10-9.392 0 4.696 4.696 0 009.392 0zm0-28.346a4.696 4.696 0 10-9.392 0 4.696 4.696 0 009.392 0zm0-28.347a4.696 4.696 0 10-9.392 0 4.696 4.696 0 009.392 0zm0-28.346a4.696 4.696 0 10-9.392 0 4.696 4.696 0 009.392 0zm0-28.346a4.696 4.696 0 10-9.392 0 4.696 4.696 0 009.392 0zm-4.696 0" fill="#00f"/></g></svg>