<svg xmlns="http://www.w3.org/2000/svg" width="125.909" height="88.114" viewBox="-72 -72 94.432 66.085"><g stroke-width=".4" stroke="#000" stroke-miterlimit="10"><path d="M-20.088-67.304a4.696 4.696 0 10-9.392 0 4.696 4.696 0 009.392 0zm-28.346 28.347a4.696 4.696 0 10-9.393 0 4.696 4.696 0 009.393 0zm56.693 0a4.696 4.696 0 10-9.393 0 4.696 4.696 0 009.393 0zM-62.607-10.61a4.696 4.696 0 10-9.393 0 4.696 4.696 0 009.393 0zm28.346 0a4.696 4.696 0 10-9.392 0 4.696 4.696 0 009.392 0zm28.346 0a4.696 4.696 0 10-9.392 0 4.696 4.696 0 009.392 0zm28.347 0a4.696 4.696 0 10-9.393 0 4.696 4.696 0 009.393 0zm-4.696 0" fill="#00f" stroke="none"/><path d="M-28.246-63.842L-49.669-42.42m28.347-21.422L.1-42.42m-55.42 7.841l-9.795 19.59m14.174-19.59l9.795 19.59m42.519-19.59l-9.795 19.59m14.173-19.59l9.795 19.59" fill="none" stroke-width=".399"/></g></svg>