<svg xmlns="http://www.w3.org/2000/svg" width="220.929" height="238.379" viewBox="-72 -72 165.697 178.785"><g stroke-width=".4" stroke="#000" stroke-miterlimit="10"><path d="M-48.235-60.56a4.696 4.696 0 10-9.392 0 4.696 4.696 0 009.392 0zm14.173 0a4.696 4.696 0 10-9.392 0 4.696 4.696 0 009.392 0zm14.173 0a4.696 4.696 0 10-9.392 0 4.696 4.696 0 009.392 0zm-42.519 42.52a4.696 4.696 0 10-9.393 0 4.696 4.696 0 009.393 0zm0-14.174a4.696 4.696 0 10-9.393 0 4.696 4.696 0 009.393 0zm0-14.173a4.696 4.696 0 10-9.393 0 4.696 4.696 0 009.393 0zm-4.696 0" stroke-width=".399" fill="#fff"/><path d="M-48.235-18.04a4.696 4.696 0 10-9.392 0 4.696 4.696 0 009.392 0zm0-14.174a4.696 4.696 0 10-9.392 0 4.696 4.696 0 009.392 0zm0-14.173a4.696 4.696 0 10-9.392 0 4.696 4.696 0 009.392 0zm14.173 28.347a4.696 4.696 0 10-9.392 0 4.696 4.696 0 009.392 0zm0-14.174a4.696 4.696 0 10-9.392 0 4.696 4.696 0 009.392 0zm0-14.173a4.696 4.696 0 10-9.392 0 4.696 4.696 0 009.392 0zm14.173 28.347a4.696 4.696 0 10-9.392 0 4.696 4.696 0 009.392 0zm0-14.174a4.696 4.696 0 10-9.392 0 4.696 4.696 0 009.392 0zm0-14.173a4.696 4.696 0 10-9.392 0 4.696 4.696 0 009.392 0zm-4.696 0" stroke-width=".399" fill="#0f0"/><path d="M-48.235-3.868a4.696 4.696 0 10-9.392 0 4.696 4.696 0 009.392 0zm14.173 0a4.696 4.696 0 10-9.392 0 4.696 4.696 0 009.392 0zm14.173 0a4.696 4.696 0 10-9.392 0 4.696 4.696 0 009.392 0zM-5.715-18.04a4.696 4.696 0 10-9.393 0 4.696 4.696 0 009.393 0zm0-14.174a4.696 4.696 0 10-9.393 0 4.696 4.696 0 009.393 0zm0-14.173a4.696 4.696 0 10-9.393 0 4.696 4.696 0 009.393 0zm-4.697 0" stroke-width=".399" fill="#00f"/><path d="M-62.408 81.172a4.696 4.696 0 10-9.393 0 4.696 4.696 0 009.393 0zm0-14.173a4.696 4.696 0 10-9.393 0 4.696 4.696 0 009.393 0zm0-14.174a4.696 4.696 0 10-9.393 0 4.696 4.696 0 009.393 0zm42.519 42.52a4.696 4.696 0 10-9.392 0 4.696 4.696 0 009.392 0zm-14.173 0a4.696 4.696 0 10-9.392 0 4.696 4.696 0 009.392 0zm-14.173 0a4.696 4.696 0 10-9.392 0 4.696 4.696 0 009.392 0zm-4.696 0" stroke-width=".399" fill="#fff"/><path d="M-19.889 81.172a4.696 4.696 0 10-9.392 0 4.696 4.696 0 009.392 0zm-14.173 0a4.696 4.696 0 10-9.392 0 4.696 4.696 0 009.392 0zm-14.173 0a4.696 4.696 0 10-9.392 0 4.696 4.696 0 009.392 0zm28.346-14.173a4.696 4.696 0 10-9.392 0 4.696 4.696 0 009.392 0zm-14.173 0a4.696 4.696 0 10-9.392 0 4.696 4.696 0 009.392 0zm-14.173 0a4.696 4.696 0 10-9.392 0 4.696 4.696 0 009.392 0zm28.346-14.174a4.696 4.696 0 10-9.392 0 4.696 4.696 0 009.392 0zm-14.173 0a4.696 4.696 0 10-9.392 0 4.696 4.696 0 009.392 0zm-14.173 0a4.696 4.696 0 10-9.392 0 4.696 4.696 0 009.392 0zm-4.696 0" stroke-width=".399" fill="#0f0"/><path d="M-5.715 81.172a4.696 4.696 0 10-9.393 0 4.696 4.696 0 009.393 0zm0-14.173a4.696 4.696 0 10-9.393 0 4.696 4.696 0 009.393 0zm0-14.174a4.696 4.696 0 10-9.393 0 4.696 4.696 0 009.393 0zm-14.174-14.173a4.696 4.696 0 10-9.392 0 4.696 4.696 0 009.392 0zm-14.173 0a4.696 4.696 0 10-9.392 0 4.696 4.696 0 009.392 0zm-14.173 0a4.696 4.696 0 10-9.392 0 4.696 4.696 0 009.392 0zm-4.696 0" stroke-width=".399" fill="#00f"/><path d="M93.497-46.387a4.696 4.696 0 10-9.392 0 4.696 4.696 0 009.392 0zm0 14.173a4.696 4.696 0 10-9.392 0 4.696 4.696 0 009.392 0zm0 14.174a4.696 4.696 0 10-9.392 0 4.696 4.696 0 009.392 0zM50.978-60.56a4.696 4.696 0 10-9.393 0 4.696 4.696 0 009.393 0zm14.172 0a4.696 4.696 0 10-9.392 0 4.696 4.696 0 009.393 0zm14.174 0a4.696 4.696 0 10-9.392 0 4.696 4.696 0 009.392 0zm-4.696 0" stroke-width=".399" fill="#fff"/><path d="M50.978-46.387a4.696 4.696 0 10-9.393 0 4.696 4.696 0 009.393 0zm14.172 0a4.696 4.696 0 10-9.392 0 4.696 4.696 0 009.393 0zm14.174 0a4.696 4.696 0 10-9.392 0 4.696 4.696 0 009.392 0zM50.978-32.214a4.696 4.696 0 10-9.393 0 4.696 4.696 0 009.393 0zm14.172 0a4.696 4.696 0 10-9.392 0 4.696 4.696 0 009.393 0zm14.174 0a4.696 4.696 0 10-9.392 0 4.696 4.696 0 009.392 0zM50.978-18.04a4.696 4.696 0 10-9.393 0 4.696 4.696 0 009.393 0zm14.172 0a4.696 4.696 0 10-9.392 0 4.696 4.696 0 009.393 0zm14.174 0a4.696 4.696 0 10-9.392 0 4.696 4.696 0 009.392 0zm-4.696 0" stroke-width=".399" fill="#0f0"/><path d="M36.804-46.387a4.696 4.696 0 10-9.392 0 4.696 4.696 0 009.392 0zm0 14.173a4.696 4.696 0 10-9.392 0 4.696 4.696 0 009.392 0zm0 14.174a4.696 4.696 0 10-9.392 0 4.696 4.696 0 009.392 0zM50.978-3.868a4.696 4.696 0 10-9.393 0 4.696 4.696 0 009.393 0zm14.172 0a4.696 4.696 0 10-9.392 0 4.696 4.696 0 009.393 0zm14.174 0a4.696 4.696 0 10-9.392 0 4.696 4.696 0 009.392 0zm-4.696 0" stroke-width=".399" fill="#00f"/><path d="M79.324 95.345a4.696 4.696 0 10-9.392 0 4.696 4.696 0 009.392 0zm-14.174 0a4.696 4.696 0 10-9.392 0 4.696 4.696 0 009.393 0zm-14.172 0a4.696 4.696 0 10-9.393 0 4.696 4.696 0 009.393 0zm42.519-42.52a4.696 4.696 0 10-9.392 0 4.696 4.696 0 009.392 0zm0 14.174a4.696 4.696 0 10-9.392 0 4.696 4.696 0 009.392 0zm0 14.173a4.696 4.696 0 10-9.392 0 4.696 4.696 0 009.392 0zm-4.696 0" stroke-width=".399" fill="#fff"/><path d="M79.324 52.825a4.696 4.696 0 10-9.392 0 4.696 4.696 0 009.392 0zm0 14.174a4.696 4.696 0 10-9.392 0 4.696 4.696 0 009.392 0zm0 14.173a4.696 4.696 0 10-9.392 0 4.696 4.696 0 009.392 0zM65.15 52.825a4.696 4.696 0 10-9.392 0 4.696 4.696 0 009.393 0zm0 14.174a4.696 4.696 0 10-9.392 0 4.696 4.696 0 009.393 0zm0 14.173a4.696 4.696 0 10-9.392 0 4.696 4.696 0 009.393 0zM50.978 52.825a4.696 4.696 0 10-9.393 0 4.696 4.696 0 009.393 0zm0 14.174a4.696 4.696 0 10-9.393 0 4.696 4.696 0 009.393 0zm0 14.173a4.696 4.696 0 10-9.393 0 4.696 4.696 0 009.393 0zm-4.697 0" stroke-width=".399" fill="#0f0"/><path d="M79.324 38.652a4.696 4.696 0 10-9.392 0 4.696 4.696 0 009.392 0zm-14.174 0a4.696 4.696 0 10-9.392 0 4.696 4.696 0 009.393 0zm-14.172 0a4.696 4.696 0 10-9.393 0 4.696 4.696 0 009.393 0zM36.804 52.825a4.696 4.696 0 10-9.392 0 4.696 4.696 0 009.392 0zm0 14.174a4.696 4.696 0 10-9.392 0 4.696 4.696 0 009.392 0zm0 14.173a4.696 4.696 0 10-9.392 0 4.696 4.696 0 009.392 0zm-4.696 0" stroke-width=".399" fill="#00f"/><path d="M-58.6 44.321V32.983h39.684V44.32zm0 14.174V47.156h39.684v11.339zm42.52 28.346V47.156h11.338v39.685zm11.338-39.685" fill="none" stroke-width=".399"/><path d="M-30.254 86.841V47.156h11.338v39.685zM-58.6-12.372V-23.71h39.684v11.338zm0 14.174V-9.537h39.684V1.802zm42.52-14.174v-39.684h11.338v39.684zm11.338-39.684" fill="none" stroke-width=".399"/><path d="M-30.254-12.372v-39.684h11.338v39.684zm70.866 56.693V32.983h39.685V44.32zm0 14.174V47.156h39.685v11.339zm39.685-11.339" fill="none" stroke-width=".399"/><path d="M40.612 86.841V47.156H51.95v39.685zm-14.173 0V47.156h11.338v39.685zm14.173-99.213V-23.71h39.685v11.338zm0 14.174V-9.537h39.685V1.802zM80.297-9.537" fill="none" stroke-width=".399"/><path d="M40.612-12.372v-39.684H51.95v39.684zm-14.173 0v-39.684h11.338v39.684zm11.338-39.684" fill="none" stroke-width=".399"/><g stroke-width="1.6" fill="none"><path d="M-58.6-18.04c-11.055 19.146-11.055 37.546-.603 55.648" stroke-width="1.594"/><path d="M-57.716 34.127c-.889.732-1.323 3.387-1.203 3.973-.448-.397-2.965-1.349-4.043-.945" stroke-linejoin="round" stroke-linecap="round" stroke-width="1.275"/></g><g stroke-dasharray="3.0,3.0" stroke-width="1.6" fill="none"><path d="M-58.6 52.825C-69.655 33.68-69.655 15.28-59.203-2.824" stroke-width="1.594"/><path d="M-62.962-2.37c1.078.403 3.595-.548 4.043-.945-.12.586.314 3.241 1.203 3.973" stroke-linejoin="round" stroke-linecap="round" stroke-dasharray="none" stroke-width="1.275"/></g><g stroke-width="1.6" fill="none"><path d="M80.297-18.04C91.35 1.105 91.35 19.505 80.9 37.607" stroke-width="1.594"/><path d="M84.658 37.155c-1.078-.404-3.594.548-4.042.945.12-.586-.315-3.241-1.203-3.973" stroke-linejoin="round" stroke-linecap="round" stroke-width="1.275"/></g><g stroke-dasharray="3.0,3.0" stroke-width="1.6" fill="none"><path d="M80.297 52.825C91.35 33.68 91.35 15.28 80.9-2.824" stroke-width="1.594"/><path d="M79.413.658c.888-.732 1.323-3.387 1.203-3.973.448.397 2.964 1.348 4.042.944" stroke-linejoin="round" stroke-linecap="round" stroke-dasharray="none" stroke-width="1.275"/></g><g stroke-width="1.6" fill="none"><path d="M46.281 86.841C35.227 105.988.643 105.988-9.809 87.885" stroke-width="1.594"/><path d="M-11.296 91.366c.889-.731 1.323-3.386 1.203-3.973.448.397 2.964 1.349 4.043.945" stroke-linejoin="round" stroke-linecap="round" stroke-width="1.275"/></g><g stroke-dasharray="3.0,3.0" stroke-width="1.6" fill="none"><path d="M-24.585 86.841c11.054 19.147 45.639 19.147 56.09 1.044" stroke-width="1.594"/><path d="M27.747 88.338c1.078.404 3.594-.548 4.042-.945-.12.587.315 3.242 1.203 3.973" stroke-linejoin="round" stroke-linecap="round" stroke-dasharray="none" stroke-width="1.275"/></g><g stroke-width="1.6" fill="none"><path d="M80.297-18.04C91.35 1.105 91.35 19.505 80.9 37.607" stroke-width="1.594"/><path d="M84.658 37.155c-1.078-.404-3.594.548-4.042.945.12-.586-.315-3.241-1.203-3.973" stroke-linejoin="round" stroke-linecap="round" stroke-width="1.275"/></g><g stroke-dasharray="3.0,3.0" stroke-width="1.6" fill="none"><path d="M80.297 52.825C91.35 33.68 91.35 15.28 80.9-2.824" stroke-width="1.594"/><path d="M79.413.658c.888-.732 1.323-3.387 1.203-3.973.448.397 2.964 1.348 4.042.944" stroke-linejoin="round" stroke-linecap="round" stroke-dasharray="none" stroke-width="1.275"/></g><g stroke-width="1.6" fill="none"><path d="M46.281-52.056C35.227-71.203.643-71.203-9.809-53.1" stroke-width="1.594"/><path d="M-6.05-53.553c-1.079-.404-3.595.547-4.043.944.12-.586-.314-3.241-1.203-3.973" stroke-linejoin="round" stroke-linecap="round" stroke-width="1.275"/></g><g stroke-dasharray="3.0,3.0" stroke-width="1.6" fill="none"><path d="M-24.585-52.056c11.054-19.147 45.639-19.147 56.09-1.044" stroke-width="1.594"/><path d="M32.992-56.582c-.888.732-1.323 3.387-1.203 3.973-.448-.397-2.964-1.348-4.042-.944" stroke-linejoin="round" stroke-linecap="round" stroke-dasharray="none" stroke-width="1.275"/></g></g></svg>