<svg xmlns="http://www.w3.org/2000/svg" width="254.595" height="220.929" viewBox="-72 -72 190.946 165.697"><g stroke-width=".4" stroke="#000" stroke-miterlimit="10"><path d="M-49.783-67.104a4.696 4.696 0 10-9.393 0 4.696 4.696 0 009.393 0zm14.173 0a4.696 4.696 0 10-9.393 0 4.696 4.696 0 009.393 0zm14.173 0a4.696 4.696 0 10-9.392 0 4.696 4.696 0 009.392 0zm14.173 0a4.696 4.696 0 10-9.392 0 4.696 4.696 0 009.392 0zm14.174 0a4.696 4.696 0 10-9.393 0 4.696 4.696 0 009.393 0zm-56.693 56.692a4.696 4.696 0 10-9.393 0 4.696 4.696 0 009.393 0zm0-14.173a4.696 4.696 0 10-9.393 0 4.696 4.696 0 009.393 0zm0-14.173a4.696 4.696 0 10-9.393 0 4.696 4.696 0 009.393 0zm0-14.173a4.696 4.696 0 10-9.393 0 4.696 4.696 0 009.393 0zm-4.697 0" stroke-width=".399" fill="#fff"/><path d="M-35.61-24.585a4.696 4.696 0 10-9.393 0 4.696 4.696 0 009.393 0zm0-14.173a4.696 4.696 0 10-9.393 0 4.696 4.696 0 009.393 0zm0-14.173a4.696 4.696 0 10-9.393 0 4.696 4.696 0 009.393 0zm14.173 28.346a4.696 4.696 0 10-9.392 0 4.696 4.696 0 009.392 0zm0-14.173a4.696 4.696 0 10-9.392 0 4.696 4.696 0 009.392 0zm0-14.173a4.696 4.696 0 10-9.392 0 4.696 4.696 0 009.392 0zm14.173 28.346a4.696 4.696 0 10-9.392 0 4.696 4.696 0 009.392 0zm0-14.173a4.696 4.696 0 10-9.392 0 4.696 4.696 0 009.392 0zm0-14.173a4.696 4.696 0 10-9.392 0 4.696 4.696 0 009.392 0zm-4.696 0" stroke-width=".399" fill="#0f0"/><path d="M-35.61-10.412a4.696 4.696 0 10-9.393 0 4.696 4.696 0 009.393 0zm14.173 0a4.696 4.696 0 10-9.392 0 4.696 4.696 0 009.392 0zm14.173 0a4.696 4.696 0 10-9.392 0 4.696 4.696 0 009.392 0zm14.174 0a4.696 4.696 0 10-9.393 0 4.696 4.696 0 009.393 0zm0-14.173a4.696 4.696 0 10-9.393 0 4.696 4.696 0 009.393 0zm0-14.173a4.696 4.696 0 10-9.393 0 4.696 4.696 0 009.393 0zm0-14.173a4.696 4.696 0 10-9.393 0 4.696 4.696 0 009.393 0zm-4.697 0" stroke-width=".399" fill="#00f"/><path d="M-49.783 88.801a4.696 4.696 0 10-9.393 0 4.696 4.696 0 009.393 0zm0-14.173a4.696 4.696 0 10-9.393 0 4.696 4.696 0 009.393 0zm0-14.173a4.696 4.696 0 10-9.393 0 4.696 4.696 0 009.393 0zm0-14.174a4.696 4.696 0 10-9.393 0 4.696 4.696 0 009.393 0zm0-14.173a4.696 4.696 0 10-9.393 0 4.696 4.696 0 009.393 0zM6.91 88.801a4.696 4.696 0 10-9.393 0 4.696 4.696 0 009.393 0zm-14.174 0a4.696 4.696 0 10-9.392 0 4.696 4.696 0 009.392 0zm-14.173 0a4.696 4.696 0 10-9.392 0 4.696 4.696 0 009.392 0zm-14.173 0a4.696 4.696 0 10-9.392 0 4.696 4.696 0 009.392 0zm-4.696 0" stroke-width=".399" fill="#fff"/><path d="M-7.264 74.628a4.696 4.696 0 10-9.392 0 4.696 4.696 0 009.392 0zm-14.173 0a4.696 4.696 0 10-9.392 0 4.696 4.696 0 009.392 0zm-14.173 0a4.696 4.696 0 10-9.392 0 4.696 4.696 0 009.392 0zm28.346-14.173a4.696 4.696 0 10-9.392 0 4.696 4.696 0 009.392 0zm-14.173 0a4.696 4.696 0 10-9.392 0 4.696 4.696 0 009.392 0zm-14.173 0a4.696 4.696 0 10-9.392 0 4.696 4.696 0 009.392 0zm28.346-14.174a4.696 4.696 0 10-9.392 0 4.696 4.696 0 009.392 0zm-14.173 0a4.696 4.696 0 10-9.392 0 4.696 4.696 0 009.392 0zm-14.173 0a4.696 4.696 0 10-9.392 0 4.696 4.696 0 009.392 0zm-4.696 0" stroke-width=".399" fill="#0f0"/><path d="M6.91 74.628a4.696 4.696 0 10-9.393 0 4.696 4.696 0 009.393 0zm0-14.173a4.696 4.696 0 10-9.393 0 4.696 4.696 0 009.393 0zm0-14.174a4.696 4.696 0 10-9.393 0 4.696 4.696 0 009.393 0zm0-14.173a4.696 4.696 0 10-9.393 0 4.696 4.696 0 009.393 0zm-14.174 0a4.696 4.696 0 10-9.392 0 4.696 4.696 0 009.392 0zm-14.173 0a4.696 4.696 0 10-9.392 0 4.696 4.696 0 009.392 0zm-14.173 0a4.696 4.696 0 10-9.392 0 4.696 4.696 0 009.392 0zm-4.696 0" stroke-width=".399" fill="#00f"/><path d="M106.122-67.104a4.696 4.696 0 10-9.392 0 4.696 4.696 0 009.392 0zm0 14.173a4.696 4.696 0 10-9.392 0 4.696 4.696 0 009.392 0zm0 14.173a4.696 4.696 0 10-9.392 0 4.696 4.696 0 009.392 0zm0 14.173a4.696 4.696 0 10-9.392 0 4.696 4.696 0 009.392 0zm0 14.173a4.696 4.696 0 10-9.392 0 4.696 4.696 0 009.392 0zM49.43-67.104a4.696 4.696 0 10-9.393 0 4.696 4.696 0 009.392 0zm14.173 0a4.696 4.696 0 10-9.393 0 4.696 4.696 0 009.393 0zm14.173 0a4.696 4.696 0 10-9.393 0 4.696 4.696 0 009.393 0zm14.173 0a4.696 4.696 0 10-9.392 0 4.696 4.696 0 009.392 0zm-4.696 0" stroke-width=".399" fill="#fff"/><path d="M63.603-52.931a4.696 4.696 0 10-9.393 0 4.696 4.696 0 009.393 0zm14.173 0a4.696 4.696 0 10-9.393 0 4.696 4.696 0 009.393 0zm14.173 0a4.696 4.696 0 10-9.392 0 4.696 4.696 0 009.392 0zM63.603-38.758a4.696 4.696 0 10-9.393 0 4.696 4.696 0 009.393 0zm14.173 0a4.696 4.696 0 10-9.393 0 4.696 4.696 0 009.393 0zm14.173 0a4.696 4.696 0 10-9.392 0 4.696 4.696 0 009.392 0zM63.603-24.585a4.696 4.696 0 10-9.393 0 4.696 4.696 0 009.393 0zm14.173 0a4.696 4.696 0 10-9.393 0 4.696 4.696 0 009.393 0zm14.173 0a4.696 4.696 0 10-9.392 0 4.696 4.696 0 009.392 0zm-4.696 0" stroke-width=".399" fill="#0f0"/><path d="M49.43-52.931a4.696 4.696 0 10-9.393 0 4.696 4.696 0 009.392 0zm0 14.173a4.696 4.696 0 10-9.393 0 4.696 4.696 0 009.392 0zm0 14.173a4.696 4.696 0 10-9.393 0 4.696 4.696 0 009.392 0zm0 14.173a4.696 4.696 0 10-9.393 0 4.696 4.696 0 009.392 0zm14.173 0a4.696 4.696 0 10-9.393 0 4.696 4.696 0 009.393 0zm14.173 0a4.696 4.696 0 10-9.393 0 4.696 4.696 0 009.393 0zm14.173 0a4.696 4.696 0 10-9.392 0 4.696 4.696 0 009.392 0zm-4.696 0" stroke-width=".399" fill="#00f"/><path d="M106.122 88.8a4.696 4.696 0 10-9.392 0 4.696 4.696 0 009.392 0zm-14.173 0a4.696 4.696 0 10-9.392 0 4.696 4.696 0 009.392 0zm-14.173 0a4.696 4.696 0 10-9.393 0 4.696 4.696 0 009.393 0zm-14.173 0a4.696 4.696 0 10-9.393 0 4.696 4.696 0 009.393 0zm-14.173 0a4.696 4.696 0 10-9.393 0 4.696 4.696 0 009.392 0zm56.692-56.692a4.696 4.696 0 10-9.392 0 4.696 4.696 0 009.392 0zm0 14.173a4.696 4.696 0 10-9.392 0 4.696 4.696 0 009.392 0zm0 14.174a4.696 4.696 0 10-9.392 0 4.696 4.696 0 009.392 0zm0 14.173a4.696 4.696 0 10-9.392 0 4.696 4.696 0 009.392 0zm-4.696 0" stroke-width=".399" fill="#fff"/><path d="M91.949 46.281a4.696 4.696 0 10-9.392 0 4.696 4.696 0 009.392 0zm0 14.174a4.696 4.696 0 10-9.392 0 4.696 4.696 0 009.392 0zm0 14.173a4.696 4.696 0 10-9.392 0 4.696 4.696 0 009.392 0zM77.776 46.281a4.696 4.696 0 10-9.393 0 4.696 4.696 0 009.393 0zm0 14.174a4.696 4.696 0 10-9.393 0 4.696 4.696 0 009.393 0zm0 14.173a4.696 4.696 0 10-9.393 0 4.696 4.696 0 009.393 0zM63.603 46.281a4.696 4.696 0 10-9.393 0 4.696 4.696 0 009.393 0zm0 14.174a4.696 4.696 0 10-9.393 0 4.696 4.696 0 009.393 0zm0 14.173a4.696 4.696 0 10-9.393 0 4.696 4.696 0 009.393 0zm-4.697 0" stroke-width=".399" fill="#0f0"/><path d="M91.949 32.108a4.696 4.696 0 10-9.392 0 4.696 4.696 0 009.392 0zm-14.173 0a4.696 4.696 0 10-9.393 0 4.696 4.696 0 009.393 0zm-14.173 0a4.696 4.696 0 10-9.393 0 4.696 4.696 0 009.393 0zm-14.173 0a4.696 4.696 0 10-9.393 0 4.696 4.696 0 009.392 0zm0 14.173a4.696 4.696 0 10-9.393 0 4.696 4.696 0 009.392 0zm0 14.174a4.696 4.696 0 10-9.393 0 4.696 4.696 0 009.392 0zm0 14.173a4.696 4.696 0 10-9.393 0 4.696 4.696 0 009.392 0zm-4.697 0" stroke-width=".399" fill="#00f"/><path d="M-60.149 37.777V26.44H7.883v11.338zm0 14.173V40.613H7.883v11.339zm0-70.866v-11.338H7.883v11.338zm0 14.174v-11.339H7.883v11.339zm99.213 42.519V26.44h68.031v11.338zm0 14.173V40.613h68.031v11.339zm0-70.866v-11.338h68.031v11.338zm0 14.174v-11.339h68.031v11.339zm68.031-11.339" fill="none" stroke-width=".399"/><g stroke-width="1.6" fill="none"><path d="M-60.149-24.585c-11.054 19.147-11.054 37.547-.602 55.65" stroke-width="1.594"/><path d="M-59.264 27.583c-.89.732-1.324 3.387-1.204 3.973-.447-.397-2.964-1.349-4.042-.945" stroke-linejoin="round" stroke-linecap="round" stroke-width="1.275"/></g><g stroke-dasharray="3.0,3.0" stroke-width="1.6" fill="none"><path d="M-60.149 46.281C-71.203 27.135-71.203 8.735-60.75-9.368" stroke-width="1.594"/><path d="M-64.51-8.915c1.078.404 3.595-.547 4.042-.944-.12.586.315 3.241 1.204 3.973" stroke-linejoin="round" stroke-linecap="round" stroke-dasharray="none" stroke-width="1.275"/></g><g stroke-width="1.6" fill="none"><path d="M107.095-24.585c11.054 19.147 11.054 37.547.603 55.65" stroke-width="1.594"/><path d="M111.456 30.611c-1.078-.404-3.594.548-4.042.945.12-.586-.314-3.241-1.203-3.973" stroke-linejoin="round" stroke-linecap="round" stroke-width="1.275"/></g><g stroke-dasharray="3.0,3.0" stroke-width="1.6" fill="none"><path d="M107.095 46.281c11.054-19.146 11.054-37.546.603-55.649" stroke-width="1.594"/><path d="M106.21-5.886c.89-.732 1.324-3.387 1.204-3.973.448.397 2.964 1.348 4.042.944" stroke-linejoin="round" stroke-linecap="round" stroke-dasharray="none" stroke-width="1.275"/></g></g></svg>