<svg xmlns="http://www.w3.org/2000/svg" width="139.873" height="139.873" viewBox="-72 -72 104.905 104.905"><g stroke-width=".4" stroke="#000" stroke-miterlimit="10"><path d="M-67.104 32.108h99.212m-99.212-14.173h99.212M-67.104 3.762h99.212m-99.212-14.174h99.212m-99.212-14.173h99.212m-99.212-14.173h99.212m-99.212-14.173h99.212m-99.212-14.173h99.212m-99.212 99.212v-99.212m14.173 99.212v-99.212m14.173 99.212v-99.212m14.173 99.212v-99.212m14.173 99.212v-99.212M3.762 32.108v-99.212m14.173 99.212v-99.212m14.173 99.212v-99.212m0 0" fill="none" stroke-dasharray="3.0,3.0" stroke-width=".199" stroke="gray"/><path d="M-67.104-17.498h99.212m-49.606 49.606v-99.212" fill="none" stroke-width="1.594"/><path d="M-48.235-67.104a4.696 4.696 0 10-9.392 0 4.696 4.696 0 009.392 0zm14.173 0a4.696 4.696 0 10-9.392 0 4.696 4.696 0 009.392 0zm14.173 0a4.696 4.696 0 10-9.392 0 4.696 4.696 0 009.392 0zm-42.519 42.519a4.696 4.696 0 10-9.393 0 4.696 4.696 0 009.393 0zm0-14.173a4.696 4.696 0 10-9.393 0 4.696 4.696 0 009.393 0zm0-14.173a4.696 4.696 0 10-9.393 0 4.696 4.696 0 009.393 0zm-4.696 0" stroke-width=".399" fill="#fff"/><path d="M-48.235-24.585a4.696 4.696 0 10-9.392 0 4.696 4.696 0 009.392 0zm0-14.173a4.696 4.696 0 10-9.392 0 4.696 4.696 0 009.392 0zm0-14.173a4.696 4.696 0 10-9.392 0 4.696 4.696 0 009.392 0zm14.173 28.346a4.696 4.696 0 10-9.392 0 4.696 4.696 0 009.392 0zm0-14.173a4.696 4.696 0 10-9.392 0 4.696 4.696 0 009.392 0zm0-14.173a4.696 4.696 0 10-9.392 0 4.696 4.696 0 009.392 0zm14.173 28.346a4.696 4.696 0 10-9.392 0 4.696 4.696 0 009.392 0zm0-14.173a4.696 4.696 0 10-9.392 0 4.696 4.696 0 009.392 0zm0-14.173a4.696 4.696 0 10-9.392 0 4.696 4.696 0 009.392 0zm-4.696 0" stroke-width=".399" fill="#0f0"/><path d="M-48.235-10.412a4.696 4.696 0 10-9.392 0 4.696 4.696 0 009.392 0zm14.173 0a4.696 4.696 0 10-9.392 0 4.696 4.696 0 009.392 0zm14.173 0a4.696 4.696 0 10-9.392 0 4.696 4.696 0 009.392 0zm14.174-14.173a4.696 4.696 0 10-9.393 0 4.696 4.696 0 009.393 0zm0-14.173a4.696 4.696 0 10-9.393 0 4.696 4.696 0 009.393 0zm0-14.173a4.696 4.696 0 10-9.393 0 4.696 4.696 0 009.393 0zm-4.697 0" stroke-width=".399" fill="#00f"/></g></svg>