<svg xmlns="http://www.w3.org/2000/svg" width="220.929" height="276.175" viewBox="-72 -72 165.697 207.131"><g stroke-width=".4" stroke="#000" stroke-miterlimit="10"><path d="M-62.408-46.387a4.696 4.696 0 10-9.393 0 4.696 4.696 0 009.393 0zm14.173 0a4.696 4.696 0 10-9.392 0 4.696 4.696 0 009.392 0zm14.173 0a4.696 4.696 0 10-9.392 0 4.696 4.696 0 009.392 0zm14.173 0a4.696 4.696 0 10-9.392 0 4.696 4.696 0 009.392 0zm14.174 0a4.696 4.696 0 10-9.393 0 4.696 4.696 0 009.393 0zm-56.693 56.693a4.696 4.696 0 10-9.393 0 4.696 4.696 0 009.393 0zm0-14.174a4.696 4.696 0 10-9.393 0 4.696 4.696 0 009.393 0zm0-14.172a4.696 4.696 0 10-9.393 0 4.696 4.696 0 009.393 0zm0-14.174a4.696 4.696 0 10-9.393 0 4.696 4.696 0 009.393 0zm-4.696 0" stroke-width=".399" fill="#fff"/><path d="M-48.235-3.868a4.696 4.696 0 10-9.392 0 4.696 4.696 0 009.392 0zm0-14.172a4.696 4.696 0 10-9.392 0 4.696 4.696 0 009.392 0zm0-14.174a4.696 4.696 0 10-9.392 0 4.696 4.696 0 009.392 0zm14.173 28.346a4.696 4.696 0 10-9.392 0 4.696 4.696 0 009.392 0zm0-14.172a4.696 4.696 0 10-9.392 0 4.696 4.696 0 009.392 0zm0-14.174a4.696 4.696 0 10-9.392 0 4.696 4.696 0 009.392 0zm14.173 28.346a4.696 4.696 0 10-9.392 0 4.696 4.696 0 009.392 0zm0-14.172a4.696 4.696 0 10-9.392 0 4.696 4.696 0 009.392 0zm0-14.174a4.696 4.696 0 10-9.392 0 4.696 4.696 0 009.392 0zm-4.696 0" stroke-width=".399" fill="#0f0"/><path d="M-48.235 10.306a4.696 4.696 0 10-9.392 0 4.696 4.696 0 009.392 0zm14.173 0a4.696 4.696 0 10-9.392 0 4.696 4.696 0 009.392 0zm14.173 0a4.696 4.696 0 10-9.392 0 4.696 4.696 0 009.392 0zm14.174 0a4.696 4.696 0 10-9.393 0 4.696 4.696 0 009.393 0zm0-14.174a4.696 4.696 0 10-9.393 0 4.696 4.696 0 009.393 0zm0-14.172a4.696 4.696 0 10-9.393 0 4.696 4.696 0 009.393 0zm0-14.174a4.696 4.696 0 10-9.393 0 4.696 4.696 0 009.393 0zm-4.697 0" stroke-width=".399" fill="#00f"/><path d="M-62.408 109.518a4.696 4.696 0 10-9.393 0 4.696 4.696 0 009.393 0zm0-14.173a4.696 4.696 0 10-9.393 0 4.696 4.696 0 009.393 0zm0-14.173a4.696 4.696 0 10-9.393 0 4.696 4.696 0 009.393 0zm0-14.173a4.696 4.696 0 10-9.393 0 4.696 4.696 0 009.393 0zm0-14.174a4.696 4.696 0 10-9.393 0 4.696 4.696 0 009.393 0zm56.693 56.693a4.696 4.696 0 10-9.393 0 4.696 4.696 0 009.393 0zm-14.174 0a4.696 4.696 0 10-9.392 0 4.696 4.696 0 009.392 0zm-14.173 0a4.696 4.696 0 10-9.392 0 4.696 4.696 0 009.392 0zm-14.173 0a4.696 4.696 0 10-9.392 0 4.696 4.696 0 009.392 0zm-4.696 0" stroke-width=".399" fill="#fff"/><path d="M-19.889 95.345a4.696 4.696 0 10-9.392 0 4.696 4.696 0 009.392 0zm-14.173 0a4.696 4.696 0 10-9.392 0 4.696 4.696 0 009.392 0zm-14.173 0a4.696 4.696 0 10-9.392 0 4.696 4.696 0 009.392 0zm28.346-14.173a4.696 4.696 0 10-9.392 0 4.696 4.696 0 009.392 0zm-14.173 0a4.696 4.696 0 10-9.392 0 4.696 4.696 0 009.392 0zm-14.173 0a4.696 4.696 0 10-9.392 0 4.696 4.696 0 009.392 0zm28.346-14.173a4.696 4.696 0 10-9.392 0 4.696 4.696 0 009.392 0zm-14.173 0a4.696 4.696 0 10-9.392 0 4.696 4.696 0 009.392 0zm-14.173 0a4.696 4.696 0 10-9.392 0 4.696 4.696 0 009.392 0zm-4.696 0" stroke-width=".399" fill="#0f0"/><path d="M-5.715 95.345a4.696 4.696 0 10-9.393 0 4.696 4.696 0 009.393 0zm0-14.173a4.696 4.696 0 10-9.393 0 4.696 4.696 0 009.393 0zm0-14.173a4.696 4.696 0 10-9.393 0 4.696 4.696 0 009.393 0zm0-14.174a4.696 4.696 0 10-9.393 0 4.696 4.696 0 009.393 0zm-14.174 0a4.696 4.696 0 10-9.392 0 4.696 4.696 0 009.392 0zm-14.173 0a4.696 4.696 0 10-9.392 0 4.696 4.696 0 009.392 0zm-14.173 0a4.696 4.696 0 10-9.392 0 4.696 4.696 0 009.392 0zm-4.696 0" stroke-width=".399" fill="#00f"/><path d="M93.497-46.387a4.696 4.696 0 10-9.392 0 4.696 4.696 0 009.392 0zm0 14.173a4.696 4.696 0 10-9.392 0 4.696 4.696 0 009.392 0zm0 14.174a4.696 4.696 0 10-9.392 0 4.696 4.696 0 009.392 0zm0 14.172a4.696 4.696 0 10-9.392 0 4.696 4.696 0 009.392 0zm0 14.174a4.696 4.696 0 10-9.392 0 4.696 4.696 0 009.392 0zM36.804-46.387a4.696 4.696 0 10-9.392 0 4.696 4.696 0 009.392 0zm14.174 0a4.696 4.696 0 10-9.393 0 4.696 4.696 0 009.393 0zm14.172 0a4.696 4.696 0 10-9.392 0 4.696 4.696 0 009.393 0zm14.174 0a4.696 4.696 0 10-9.392 0 4.696 4.696 0 009.392 0zm-4.696 0" stroke-width=".399" fill="#fff"/><path d="M50.978-32.214a4.696 4.696 0 10-9.393 0 4.696 4.696 0 009.393 0zm14.172 0a4.696 4.696 0 10-9.392 0 4.696 4.696 0 009.393 0zm14.174 0a4.696 4.696 0 10-9.392 0 4.696 4.696 0 009.392 0zM50.978-18.04a4.696 4.696 0 10-9.393 0 4.696 4.696 0 009.393 0zm14.172 0a4.696 4.696 0 10-9.392 0 4.696 4.696 0 009.393 0zm14.174 0a4.696 4.696 0 10-9.392 0 4.696 4.696 0 009.392 0zM50.978-3.868a4.696 4.696 0 10-9.393 0 4.696 4.696 0 009.393 0zm14.172 0a4.696 4.696 0 10-9.392 0 4.696 4.696 0 009.393 0zm14.174 0a4.696 4.696 0 10-9.392 0 4.696 4.696 0 009.392 0zm-4.696 0" stroke-width=".399" fill="#0f0"/><path d="M36.804-32.214a4.696 4.696 0 10-9.392 0 4.696 4.696 0 009.392 0zm0 14.174a4.696 4.696 0 10-9.392 0 4.696 4.696 0 009.392 0zm0 14.172a4.696 4.696 0 10-9.392 0 4.696 4.696 0 009.392 0zm0 14.174a4.696 4.696 0 10-9.392 0 4.696 4.696 0 009.392 0zm14.174 0a4.696 4.696 0 10-9.393 0 4.696 4.696 0 009.393 0zm14.172 0a4.696 4.696 0 10-9.392 0 4.696 4.696 0 009.393 0zm14.174 0a4.696 4.696 0 10-9.392 0 4.696 4.696 0 009.392 0zm-4.696 0" stroke-width=".399" fill="#00f"/><path d="M93.497 109.518a4.696 4.696 0 10-9.392 0 4.696 4.696 0 009.392 0zm-14.173 0a4.696 4.696 0 10-9.392 0 4.696 4.696 0 009.392 0zm-14.174 0a4.696 4.696 0 10-9.392 0 4.696 4.696 0 009.393 0zm-14.172 0a4.696 4.696 0 10-9.393 0 4.696 4.696 0 009.393 0zm-14.174 0a4.696 4.696 0 10-9.392 0 4.696 4.696 0 009.392 0zm56.693-56.693a4.696 4.696 0 10-9.392 0 4.696 4.696 0 009.392 0zm0 14.174a4.696 4.696 0 10-9.392 0 4.696 4.696 0 009.392 0zm0 14.173a4.696 4.696 0 10-9.392 0 4.696 4.696 0 009.392 0zm0 14.173a4.696 4.696 0 10-9.392 0 4.696 4.696 0 009.392 0zm-4.696 0" stroke-width=".399" fill="#fff"/><path d="M79.324 66.999a4.696 4.696 0 10-9.392 0 4.696 4.696 0 009.392 0zm0 14.173a4.696 4.696 0 10-9.392 0 4.696 4.696 0 009.392 0zm0 14.173a4.696 4.696 0 10-9.392 0 4.696 4.696 0 009.392 0zM65.15 66.999a4.696 4.696 0 10-9.392 0 4.696 4.696 0 009.393 0zm0 14.173a4.696 4.696 0 10-9.392 0 4.696 4.696 0 009.393 0zm0 14.173a4.696 4.696 0 10-9.392 0 4.696 4.696 0 009.393 0zM50.978 66.999a4.696 4.696 0 10-9.393 0 4.696 4.696 0 009.393 0zm0 14.173a4.696 4.696 0 10-9.393 0 4.696 4.696 0 009.393 0zm0 14.173a4.696 4.696 0 10-9.393 0 4.696 4.696 0 009.393 0zm-4.697 0" stroke-width=".399" fill="#0f0"/><path d="M79.324 52.825a4.696 4.696 0 10-9.392 0 4.696 4.696 0 009.392 0zm-14.174 0a4.696 4.696 0 10-9.392 0 4.696 4.696 0 009.393 0zm-14.172 0a4.696 4.696 0 10-9.393 0 4.696 4.696 0 009.393 0zm-14.174 0a4.696 4.696 0 10-9.392 0 4.696 4.696 0 009.392 0zm0 14.174a4.696 4.696 0 10-9.392 0 4.696 4.696 0 009.392 0zm0 14.173a4.696 4.696 0 10-9.392 0 4.696 4.696 0 009.392 0zm0 14.173a4.696 4.696 0 10-9.392 0 4.696 4.696 0 009.392 0zm-4.696 0" stroke-width=".399" fill="#00f"/><path d="M-16.08 115.187V61.33h11.338v53.858zm-14.174 0V61.33h11.338v53.858zM-16.08 1.802v-53.858h11.338V1.802zm-14.174 0v-53.858h11.338V1.802zm70.866 113.385V61.33H51.95v53.858zm-14.173 0V61.33h11.338v53.858zM40.612 1.802v-53.858H51.95V1.802zm-14.173 0v-53.858h11.338V1.802zm11.338-53.858" fill="none" stroke-width=".399"/><g stroke-width="1.6" fill="none"><path d="M46.281 115.187c-11.054 19.147-45.638 19.147-56.09 1.044" stroke-width="1.594"/><path d="M-11.296 119.713c.889-.732 1.323-3.387 1.203-3.973.448.397 2.964 1.348 4.043.944" stroke-linejoin="round" stroke-linecap="round" stroke-width="1.275"/></g><g stroke-dasharray="3.0,3.0" stroke-width="1.6" fill="none"><path d="M-24.585 115.187c11.054 19.147 45.639 19.147 56.09 1.044" stroke-width="1.594"/><path d="M27.747 116.684c1.078.404 3.594-.547 4.042-.944-.12.586.315 3.241 1.203 3.973" stroke-linejoin="round" stroke-linecap="round" stroke-dasharray="none" stroke-width="1.275"/></g><g stroke-width="1.6" fill="none"><path d="M46.281-52.056C35.227-71.203.643-71.203-9.809-53.1" stroke-width="1.594"/><path d="M-6.05-53.553c-1.079-.404-3.595.547-4.043.944.12-.586-.314-3.241-1.203-3.973" stroke-linejoin="round" stroke-linecap="round" stroke-width="1.275"/></g><g stroke-dasharray="3.0,3.0" stroke-width="1.6" fill="none"><path d="M-24.585-52.056c11.054-19.147 45.639-19.147 56.09-1.044" stroke-width="1.594"/><path d="M32.992-56.582c-.888.732-1.323 3.387-1.203 3.973-.448-.397-2.964-1.348-4.042-.944" stroke-linejoin="round" stroke-linecap="round" stroke-dasharray="none" stroke-width="1.275"/></g></g></svg>