<svg xmlns="http://www.w3.org/2000/svg" width="307.618" height="231.202" viewBox="-72 -72 230.713 173.402"><g stroke-width=".399" stroke="#000" stroke-miterlimit="10"><path d="M-71.8 16.782v-88.583h88.582v88.583zm88.582-88.583" fill="none"/><path d="M12.62-62.942a4.696 4.696 0 10-9.393 0 4.696 4.696 0 009.393 0zm0 17.716a4.696 4.696 0 10-9.393 0 4.696 4.696 0 009.393 0zm0 17.716a4.696 4.696 0 10-9.393 0 4.696 4.696 0 009.393 0zm0 17.717a4.696 4.696 0 10-9.393 0 4.696 4.696 0 009.393 0zM-58.246 7.924a4.696 4.696 0 10-9.393 0 4.696 4.696 0 009.393 0zm17.716 0a4.696 4.696 0 10-9.392 0 4.696 4.696 0 009.392 0zm17.717 0a4.696 4.696 0 10-9.393 0 4.696 4.696 0 009.393 0zm17.716 0a4.696 4.696 0 10-9.392 0 4.696 4.696 0 009.392 0zm-4.696 0" fill="none"/><path d="M-58.246-62.942a4.696 4.696 0 10-9.393 0 4.696 4.696 0 009.393 0zm-4.696 0" fill="#0f0"/><path d="M-40.53-45.226a4.696 4.696 0 10-9.392 0 4.696 4.696 0 009.392 0zm-4.696 0" fill="#ff0"/><path d="M-22.813-27.51a4.696 4.696 0 10-9.393 0 4.696 4.696 0 009.393 0zm-4.696 0" fill="#0ff"/><path d="M-5.097-9.793a4.696 4.696 0 10-9.392 0 4.696 4.696 0 009.392 0zm-4.696 0" fill="#00f"/><path d="M12.62 7.924a4.696 4.696 0 10-9.393 0 4.696 4.696 0 009.393 0zm-35.433 53.149a4.696 4.696 0 10-9.393 0 4.696 4.696 0 009.393 0zm-4.696 0"/><path d="M-49.388 96.506a4.696 4.696 0 10-9.392 0 4.696 4.696 0 009.392 0zm-4.696 0" fill="#0f0"/><path d="M-31.671 96.506a4.696 4.696 0 10-9.393 0 4.696 4.696 0 009.393 0zm-4.697 0" fill="#ff0"/><path d="M-13.955 96.506a4.696 4.696 0 10-9.392 0 4.696 4.696 0 009.392 0zm-4.696 0" fill="#0ff"/><path d="M3.762 96.506a4.696 4.696 0 10-9.393 0 4.696 4.696 0 009.393 0zm-4.697 0" fill="#00f"/><path d="M-30.434 64.983L-51.14 92.589m22.457-26.773l-6.486 25.94m8.862-25.941l6.485 25.94m-4.735-26.775l20.704 27.608m73.785-75.806v-88.583h88.582v88.583zm88.582-88.583" fill="none"/><path d="M154.352-62.942a4.696 4.696 0 10-9.392 0 4.696 4.696 0 009.392 0zm0 17.716a4.696 4.696 0 10-9.392 0 4.696 4.696 0 009.392 0zm0 17.716a4.696 4.696 0 10-9.392 0 4.696 4.696 0 009.392 0zm0 17.717a4.696 4.696 0 10-9.392 0 4.696 4.696 0 009.392 0zM83.486 7.924a4.696 4.696 0 10-9.392 0 4.696 4.696 0 009.392 0zm17.717 0a4.696 4.696 0 10-9.393 0 4.696 4.696 0 009.393 0zm17.717 0a4.696 4.696 0 10-9.393 0 4.696 4.696 0 009.392 0zm17.716 0a4.696 4.696 0 10-9.393 0 4.696 4.696 0 009.393 0zm-4.697 0" fill="none"/><path d="M83.486-62.942a4.696 4.696 0 10-9.392 0 4.696 4.696 0 009.392 0zm-4.696 0" fill="#0f0"/><path d="M101.203-45.226a4.696 4.696 0 10-9.393 0 4.696 4.696 0 009.393 0zm-4.697 0" fill="#ff0"/><path d="M118.92-27.51a4.696 4.696 0 10-9.393 0 4.696 4.696 0 009.392 0zm-4.697 0" fill="#0ff"/><path d="M136.636-9.793a4.696 4.696 0 10-9.393 0 4.696 4.696 0 009.393 0zm-4.697 0" fill="#00f"/><path d="M154.352 7.924a4.696 4.696 0 10-9.392 0 4.696 4.696 0 009.392 0zM118.92 61.073a4.696 4.696 0 10-9.393 0 4.696 4.696 0 009.392 0zm-4.697 0"/><path d="M92.344 96.506a4.696 4.696 0 10-9.392 0 4.696 4.696 0 009.392 0zm-4.696 0" fill="#0f0"/><path d="M110.06 96.506a4.696 4.696 0 10-9.392 0 4.696 4.696 0 009.393 0zm-4.695 0" fill="#ff0"/><path d="M127.777 96.506a4.696 4.696 0 10-9.392 0 4.696 4.696 0 009.392 0zm-4.696 0" fill="#0ff"/><path d="M145.494 96.506a4.696 4.696 0 10-9.393 0 4.696 4.696 0 009.393 0zm-4.696 0" fill="#00f"/><path d="M111.298 64.983L90.593 92.589m22.457-26.773l-6.486 25.94m8.861-25.941l6.485 25.94m-4.735-26.775l20.705 27.608" fill="none"/></g></svg>