<svg xmlns="http://www.w3.org/2000/svg" width="394.195" height="151.594" viewBox="-72 -72 295.646 113.695"><g stroke-width=".4" stroke="#000" stroke-miterlimit="10"><path d="M-53.372-48.902a1.14 1.14 0 10-2.28 0 1.14 1.14 0 002.28 0zm7.86-6.75a1.14 1.14 0 10-2.28 0 1.14 1.14 0 002.28 0zm-6.75-11.25a1.14 1.14 0 10-2.28 0 1.14 1.14 0 002.28 0zm-11.25 9a1.14 1.14 0 10-2.28 0 1.14 1.14 0 002.28 0zm-1.14 0" stroke-width=".399"/><path d="M-53.372-57.902a2.28 2.28 0 10-4.56 0 2.28 2.28 0 004.56 0zm-2.28 0" fill="red" stroke-width=".399"/><path d="M-35.372 23.098a1.14 1.14 0 10-2.28 0 1.14 1.14 0 002.28 0zm7.86-6.75a1.14 1.14 0 10-2.28 0 1.14 1.14 0 002.28 0zm-6.75-11.25a1.14 1.14 0 10-2.28 0 1.14 1.14 0 002.28 0zm-11.25 9a1.14 1.14 0 10-2.28 0 1.14 1.14 0 002.28 0zm-1.14 0" stroke-width=".399"/><path d="M-35.372 14.098a2.28 2.28 0 10-4.56 0 2.28 2.28 0 004.56 0zm-2.28 0" fill="#00f" stroke-width=".399"/><path d="M-43.442-21.932a3.21 3.21 0 10-6.42 0 3.21 3.21 0 006.42 0zm-3.21 0" fill="#ff0" stroke-width=".399"/><path d="M196.378-19.652a1.14 1.14 0 10-2.28 0 1.14 1.14 0 002.28 0zm7.86-6.75a1.14 1.14 0 10-2.28 0 1.14 1.14 0 002.28 0zm-18-2.25a1.14 1.14 0 10-2.28 0 1.14 1.14 0 002.28 0zm13.5-15.75a1.14 1.14 0 10-2.28 0 1.14 1.14 0 002.28 0zm-1.14 0" stroke-width=".399"/><path d="M198.598-33.152a2.28 2.28 0 10-4.56 0 2.28 2.28 0 004.56 0zm-2.28 0" fill="#0f0" stroke-width=".399"/><path d="M-69.152-69.152v54h54v-54zm54 54" fill="none" stroke="red" stroke-width=".598"/><path d="M-69.152-14.432v53.28h54v-53.28zm54 53.28" fill="none" stroke="#00f" stroke-width=".598"/><path d="M-71.402-71.402v112.5h110.25v-112.5zm110.25 112.5" fill="none" stroke="#ff0" stroke-width="1.196"/><path d="M169.348-52.682V.598h54v-53.28zm54 53.28" fill="none" stroke="#0f0" stroke-width=".598"/><path d="M185.098-28.652l-226.792 6.736" fill="none" stroke-width=".399"/><path d="M-40.452-20.358c-.117-.595-1.24-1.458-1.54-1.549.295-.108 1.364-1.037 1.445-1.637" fill="none" stroke-linejoin="round" stroke-linecap="round" stroke-width=".319"/><path d="M185.098-28.652l13.201-15.402" fill="none" stroke-width=".399"/><path d="M196.311-44.184c.519.313 1.913.065 2.183-.097-.119.291-.151 1.707.238 2.172" fill="none" stroke-linejoin="round" stroke-linecap="round" stroke-width=".319"/><g fill="none"><path d="M185.098-28.652l15.296 2.185" stroke-width=".399"/><path d="M199.436-28.214c.014.606.972 1.648 1.254 1.79-.31.056-1.522.788-1.705 1.366" stroke-linejoin="round" stroke-linecap="round" stroke-width=".319"/></g><g fill="none"><path d="M185.098-28.652l8.676 8.676" stroke-width=".399"/><path d="M194.055-21.949c-.352.493-.211 1.902-.07 2.184-.282-.141-1.69-.282-2.184.07" stroke-linejoin="round" stroke-linecap="round" stroke-width=".319"/></g></g></svg>