<svg xmlns="http://www.w3.org/2000/svg" width="307.618" height="231.202" viewBox="-72 -72 230.713 173.402"><g stroke-width=".4" stroke="#000" stroke-miterlimit="10"><path d="M-71.8 16.782v-88.583h88.582v88.583zm88.582-88.583" fill="none" stroke-width=".399"/><path d="M-58.246-45.226a4.696 4.696 0 10-9.393 0 4.696 4.696 0 009.393 0zm0 17.716a4.696 4.696 0 10-9.393 0 4.696 4.696 0 009.393 0zm0 17.717a4.696 4.696 0 10-9.393 0 4.696 4.696 0 009.393 0zm0 17.717a4.696 4.696 0 10-9.393 0 4.696 4.696 0 009.393 0zm17.716-70.866a4.696 4.696 0 10-9.392 0 4.696 4.696 0 009.392 0zm17.717 0a4.696 4.696 0 10-9.393 0 4.696 4.696 0 009.393 0zm17.716 0a4.696 4.696 0 10-9.392 0 4.696 4.696 0 009.392 0zm17.717 0a4.696 4.696 0 10-9.393 0 4.696 4.696 0 009.393 0zm-4.696 0" fill="none" stroke-width=".399"/><path d="M-58.246-62.942a4.696 4.696 0 10-9.393 0 4.696 4.696 0 009.393 0zm-4.696 0" stroke-width=".399"/><path d="M-40.53-45.226a4.696 4.696 0 10-9.392 0 4.696 4.696 0 009.392 0zm-4.696 0" stroke-width=".399" fill="#0f0"/><path d="M-22.813-27.51a4.696 4.696 0 10-9.393 0 4.696 4.696 0 009.393 0zm-4.696 0" stroke-width=".399" fill="#ff0"/><path d="M-5.097-9.793a4.696 4.696 0 10-9.392 0 4.696 4.696 0 009.392 0zm-4.696 0" stroke-width=".399" fill="#0ff"/><path d="M12.62 7.924a4.696 4.696 0 10-9.393 0 4.696 4.696 0 009.393 0zm-4.696 0" stroke-width=".399" fill="#00f"/><path d="M-22.813 96.506a4.696 4.696 0 10-9.393 0 4.696 4.696 0 009.393 0zm-4.696 0" stroke-width=".399"/><path d="M-49.388 61.073a4.696 4.696 0 10-9.392 0 4.696 4.696 0 009.392 0zm-4.696 0" stroke-width=".399" fill="#0f0"/><path d="M-31.671 61.073a4.696 4.696 0 10-9.393 0 4.696 4.696 0 009.393 0zm-4.697 0" stroke-width=".399" fill="#ff0"/><path d="M-13.955 61.073a4.696 4.696 0 10-9.392 0 4.696 4.696 0 009.392 0zm-4.696 0" stroke-width=".399" fill="#0ff"/><path d="M3.762 61.073a4.696 4.696 0 10-9.393 0 4.696 4.696 0 009.393 0zm-4.697 0" stroke-width=".399" fill="#00f"/><path d="M-30.434 92.588l-20.705-27.607m22.456 26.774l-6.485-25.94m8.86 25.941l6.485-25.94m-4.735 26.774l20.705-27.607m73.785-48.201v-88.583h88.582v88.583zm88.582-88.583" fill="none" stroke-width=".399"/><path d="M83.486-45.226a4.696 4.696 0 10-9.392 0 4.696 4.696 0 009.392 0zm0 17.716a4.696 4.696 0 10-9.392 0 4.696 4.696 0 009.392 0zm0 17.717a4.696 4.696 0 10-9.392 0 4.696 4.696 0 009.392 0zm0 17.717a4.696 4.696 0 10-9.392 0 4.696 4.696 0 009.392 0zm17.717-70.866a4.696 4.696 0 10-9.393 0 4.696 4.696 0 009.393 0zm17.717 0a4.696 4.696 0 10-9.393 0 4.696 4.696 0 009.392 0zm17.716 0a4.696 4.696 0 10-9.393 0 4.696 4.696 0 009.393 0zm17.716 0a4.696 4.696 0 10-9.392 0 4.696 4.696 0 009.392 0zm-4.696 0" fill="none" stroke-width=".399"/><path d="M83.486-62.942a4.696 4.696 0 10-9.392 0 4.696 4.696 0 009.392 0zm-4.696 0" stroke-width=".399"/><path d="M101.203-45.226a4.696 4.696 0 10-9.393 0 4.696 4.696 0 009.393 0zm-4.697 0" stroke-width=".399" fill="#0f0"/><path d="M118.92-27.51a4.696 4.696 0 10-9.393 0 4.696 4.696 0 009.392 0zm-4.697 0" stroke-width=".399" fill="#ff0"/><path d="M136.636-9.793a4.696 4.696 0 10-9.393 0 4.696 4.696 0 009.393 0zm-4.697 0" stroke-width=".399" fill="#0ff"/><path d="M154.352 7.924a4.696 4.696 0 10-9.392 0 4.696 4.696 0 009.392 0zm-4.696 0" stroke-width=".399" fill="#00f"/><path d="M101.203-27.51a4.696 4.696 0 10-9.393 0 4.696 4.696 0 009.393 0zm0 17.717a4.696 4.696 0 10-9.393 0 4.696 4.696 0 009.393 0zm0 17.717a4.696 4.696 0 10-9.393 0 4.696 4.696 0 009.393 0zm17.717-53.15a4.696 4.696 0 10-9.393 0 4.696 4.696 0 009.392 0zm0 35.433a4.696 4.696 0 10-9.393 0 4.696 4.696 0 009.392 0zm0 17.717a4.696 4.696 0 10-9.393 0 4.696 4.696 0 009.392 0zm17.716-53.15a4.696 4.696 0 10-9.393 0 4.696 4.696 0 009.393 0zm0 17.716a4.696 4.696 0 10-9.393 0 4.696 4.696 0 009.393 0zm0 35.434a4.696 4.696 0 10-9.393 0 4.696 4.696 0 009.393 0zm17.716-53.15a4.696 4.696 0 10-9.392 0 4.696 4.696 0 009.392 0zm0 17.716a4.696 4.696 0 10-9.392 0 4.696 4.696 0 009.392 0zm0 17.717a4.696 4.696 0 10-9.392 0 4.696 4.696 0 009.392 0zm-4.696 0" fill="none" stroke-width="1.594" stroke="red"/><path d="M118.92 96.506a4.696 4.696 0 10-9.393 0 4.696 4.696 0 009.392 0zm-4.697 0" stroke-width=".399"/><path d="M92.344 61.073a4.696 4.696 0 10-9.392 0 4.696 4.696 0 009.392 0zm-4.696 0" stroke-width=".399" fill="#0f0"/><path d="M110.06 61.073a4.696 4.696 0 10-9.392 0 4.696 4.696 0 009.393 0zm-4.695 0" stroke-width=".399" fill="#ff0"/><path d="M127.777 61.073a4.696 4.696 0 10-9.392 0 4.696 4.696 0 009.392 0zm-4.696 0" stroke-width=".399" fill="#0ff"/><path d="M145.494 61.073a4.696 4.696 0 10-9.393 0 4.696 4.696 0 009.393 0zm-4.696 0" stroke-width=".399" fill="#00f"/><path d="M111.298 92.588L90.593 64.981m22.457 26.774l-6.486-25.94m8.861 25.941l6.485-25.94m-4.736 26.774l20.705-27.607" fill="none" stroke-width=".399"/><path d="M87.654 56.168c0-6.91 17.72-6.91 17.72 0m.001 0c0-6.91 17.72-6.91 17.72 0m.001 0c0-6.91 17.72-6.91 17.72 0m-53.162 9.794c0 13.82 35.442 13.82 35.442 0m-17.721 0c0 13.82 35.441 13.82 35.441 0m-53.162-9.794c0-20.731 53.162-20.731 53.162 0" fill="none" stroke-width="1.594" stroke="red"/></g></svg>